SplineFontDB: 3.2
FontName: binaryhoriontal5m
FullName: binaryhoriontal5m
FamilyName: binaryhoriontal5m
Weight: Book
Copyright: Copyright 2022 The Noto Project Authors (https://github.com/notofonts/devanagari)
Version: 2.003
ItalicAngle: 0
UnderlinePosition: -125
UnderlineWidth: 50
Ascent: 800
Descent: 200
InvalidEm: 0
sfntRevision: 0x000200c5
LayerCount: 2
Layer: 0 1 "Back" 1
Layer: 1 1 "Fore" 0
XUID: [1021 467 -1121320856 3670528]
StyleMap: 0x0040
FSType: 0
OS2Version: 4
OS2_WeightWidthSlopeOnly: 0
OS2_UseTypoMetrics: 1
CreationTime: 1432194851
ModificationTime: 1716713402
PfmFamily: 81
TTFWeight: 400
TTFWidth: 5
LineGap: 0
VLineGap: 0
Panose: 0 0 0 0 0 0 0 0 0 0
OS2TypoAscent: 896
OS2TypoAOffset: 0
OS2TypoDescent: -408
OS2TypoDOffset: 0
OS2TypoLinegap: 0
OS2WinAscent: 896
OS2WinAOffset: 0
OS2WinDescent: 408
OS2WinDOffset: 0
HheadAscent: 896
HheadAOffset: 0
HheadDescent: -408
HheadDOffset: 0
OS2SubXSize: 650
OS2SubYSize: 600
OS2SubXOff: 0
OS2SubYOff: 75
OS2SupXSize: 650
OS2SupYSize: 600
OS2SupXOff: 0
OS2SupYOff: 350
OS2StrikeYSize: 50
OS2StrikeYPos: 322
OS2CapHeight: 622
OS2XHeight: 536
OS2Vendor: 'GOOG'
OS2CodePages: 00000093.00000000
OS2UnicodeRanges: 80008023.00002046.00000000.00000000
Lookup: 1 0 0 "'aalt' Access All Alternates in Devanagari2 lookup 0" { "'aalt' Access All Alternates in Devanagari2 lookup 0 subtable"  } ['aalt' ('DFLT' <'dflt' > 'dev2' <'MAR ' 'NEP ' 'dflt' > 'latn' <'MOL ' 'ROM ' > ) ]
Lookup: 1 0 0 "Single Substitution lookup 1" { "Single Substitution lookup 1 subtable"  } []
Lookup: 1 0 0 "Single Substitution lookup 2" { "Single Substitution lookup 2 subtable"  } []
Lookup: 1 0 0 "Single Substitution lookup 3" { "Single Substitution lookup 3 subtable"  } []
Lookup: 1 0 0 "Single Substitution lookup 4" { "Single Substitution lookup 4 subtable"  } []
Lookup: 1 0 0 "Single Substitution lookup 5" { "Single Substitution lookup 5 subtable"  } []
Lookup: 1 0 0 "Single Substitution lookup 6" { "Single Substitution lookup 6 subtable"  } []

StartChar: exclam.deva
Encoding: 33 33 3
Width: 926
Flags: W
LayerCount: 2
Fore
SplineSet
435 201 m 1,0,-1
 410 714 l 1,1,-1
 517 714 l 1,2,-1
 492 201 l 1,3,-1
 435 201 l 1,0,-1
401 54 m 0,4,5
 401 91 401 91 419 106 c 128,-1,6
 437 121 437 121 463 121 c 0,7,8
 488 121 488 121 506.5 106 c 128,-1,9
 525 91 525 91 525 54 c 0,10,11
 525 18 525 18 506.5 2 c 128,-1,12
 488 -14 488 -14 463 -14 c 0,13,14
 437 -14 437 -14 419 2 c 128,-1,15
 401 18 401 18 401 54 c 0,4,5
EndSplineSet
EndChar

StartChar: quotedbl.deva
Encoding: 34 34 4
Width: 926
Flags: W
LayerCount: 2
Fore
SplineSet
345 471 m 1,0,-1
 320 729 l 1,1,-1
 431 729 l 1,2,-1
 406 471 l 1,3,-1
 345 471 l 1,0,-1
521 471 m 1,4,-1
 496 729 l 1,5,-1
 606 729 l 1,6,-1
 581 471 l 1,7,-1
 521 471 l 1,4,-1
EndSplineSet
EndChar

StartChar: numbersign.deva
Encoding: 35 35 5
Width: 926
Flags: W
LayerCount: 2
Fore
SplineSet
295.5 176 m 1,0,-1
 170.5 176 l 1,1,-1
 170.5 242 l 1,2,-1
 307.5 242 l 1,3,-1
 338.5 394 l 1,4,-1
 206.5 394 l 1,5,-1
 206.5 459 l 1,6,-1
 349.5 459 l 1,7,-1
 383.5 632 l 1,8,-1
 453.5 632 l 1,9,-1
 420.5 459 l 1,10,-1
 560.5 459 l 1,11,-1
 594.5 632 l 1,12,-1
 663.5 632 l 1,13,-1
 629.5 459 l 1,14,-1
 755.5 459 l 1,15,-1
 755.5 394 l 1,16,-1
 616.5 394 l 1,17,-1
 587.5 242 l 1,18,-1
 720.5 242 l 1,19,-1
 720.5 176 l 1,20,-1
 574.5 176 l 1,21,-1
 540.5 0 l 1,22,-1
 470.5 0 l 1,23,-1
 505.5 176 l 1,24,-1
 365.5 176 l 1,25,-1
 331.5 0 l 1,26,-1
 262.5 0 l 1,27,-1
 295.5 176 l 1,0,-1
517.5 242 m 1,28,-1
 547.5 394 l 1,29,-1
 407.5 394 l 1,30,-1
 378.5 242 l 1,31,-1
 517.5 242 l 1,28,-1
EndSplineSet
EndChar

StartChar: percent.deva
Encoding: 37 37 6
Width: 926
Flags: W
LayerCount: 2
Fore
SplineSet
618.5 622 m 1,0,-1
 695.5 622 l 1,1,-1
 310.5 0 l 1,2,-1
 232.5 0 l 1,3,-1
 618.5 622 l 1,0,-1
251.5 271 m 0,4,5
 180.5 271 180.5 271 143.5 319 c 128,-1,6
 106.5 367 106.5 367 106.5 452 c 0,7,8
 106.5 538 106.5 538 141 585 c 128,-1,9
 175.5 632 175.5 632 251.5 632 c 0,10,11
 323.5 632 323.5 632 361 585 c 128,-1,12
 398.5 538 398.5 538 398.5 452 c 0,13,14
 398.5 367 398.5 367 363.5 319 c 128,-1,15
 328.5 271 328.5 271 251.5 271 c 0,4,5
250.5 334 m 256,16,17
 288.5 334 288.5 334 307 364 c 128,-1,18
 325.5 394 325.5 394 325.5 452 c 0,19,20
 325.5 511 325.5 511 307 540 c 128,-1,21
 288.5 569 288.5 569 250.5 569 c 256,22,23
 212.5 569 212.5 569 195.5 540 c 128,-1,24
 178.5 511 178.5 511 178.5 452 c 0,25,26
 178.5 394 178.5 394 195.5 364 c 128,-1,27
 212.5 334 212.5 334 250.5 334 c 256,16,17
673.5 -10 m 0,28,29
 601.5 -10 601.5 -10 565 38.5 c 128,-1,30
 528.5 87 528.5 87 528.5 171 c 0,31,32
 528.5 257 528.5 257 563 304.5 c 128,-1,33
 597.5 352 597.5 352 673.5 352 c 0,34,35
 746.5 352 746.5 352 783 304.5 c 128,-1,36
 819.5 257 819.5 257 819.5 171 c 0,37,38
 819.5 87 819.5 87 785 38.5 c 128,-1,39
 750.5 -10 750.5 -10 673.5 -10 c 0,28,29
673.5 55 m 256,40,41
 711.5 55 711.5 55 730 84 c 128,-1,42
 748.5 113 748.5 113 748.5 171 c 0,43,44
 748.5 230 748.5 230 730 259.5 c 128,-1,45
 711.5 289 711.5 289 673.5 289 c 256,46,47
 635.5 289 635.5 289 618.5 259.5 c 128,-1,48
 601.5 230 601.5 230 601.5 171 c 0,49,50
 601.5 113 601.5 113 618.5 84 c 128,-1,51
 635.5 55 635.5 55 673.5 55 c 256,40,41
EndSplineSet
EndChar

StartChar: quotesingle.deva
Encoding: 39 39 7
Width: 926
Flags: W
LayerCount: 2
Fore
SplineSet
432.5 471 m 1,0,-1
 407.5 729 l 1,1,-1
 518.5 729 l 1,2,-1
 493.5 471 l 1,3,-1
 432.5 471 l 1,0,-1
EndSplineSet
EndChar

StartChar: parenleft.deva
Encoding: 40 40 8
Width: 926
Flags: W
LayerCount: 2
Fore
SplineSet
494.5 -165 m 1,0,1
 419.5 -62 419.5 -62 384.5 68.5 c 128,-1,2
 349.5 199 349.5 199 349.5 337 c 0,3,4
 349.5 477 349.5 477 384 603.5 c 128,-1,5
 418.5 730 418.5 730 494.5 832 c 1,6,-1
 575.5 832 l 1,7,8
 530.5 762 530.5 762 499 681.5 c 128,-1,9
 467.5 601 467.5 601 451 514 c 128,-1,10
 434.5 427 434.5 427 434.5 336 c 0,11,12
 434.5 248 434.5 248 450.5 160 c 128,-1,13
 466.5 72 466.5 72 498 -10 c 128,-1,14
 529.5 -92 529.5 -92 576.5 -165 c 1,15,-1
 494.5 -165 l 1,0,1
EndSplineSet
EndChar

StartChar: parenright.deva
Encoding: 41 41 9
Width: 926
Flags: W
LayerCount: 2
Fore
SplineSet
350.5 -165 m 1,0,1
 395.5 -94 395.5 -94 427 -13 c 128,-1,2
 458.5 68 458.5 68 474.5 155 c 128,-1,3
 490.5 242 490.5 242 490.5 330 c 0,4,5
 490.5 419 490.5 419 474.5 506.5 c 128,-1,6
 458.5 594 458.5 594 427.5 676.5 c 128,-1,7
 396.5 759 396.5 759 349.5 832 c 1,8,-1
 431.5 832 l 1,9,10
 506.5 729 506.5 729 541.5 598 c 128,-1,11
 576.5 467 576.5 467 576.5 329 c 0,12,13
 576.5 190 576.5 190 541.5 63 c 128,-1,14
 506.5 -64 506.5 -64 431.5 -165 c 1,15,-1
 350.5 -165 l 1,0,1
EndSplineSet
EndChar

StartChar: asterisk.deva
Encoding: 42 42 10
Width: 926
Flags: W
LayerCount: 2
Fore
SplineSet
293 340 m 1,0,-1
 411 499 l 1,1,-1
 228 513 l 1,2,-1
 242 607 l 1,3,-1
 433 553 l 1,4,-1
 412 745 l 1,5,-1
 512 745 l 1,6,-1
 491 553 l 1,7,-1
 685 607 l 1,8,-1
 698 513 l 1,9,-1
 513 499 l 1,10,-1
 633 340 l 1,11,-1
 546 293 l 1,12,-1
 460 468 l 1,13,-1
 383 293 l 1,14,-1
 293 340 l 1,0,-1
EndSplineSet
EndChar

StartChar: plus.deva
Encoding: 43 43 11
Width: 926
Flags: W
LayerCount: 2
Fore
SplineSet
426.5 286 m 1,0,-1
 237.5 286 l 1,1,-1
 237.5 359 l 1,2,-1
 426.5 359 l 1,3,-1
 426.5 548 l 1,4,-1
 499.5 548 l 1,5,-1
 499.5 359 l 1,6,-1
 688.5 359 l 1,7,-1
 688.5 286 l 1,8,-1
 499.5 286 l 1,9,-1
 499.5 97 l 1,10,-1
 426.5 97 l 1,11,-1
 426.5 286 l 1,0,-1
EndSplineSet
EndChar

StartChar: comma.deva
Encoding: 44 44 12
Width: 926
Flags: W
LayerCount: 2
Fore
SplineSet
386.5 -129 m 1,0,1
 396.5 -89 396.5 -89 406 -45.5 c 128,-1,2
 415.5 -2 415.5 -2 423 40 c 128,-1,3
 430.5 82 430.5 82 435.5 116 c 1,4,-1
 532.5 116 l 1,5,-1
 539.5 105 l 1,6,7
 530.5 70 530.5 70 516.5 29.5 c 128,-1,8
 502.5 -11 502.5 -11 486.5 -51.5 c 128,-1,9
 470.5 -92 470.5 -92 453.5 -129 c 1,10,-1
 386.5 -129 l 1,0,1
EndSplineSet
EndChar

StartChar: hyphen.deva
Encoding: 45 45 13
Width: 926
Flags: W
LayerCount: 2
Fore
SplineSet
342 338 m 1,0,-1
 584 338 l 1,1,-1
 584 256 l 1,2,-1
 342 256 l 1,3,-1
 342 338 l 1,0,-1
EndSplineSet
EndChar

StartChar: period.deva
Encoding: 46 46 14
Width: 926
Flags: W
LayerCount: 2
Fore
SplineSet
401 54 m 0,0,1
 401 91 401 91 419 106 c 128,-1,2
 437 121 437 121 462 121 c 0,3,4
 488 121 488 121 506.5 106 c 128,-1,5
 525 91 525 91 525 54 c 0,6,7
 525 18 525 18 506.5 2 c 128,-1,8
 488 -14 488 -14 462 -14 c 0,9,10
 437 -14 437 -14 419 2 c 128,-1,11
 401 18 401 18 401 54 c 0,0,1
EndSplineSet
EndChar

StartChar: slash.deva
Encoding: 47 47 15
Width: 926
Flags: W
LayerCount: 2
Fore
SplineSet
553.5 833 m 1,0,-1
 635.5 833 l 1,1,-1
 373.5 -166 l 1,2,-1
 290.5 -166 l 1,3,-1
 553.5 833 l 1,0,-1
EndSplineSet
EndChar

StartChar: zero.deva
Encoding: 48 48 16
Width: 926
Flags: W
LayerCount: 2
Fore
SplineSet
780.51953125 655.2734375 m 256,0,1
 758.96484375 655.2734375 758.96484375 655.2734375 739.30859375 630.185546875 c 128,-1,2
 719.655273438 605.098632812 719.655273438 605.098632812 705.708984375 559.783203125 c 128,-1,3
 691.759765625 514.46484375 691.759765625 514.46484375 683.516601562 453.770507812 c 128,-1,4
 675.275390625 393.077148438 675.275390625 393.077148438 675.275390625 323.482421875 c 0,5,6
 675.275390625 252.26953125 675.275390625 252.26953125 683.516601562 191.57421875 c 128,-1,7
 691.759765625 130.883789062 691.759765625 130.883789062 705.708984375 86.375 c 128,-1,8
 719.655273438 41.8642578125 719.655273438 41.8642578125 739.30859375 15.96875 c 128,-1,9
 758.96484375 -9.9248046875 758.96484375 -9.9248046875 780.51953125 -9.9248046875 c 256,10,11
 802.077148438 -9.9248046875 802.077148438 -9.9248046875 821.09765625 15.96875 c 128,-1,12
 840.120117188 41.8642578125 840.120117188 41.8642578125 854.703125 86.375 c 128,-1,13
 869.28125 130.883789062 869.28125 130.883789062 877.524414062 191.57421875 c 128,-1,14
 885.768554688 252.26953125 885.768554688 252.26953125 885.768554688 323.482421875 c 0,15,16
 885.768554688 393.077148438 885.768554688 393.077148438 877.524414062 453.770507812 c 128,-1,17
 869.28125 514.46484375 869.28125 514.46484375 854.703125 559.783203125 c 128,-1,18
 840.120117188 605.098632812 840.120117188 605.098632812 821.09765625 630.185546875 c 128,-1,19
 802.077148438 655.2734375 802.077148438 655.2734375 780.51953125 655.2734375 c 256,0,1
778.483398438 597.200195312 m 0,20,21
 789.838867188 596.94140625 789.838867188 596.94140625 799.541992188 576.907226562 c 0,22,23
 809.880859375 556.34765625 809.880859375 556.34765625 816.48828125 520.291015625 c 0,24,25
 823.66015625 484.387695312 823.66015625 484.387695312 827.786132812 434.8359375 c 0,26,27
 832.427734375 385.672851562 832.427734375 385.672851562 831.893554688 330.15234375 c 0,28,29
 832.427734375 272.196289062 832.427734375 272.196289062 827.786132812 224.399414062 c 0,30,31
 823.66015625 176.247070312 823.66015625 176.247070312 816.48828125 140.010742188 c 0,32,33
 809.880859375 103.366210938 809.880859375 103.366210938 799.541992188 83.3974609375 c 0,34,35
 789.838867188 62.7705078125 789.838867188 62.7705078125 778.483398438 63.1005859375 c 0,36,37
 768.546875 62.7705078125 768.546875 62.7705078125 757.942382812 83.3974609375 c 0,38,39
 747.252929688 103.366210938 747.252929688 103.366210938 740.481445312 140.010742188 c 0,40,41
 733.474609375 176.247070312 733.474609375 176.247070312 729.182617188 224.399414062 c 0,42,43
 724.70703125 272.196289062 724.70703125 272.196289062 725.075195312 330.15234375 c 0,44,45
 724.70703125 385.672851562 724.70703125 385.672851562 729.182617188 434.8359375 c 0,46,47
 733.474609375 484.387695312 733.474609375 484.387695312 740.481445312 520.291015625 c 0,48,49
 747.252929688 556.34765625 747.252929688 556.34765625 757.942382812 576.907226562 c 0,50,51
 768.546875 596.94140625 768.546875 596.94140625 778.483398438 597.200195312 c 0,20,21
568.837890625 655.2734375 m 256,52,53
 547.284179688 655.2734375 547.284179688 655.2734375 527.627929688 630.185546875 c 128,-1,54
 507.973632812 605.098632812 507.973632812 605.098632812 494.028320312 559.783203125 c 128,-1,55
 480.077148438 514.46484375 480.077148438 514.46484375 471.8359375 453.770507812 c 128,-1,56
 463.594726562 393.077148438 463.594726562 393.077148438 463.594726562 323.482421875 c 0,57,58
 463.594726562 252.26953125 463.594726562 252.26953125 471.8359375 191.57421875 c 128,-1,59
 480.077148438 130.883789062 480.077148438 130.883789062 494.028320312 86.375 c 128,-1,60
 507.973632812 41.8642578125 507.973632812 41.8642578125 527.627929688 15.96875 c 128,-1,61
 547.284179688 -9.9248046875 547.284179688 -9.9248046875 568.837890625 -9.9248046875 c 256,62,63
 590.396484375 -9.9248046875 590.396484375 -9.9248046875 609.415039062 15.96875 c 128,-1,64
 628.4375 41.8642578125 628.4375 41.8642578125 643.021484375 86.375 c 128,-1,65
 657.599609375 130.883789062 657.599609375 130.883789062 665.842773438 191.57421875 c 128,-1,66
 674.087890625 252.26953125 674.087890625 252.26953125 674.087890625 323.482421875 c 0,67,68
 674.087890625 393.077148438 674.087890625 393.077148438 665.842773438 453.770507812 c 128,-1,69
 657.599609375 514.46484375 657.599609375 514.46484375 643.021484375 559.783203125 c 128,-1,70
 628.4375 605.098632812 628.4375 605.098632812 609.415039062 630.185546875 c 128,-1,71
 590.396484375 655.2734375 590.396484375 655.2734375 568.837890625 655.2734375 c 256,52,53
566.802734375 597.200195312 m 0,72,73
 578.158203125 596.94140625 578.158203125 596.94140625 587.860351562 576.907226562 c 0,74,75
 598.200195312 556.34765625 598.200195312 556.34765625 604.807617188 520.291015625 c 0,76,77
 611.977539062 484.387695312 611.977539062 484.387695312 616.103515625 434.8359375 c 0,78,79
 620.74609375 385.672851562 620.74609375 385.672851562 620.211914062 330.15234375 c 0,80,81
 620.74609375 272.196289062 620.74609375 272.196289062 616.103515625 224.399414062 c 0,82,83
 611.977539062 176.247070312 611.977539062 176.247070312 604.807617188 140.010742188 c 0,84,85
 598.200195312 103.366210938 598.200195312 103.366210938 587.860351562 83.3974609375 c 0,86,87
 578.158203125 62.7705078125 578.158203125 62.7705078125 566.802734375 63.1005859375 c 0,88,89
 556.866210938 62.7705078125 556.866210938 62.7705078125 546.260742188 83.3974609375 c 0,90,91
 535.5703125 103.366210938 535.5703125 103.366210938 528.80078125 140.010742188 c 0,92,93
 521.793945312 176.247070312 521.793945312 176.247070312 517.501953125 224.399414062 c 0,94,95
 513.026367188 272.196289062 513.026367188 272.196289062 513.393554688 330.15234375 c 0,96,97
 513.026367188 385.672851562 513.026367188 385.672851562 517.501953125 434.8359375 c 0,98,99
 521.793945312 484.387695312 521.793945312 484.387695312 528.80078125 520.291015625 c 0,100,101
 535.5703125 556.34765625 535.5703125 556.34765625 546.260742188 576.907226562 c 0,102,103
 556.866210938 596.94140625 556.866210938 596.94140625 566.802734375 597.200195312 c 0,72,73
357.157226562 655.2734375 m 256,104,105
 335.602539062 655.2734375 335.602539062 655.2734375 315.947265625 630.185546875 c 128,-1,106
 296.291992188 605.098632812 296.291992188 605.098632812 282.345703125 559.783203125 c 128,-1,107
 268.396484375 514.46484375 268.396484375 514.46484375 260.154296875 453.770507812 c 128,-1,108
 251.913085938 393.077148438 251.913085938 393.077148438 251.913085938 323.482421875 c 0,109,110
 251.913085938 252.26953125 251.913085938 252.26953125 260.154296875 191.57421875 c 128,-1,111
 268.396484375 130.883789062 268.396484375 130.883789062 282.345703125 86.375 c 128,-1,112
 296.291992188 41.8642578125 296.291992188 41.8642578125 315.947265625 15.96875 c 128,-1,113
 335.602539062 -9.9248046875 335.602539062 -9.9248046875 357.157226562 -9.9248046875 c 256,114,115
 378.71484375 -9.9248046875 378.71484375 -9.9248046875 397.734375 15.96875 c 128,-1,116
 416.756835938 41.8642578125 416.756835938 41.8642578125 431.33984375 86.375 c 128,-1,117
 445.916992188 130.883789062 445.916992188 130.883789062 454.162109375 191.57421875 c 128,-1,118
 462.405273438 252.26953125 462.405273438 252.26953125 462.405273438 323.482421875 c 0,119,120
 462.405273438 393.077148438 462.405273438 393.077148438 454.162109375 453.770507812 c 128,-1,121
 445.916992188 514.46484375 445.916992188 514.46484375 431.33984375 559.783203125 c 128,-1,122
 416.756835938 605.098632812 416.756835938 605.098632812 397.734375 630.185546875 c 128,-1,123
 378.71484375 655.2734375 378.71484375 655.2734375 357.157226562 655.2734375 c 256,104,105
355.120117188 597.200195312 m 0,124,125
 366.4765625 596.94140625 366.4765625 596.94140625 376.177734375 576.907226562 c 0,126,127
 386.518554688 556.34765625 386.518554688 556.34765625 393.125976562 520.291015625 c 0,128,129
 400.296875 484.387695312 400.296875 484.387695312 404.422851562 434.8359375 c 0,130,131
 409.065429688 385.672851562 409.065429688 385.672851562 408.530273438 330.15234375 c 0,132,133
 409.065429688 272.196289062 409.065429688 272.196289062 404.422851562 224.399414062 c 0,134,135
 400.296875 176.247070312 400.296875 176.247070312 393.125976562 140.010742188 c 0,136,137
 386.518554688 103.366210938 386.518554688 103.366210938 376.177734375 83.3974609375 c 0,138,139
 366.4765625 62.7705078125 366.4765625 62.7705078125 355.120117188 63.1005859375 c 0,140,141
 345.184570312 62.7705078125 345.184570312 62.7705078125 334.580078125 83.3974609375 c 0,142,143
 323.889648438 103.366210938 323.889648438 103.366210938 317.119140625 140.010742188 c 0,144,145
 310.112304688 176.247070312 310.112304688 176.247070312 305.819335938 224.399414062 c 0,146,147
 301.345703125 272.196289062 301.345703125 272.196289062 301.712890625 330.15234375 c 0,148,149
 301.345703125 385.672851562 301.345703125 385.672851562 305.819335938 434.8359375 c 0,150,151
 310.112304688 484.387695312 310.112304688 484.387695312 317.119140625 520.291015625 c 0,152,153
 323.889648438 556.34765625 323.889648438 556.34765625 334.580078125 576.907226562 c 0,154,155
 345.184570312 596.94140625 345.184570312 596.94140625 355.120117188 597.200195312 c 0,124,125
145.475585938 655.2734375 m 256,156,157
 123.921875 655.2734375 123.921875 655.2734375 104.265625 630.185546875 c 128,-1,158
 84.611328125 605.098632812 84.611328125 605.098632812 70.6650390625 559.783203125 c 128,-1,159
 56.71484375 514.46484375 56.71484375 514.46484375 48.4736328125 453.770507812 c 128,-1,160
 40.2314453125 393.077148438 40.2314453125 393.077148438 40.2314453125 323.482421875 c 0,161,162
 40.2314453125 252.26953125 40.2314453125 252.26953125 48.4736328125 191.57421875 c 128,-1,163
 56.71484375 130.883789062 56.71484375 130.883789062 70.6650390625 86.375 c 128,-1,164
 84.611328125 41.8642578125 84.611328125 41.8642578125 104.265625 15.96875 c 128,-1,165
 123.921875 -9.9248046875 123.921875 -9.9248046875 145.475585938 -9.9248046875 c 256,166,167
 167.034179688 -9.9248046875 167.034179688 -9.9248046875 186.051757812 15.96875 c 128,-1,168
 205.075195312 41.8642578125 205.075195312 41.8642578125 219.658203125 86.375 c 128,-1,169
 234.236328125 130.883789062 234.236328125 130.883789062 242.48046875 191.57421875 c 128,-1,170
 250.724609375 252.26953125 250.724609375 252.26953125 250.724609375 323.482421875 c 0,171,172
 250.724609375 393.077148438 250.724609375 393.077148438 242.48046875 453.770507812 c 128,-1,173
 234.236328125 514.46484375 234.236328125 514.46484375 219.658203125 559.783203125 c 128,-1,174
 205.075195312 605.098632812 205.075195312 605.098632812 186.051757812 630.185546875 c 128,-1,175
 167.034179688 655.2734375 167.034179688 655.2734375 145.475585938 655.2734375 c 256,156,157
143.439453125 597.200195312 m 0,176,177
 154.795898438 596.94140625 154.795898438 596.94140625 164.49609375 576.907226562 c 0,178,179
 174.836914062 556.34765625 174.836914062 556.34765625 181.4453125 520.291015625 c 0,180,181
 188.614257812 484.387695312 188.614257812 484.387695312 192.741210938 434.8359375 c 0,182,183
 197.3828125 385.672851562 197.3828125 385.672851562 196.849609375 330.15234375 c 0,184,185
 197.3828125 272.196289062 197.3828125 272.196289062 192.741210938 224.399414062 c 0,186,187
 188.614257812 176.247070312 188.614257812 176.247070312 181.4453125 140.010742188 c 0,188,189
 174.836914062 103.366210938 174.836914062 103.366210938 164.49609375 83.3974609375 c 0,190,191
 154.795898438 62.7705078125 154.795898438 62.7705078125 143.439453125 63.1005859375 c 0,192,193
 133.50390625 62.7705078125 133.50390625 62.7705078125 122.8984375 83.3974609375 c 0,194,195
 112.208984375 103.366210938 112.208984375 103.366210938 105.438476562 140.010742188 c 0,196,197
 98.431640625 176.247070312 98.431640625 176.247070312 94.1376953125 224.399414062 c 0,198,199
 89.6640625 272.196289062 89.6640625 272.196289062 90.0302734375 330.15234375 c 0,200,201
 89.6640625 385.672851562 89.6640625 385.672851562 94.1376953125 434.8359375 c 0,202,203
 98.431640625 484.387695312 98.431640625 484.387695312 105.438476562 520.291015625 c 0,204,205
 112.208984375 556.34765625 112.208984375 556.34765625 122.8984375 576.907226562 c 0,206,207
 133.50390625 596.94140625 133.50390625 596.94140625 143.439453125 597.200195312 c 0,176,177
EndSplineSet
EndChar

StartChar: one.deva
Encoding: 49 49 17
Width: 926
Flags: W
LayerCount: 2
Fore
SplineSet
780.51953125 655.2734375 m 256,0,1
 758.96484375 655.2734375 758.96484375 655.2734375 739.30859375 630.185546875 c 128,-1,2
 719.655273438 605.098632812 719.655273438 605.098632812 705.708984375 559.783203125 c 128,-1,3
 691.759765625 514.46484375 691.759765625 514.46484375 683.516601562 453.770507812 c 128,-1,4
 675.275390625 393.077148438 675.275390625 393.077148438 675.275390625 323.482421875 c 0,5,6
 675.275390625 252.26953125 675.275390625 252.26953125 683.516601562 191.57421875 c 128,-1,7
 691.759765625 130.883789062 691.759765625 130.883789062 705.708984375 86.375 c 128,-1,8
 719.655273438 41.8642578125 719.655273438 41.8642578125 739.30859375 15.96875 c 128,-1,9
 758.96484375 -9.9248046875 758.96484375 -9.9248046875 780.51953125 -9.9248046875 c 256,10,11
 802.077148438 -9.9248046875 802.077148438 -9.9248046875 821.09765625 15.96875 c 128,-1,12
 840.120117188 41.8642578125 840.120117188 41.8642578125 854.703125 86.375 c 128,-1,13
 869.28125 130.883789062 869.28125 130.883789062 877.524414062 191.57421875 c 128,-1,14
 885.768554688 252.26953125 885.768554688 252.26953125 885.768554688 323.482421875 c 0,15,16
 885.768554688 393.077148438 885.768554688 393.077148438 877.524414062 453.770507812 c 128,-1,17
 869.28125 514.46484375 869.28125 514.46484375 854.703125 559.783203125 c 128,-1,18
 840.120117188 605.098632812 840.120117188 605.098632812 821.09765625 630.185546875 c 128,-1,19
 802.077148438 655.2734375 802.077148438 655.2734375 780.51953125 655.2734375 c 256,0,1
568.837890625 655.2734375 m 256,20,21
 547.284179688 655.2734375 547.284179688 655.2734375 527.627929688 630.185546875 c 128,-1,22
 507.973632812 605.098632812 507.973632812 605.098632812 494.028320312 559.783203125 c 128,-1,23
 480.077148438 514.46484375 480.077148438 514.46484375 471.8359375 453.770507812 c 128,-1,24
 463.594726562 393.077148438 463.594726562 393.077148438 463.594726562 323.482421875 c 0,25,26
 463.594726562 252.26953125 463.594726562 252.26953125 471.8359375 191.57421875 c 128,-1,27
 480.077148438 130.883789062 480.077148438 130.883789062 494.028320312 86.375 c 128,-1,28
 507.973632812 41.8642578125 507.973632812 41.8642578125 527.627929688 15.96875 c 128,-1,29
 547.284179688 -9.9248046875 547.284179688 -9.9248046875 568.837890625 -9.9248046875 c 256,30,31
 590.396484375 -9.9248046875 590.396484375 -9.9248046875 609.415039062 15.96875 c 128,-1,32
 628.4375 41.8642578125 628.4375 41.8642578125 643.021484375 86.375 c 128,-1,33
 657.599609375 130.883789062 657.599609375 130.883789062 665.842773438 191.57421875 c 128,-1,34
 674.087890625 252.26953125 674.087890625 252.26953125 674.087890625 323.482421875 c 0,35,36
 674.087890625 393.077148438 674.087890625 393.077148438 665.842773438 453.770507812 c 128,-1,37
 657.599609375 514.46484375 657.599609375 514.46484375 643.021484375 559.783203125 c 128,-1,38
 628.4375 605.098632812 628.4375 605.098632812 609.415039062 630.185546875 c 128,-1,39
 590.396484375 655.2734375 590.396484375 655.2734375 568.837890625 655.2734375 c 256,20,21
566.802734375 597.200195312 m 0,40,41
 578.158203125 596.94140625 578.158203125 596.94140625 587.860351562 576.907226562 c 0,42,43
 598.200195312 556.34765625 598.200195312 556.34765625 604.807617188 520.291015625 c 0,44,45
 611.977539062 484.387695312 611.977539062 484.387695312 616.103515625 434.8359375 c 0,46,47
 620.74609375 385.672851562 620.74609375 385.672851562 620.211914062 330.15234375 c 0,48,49
 620.74609375 272.196289062 620.74609375 272.196289062 616.103515625 224.399414062 c 0,50,51
 611.977539062 176.247070312 611.977539062 176.247070312 604.807617188 140.010742188 c 0,52,53
 598.200195312 103.366210938 598.200195312 103.366210938 587.860351562 83.3974609375 c 0,54,55
 578.158203125 62.7705078125 578.158203125 62.7705078125 566.802734375 63.1005859375 c 0,56,57
 556.866210938 62.7705078125 556.866210938 62.7705078125 546.260742188 83.3974609375 c 0,58,59
 535.5703125 103.366210938 535.5703125 103.366210938 528.80078125 140.010742188 c 0,60,61
 521.793945312 176.247070312 521.793945312 176.247070312 517.501953125 224.399414062 c 0,62,63
 513.026367188 272.196289062 513.026367188 272.196289062 513.393554688 330.15234375 c 0,64,65
 513.026367188 385.672851562 513.026367188 385.672851562 517.501953125 434.8359375 c 0,66,67
 521.793945312 484.387695312 521.793945312 484.387695312 528.80078125 520.291015625 c 0,68,69
 535.5703125 556.34765625 535.5703125 556.34765625 546.260742188 576.907226562 c 0,70,71
 556.866210938 596.94140625 556.866210938 596.94140625 566.802734375 597.200195312 c 0,40,41
357.157226562 655.2734375 m 256,72,73
 335.602539062 655.2734375 335.602539062 655.2734375 315.947265625 630.185546875 c 128,-1,74
 296.291992188 605.098632812 296.291992188 605.098632812 282.345703125 559.783203125 c 128,-1,75
 268.396484375 514.46484375 268.396484375 514.46484375 260.154296875 453.770507812 c 128,-1,76
 251.913085938 393.077148438 251.913085938 393.077148438 251.913085938 323.482421875 c 0,77,78
 251.913085938 252.26953125 251.913085938 252.26953125 260.154296875 191.57421875 c 128,-1,79
 268.396484375 130.883789062 268.396484375 130.883789062 282.345703125 86.375 c 128,-1,80
 296.291992188 41.8642578125 296.291992188 41.8642578125 315.947265625 15.96875 c 128,-1,81
 335.602539062 -9.9248046875 335.602539062 -9.9248046875 357.157226562 -9.9248046875 c 256,82,83
 378.71484375 -9.9248046875 378.71484375 -9.9248046875 397.734375 15.96875 c 128,-1,84
 416.756835938 41.8642578125 416.756835938 41.8642578125 431.33984375 86.375 c 128,-1,85
 445.916992188 130.883789062 445.916992188 130.883789062 454.162109375 191.57421875 c 128,-1,86
 462.405273438 252.26953125 462.405273438 252.26953125 462.405273438 323.482421875 c 0,87,88
 462.405273438 393.077148438 462.405273438 393.077148438 454.162109375 453.770507812 c 128,-1,89
 445.916992188 514.46484375 445.916992188 514.46484375 431.33984375 559.783203125 c 128,-1,90
 416.756835938 605.098632812 416.756835938 605.098632812 397.734375 630.185546875 c 128,-1,91
 378.71484375 655.2734375 378.71484375 655.2734375 357.157226562 655.2734375 c 256,72,73
355.120117188 597.200195312 m 0,92,93
 366.4765625 596.94140625 366.4765625 596.94140625 376.177734375 576.907226562 c 0,94,95
 386.518554688 556.34765625 386.518554688 556.34765625 393.125976562 520.291015625 c 0,96,97
 400.296875 484.387695312 400.296875 484.387695312 404.422851562 434.8359375 c 0,98,99
 409.065429688 385.672851562 409.065429688 385.672851562 408.530273438 330.15234375 c 0,100,101
 409.065429688 272.196289062 409.065429688 272.196289062 404.422851562 224.399414062 c 0,102,103
 400.296875 176.247070312 400.296875 176.247070312 393.125976562 140.010742188 c 0,104,105
 386.518554688 103.366210938 386.518554688 103.366210938 376.177734375 83.3974609375 c 0,106,107
 366.4765625 62.7705078125 366.4765625 62.7705078125 355.120117188 63.1005859375 c 0,108,109
 345.184570312 62.7705078125 345.184570312 62.7705078125 334.580078125 83.3974609375 c 0,110,111
 323.889648438 103.366210938 323.889648438 103.366210938 317.119140625 140.010742188 c 0,112,113
 310.112304688 176.247070312 310.112304688 176.247070312 305.819335938 224.399414062 c 0,114,115
 301.345703125 272.196289062 301.345703125 272.196289062 301.712890625 330.15234375 c 0,116,117
 301.345703125 385.672851562 301.345703125 385.672851562 305.819335938 434.8359375 c 0,118,119
 310.112304688 484.387695312 310.112304688 484.387695312 317.119140625 520.291015625 c 0,120,121
 323.889648438 556.34765625 323.889648438 556.34765625 334.580078125 576.907226562 c 0,122,123
 345.184570312 596.94140625 345.184570312 596.94140625 355.120117188 597.200195312 c 0,92,93
145.475585938 655.2734375 m 256,124,125
 123.921875 655.2734375 123.921875 655.2734375 104.265625 630.185546875 c 128,-1,126
 84.611328125 605.098632812 84.611328125 605.098632812 70.6650390625 559.783203125 c 128,-1,127
 56.71484375 514.46484375 56.71484375 514.46484375 48.4736328125 453.770507812 c 128,-1,128
 40.2314453125 393.077148438 40.2314453125 393.077148438 40.2314453125 323.482421875 c 0,129,130
 40.2314453125 252.26953125 40.2314453125 252.26953125 48.4736328125 191.57421875 c 128,-1,131
 56.71484375 130.883789062 56.71484375 130.883789062 70.6650390625 86.375 c 128,-1,132
 84.611328125 41.8642578125 84.611328125 41.8642578125 104.265625 15.96875 c 128,-1,133
 123.921875 -9.9248046875 123.921875 -9.9248046875 145.475585938 -9.9248046875 c 256,134,135
 167.034179688 -9.9248046875 167.034179688 -9.9248046875 186.051757812 15.96875 c 128,-1,136
 205.075195312 41.8642578125 205.075195312 41.8642578125 219.658203125 86.375 c 128,-1,137
 234.236328125 130.883789062 234.236328125 130.883789062 242.48046875 191.57421875 c 128,-1,138
 250.724609375 252.26953125 250.724609375 252.26953125 250.724609375 323.482421875 c 0,139,140
 250.724609375 393.077148438 250.724609375 393.077148438 242.48046875 453.770507812 c 128,-1,141
 234.236328125 514.46484375 234.236328125 514.46484375 219.658203125 559.783203125 c 128,-1,142
 205.075195312 605.098632812 205.075195312 605.098632812 186.051757812 630.185546875 c 128,-1,143
 167.034179688 655.2734375 167.034179688 655.2734375 145.475585938 655.2734375 c 256,124,125
143.439453125 597.200195312 m 0,144,145
 154.795898438 596.94140625 154.795898438 596.94140625 164.49609375 576.907226562 c 0,146,147
 174.836914062 556.34765625 174.836914062 556.34765625 181.4453125 520.291015625 c 0,148,149
 188.614257812 484.387695312 188.614257812 484.387695312 192.741210938 434.8359375 c 0,150,151
 197.3828125 385.672851562 197.3828125 385.672851562 196.849609375 330.15234375 c 0,152,153
 197.3828125 272.196289062 197.3828125 272.196289062 192.741210938 224.399414062 c 0,154,155
 188.614257812 176.247070312 188.614257812 176.247070312 181.4453125 140.010742188 c 0,156,157
 174.836914062 103.366210938 174.836914062 103.366210938 164.49609375 83.3974609375 c 0,158,159
 154.795898438 62.7705078125 154.795898438 62.7705078125 143.439453125 63.1005859375 c 0,160,161
 133.50390625 62.7705078125 133.50390625 62.7705078125 122.8984375 83.3974609375 c 0,162,163
 112.208984375 103.366210938 112.208984375 103.366210938 105.438476562 140.010742188 c 0,164,165
 98.431640625 176.247070312 98.431640625 176.247070312 94.1376953125 224.399414062 c 0,166,167
 89.6640625 272.196289062 89.6640625 272.196289062 90.0302734375 330.15234375 c 0,168,169
 89.6640625 385.672851562 89.6640625 385.672851562 94.1376953125 434.8359375 c 0,170,171
 98.431640625 484.387695312 98.431640625 484.387695312 105.438476562 520.291015625 c 0,172,173
 112.208984375 556.34765625 112.208984375 556.34765625 122.8984375 576.907226562 c 0,174,175
 133.50390625 596.94140625 133.50390625 596.94140625 143.439453125 597.200195312 c 0,144,145
EndSplineSet
EndChar

StartChar: two.deva
Encoding: 50 50 18
Width: 926
Flags: W
LayerCount: 2
Fore
SplineSet
780.51953125 655.2734375 m 256,0,1
 758.96484375 655.2734375 758.96484375 655.2734375 739.30859375 630.185546875 c 128,-1,2
 719.655273438 605.098632812 719.655273438 605.098632812 705.708984375 559.783203125 c 128,-1,3
 691.759765625 514.46484375 691.759765625 514.46484375 683.516601562 453.770507812 c 128,-1,4
 675.275390625 393.077148438 675.275390625 393.077148438 675.275390625 323.482421875 c 0,5,6
 675.275390625 252.26953125 675.275390625 252.26953125 683.516601562 191.57421875 c 128,-1,7
 691.759765625 130.883789062 691.759765625 130.883789062 705.708984375 86.375 c 128,-1,8
 719.655273438 41.8642578125 719.655273438 41.8642578125 739.30859375 15.96875 c 128,-1,9
 758.96484375 -9.9248046875 758.96484375 -9.9248046875 780.51953125 -9.9248046875 c 256,10,11
 802.077148438 -9.9248046875 802.077148438 -9.9248046875 821.09765625 15.96875 c 128,-1,12
 840.120117188 41.8642578125 840.120117188 41.8642578125 854.703125 86.375 c 128,-1,13
 869.28125 130.883789062 869.28125 130.883789062 877.524414062 191.57421875 c 128,-1,14
 885.768554688 252.26953125 885.768554688 252.26953125 885.768554688 323.482421875 c 0,15,16
 885.768554688 393.077148438 885.768554688 393.077148438 877.524414062 453.770507812 c 128,-1,17
 869.28125 514.46484375 869.28125 514.46484375 854.703125 559.783203125 c 128,-1,18
 840.120117188 605.098632812 840.120117188 605.098632812 821.09765625 630.185546875 c 128,-1,19
 802.077148438 655.2734375 802.077148438 655.2734375 780.51953125 655.2734375 c 256,0,1
778.483398438 597.200195312 m 0,20,21
 789.838867188 596.94140625 789.838867188 596.94140625 799.541992188 576.907226562 c 0,22,23
 809.880859375 556.34765625 809.880859375 556.34765625 816.48828125 520.291015625 c 0,24,25
 823.66015625 484.387695312 823.66015625 484.387695312 827.786132812 434.8359375 c 0,26,27
 832.427734375 385.672851562 832.427734375 385.672851562 831.893554688 330.15234375 c 0,28,29
 832.427734375 272.196289062 832.427734375 272.196289062 827.786132812 224.399414062 c 0,30,31
 823.66015625 176.247070312 823.66015625 176.247070312 816.48828125 140.010742188 c 0,32,33
 809.880859375 103.366210938 809.880859375 103.366210938 799.541992188 83.3974609375 c 0,34,35
 789.838867188 62.7705078125 789.838867188 62.7705078125 778.483398438 63.1005859375 c 0,36,37
 768.546875 62.7705078125 768.546875 62.7705078125 757.942382812 83.3974609375 c 0,38,39
 747.252929688 103.366210938 747.252929688 103.366210938 740.481445312 140.010742188 c 0,40,41
 733.474609375 176.247070312 733.474609375 176.247070312 729.182617188 224.399414062 c 0,42,43
 724.70703125 272.196289062 724.70703125 272.196289062 725.075195312 330.15234375 c 0,44,45
 724.70703125 385.672851562 724.70703125 385.672851562 729.182617188 434.8359375 c 0,46,47
 733.474609375 484.387695312 733.474609375 484.387695312 740.481445312 520.291015625 c 0,48,49
 747.252929688 556.34765625 747.252929688 556.34765625 757.942382812 576.907226562 c 0,50,51
 768.546875 596.94140625 768.546875 596.94140625 778.483398438 597.200195312 c 0,20,21
568.837890625 655.2734375 m 256,52,53
 547.284179688 655.2734375 547.284179688 655.2734375 527.627929688 630.185546875 c 128,-1,54
 507.973632812 605.098632812 507.973632812 605.098632812 494.028320312 559.783203125 c 128,-1,55
 480.077148438 514.46484375 480.077148438 514.46484375 471.8359375 453.770507812 c 128,-1,56
 463.594726562 393.077148438 463.594726562 393.077148438 463.594726562 323.482421875 c 0,57,58
 463.594726562 252.26953125 463.594726562 252.26953125 471.8359375 191.57421875 c 128,-1,59
 480.077148438 130.883789062 480.077148438 130.883789062 494.028320312 86.375 c 128,-1,60
 507.973632812 41.8642578125 507.973632812 41.8642578125 527.627929688 15.96875 c 128,-1,61
 547.284179688 -9.9248046875 547.284179688 -9.9248046875 568.837890625 -9.9248046875 c 256,62,63
 590.396484375 -9.9248046875 590.396484375 -9.9248046875 609.415039062 15.96875 c 128,-1,64
 628.4375 41.8642578125 628.4375 41.8642578125 643.021484375 86.375 c 128,-1,65
 657.599609375 130.883789062 657.599609375 130.883789062 665.842773438 191.57421875 c 128,-1,66
 674.087890625 252.26953125 674.087890625 252.26953125 674.087890625 323.482421875 c 0,67,68
 674.087890625 393.077148438 674.087890625 393.077148438 665.842773438 453.770507812 c 128,-1,69
 657.599609375 514.46484375 657.599609375 514.46484375 643.021484375 559.783203125 c 128,-1,70
 628.4375 605.098632812 628.4375 605.098632812 609.415039062 630.185546875 c 128,-1,71
 590.396484375 655.2734375 590.396484375 655.2734375 568.837890625 655.2734375 c 256,52,53
357.157226562 655.2734375 m 256,72,73
 335.602539062 655.2734375 335.602539062 655.2734375 315.947265625 630.185546875 c 128,-1,74
 296.291992188 605.098632812 296.291992188 605.098632812 282.345703125 559.783203125 c 128,-1,75
 268.396484375 514.46484375 268.396484375 514.46484375 260.154296875 453.770507812 c 128,-1,76
 251.913085938 393.077148438 251.913085938 393.077148438 251.913085938 323.482421875 c 0,77,78
 251.913085938 252.26953125 251.913085938 252.26953125 260.154296875 191.57421875 c 128,-1,79
 268.396484375 130.883789062 268.396484375 130.883789062 282.345703125 86.375 c 128,-1,80
 296.291992188 41.8642578125 296.291992188 41.8642578125 315.947265625 15.96875 c 128,-1,81
 335.602539062 -9.9248046875 335.602539062 -9.9248046875 357.157226562 -9.9248046875 c 256,82,83
 378.71484375 -9.9248046875 378.71484375 -9.9248046875 397.734375 15.96875 c 128,-1,84
 416.756835938 41.8642578125 416.756835938 41.8642578125 431.33984375 86.375 c 128,-1,85
 445.916992188 130.883789062 445.916992188 130.883789062 454.162109375 191.57421875 c 128,-1,86
 462.405273438 252.26953125 462.405273438 252.26953125 462.405273438 323.482421875 c 0,87,88
 462.405273438 393.077148438 462.405273438 393.077148438 454.162109375 453.770507812 c 128,-1,89
 445.916992188 514.46484375 445.916992188 514.46484375 431.33984375 559.783203125 c 128,-1,90
 416.756835938 605.098632812 416.756835938 605.098632812 397.734375 630.185546875 c 128,-1,91
 378.71484375 655.2734375 378.71484375 655.2734375 357.157226562 655.2734375 c 256,72,73
355.120117188 597.200195312 m 0,92,93
 366.4765625 596.94140625 366.4765625 596.94140625 376.177734375 576.907226562 c 0,94,95
 386.518554688 556.34765625 386.518554688 556.34765625 393.125976562 520.291015625 c 0,96,97
 400.296875 484.387695312 400.296875 484.387695312 404.422851562 434.8359375 c 0,98,99
 409.065429688 385.672851562 409.065429688 385.672851562 408.530273438 330.15234375 c 0,100,101
 409.065429688 272.196289062 409.065429688 272.196289062 404.422851562 224.399414062 c 0,102,103
 400.296875 176.247070312 400.296875 176.247070312 393.125976562 140.010742188 c 0,104,105
 386.518554688 103.366210938 386.518554688 103.366210938 376.177734375 83.3974609375 c 0,106,107
 366.4765625 62.7705078125 366.4765625 62.7705078125 355.120117188 63.1005859375 c 0,108,109
 345.184570312 62.7705078125 345.184570312 62.7705078125 334.580078125 83.3974609375 c 0,110,111
 323.889648438 103.366210938 323.889648438 103.366210938 317.119140625 140.010742188 c 0,112,113
 310.112304688 176.247070312 310.112304688 176.247070312 305.819335938 224.399414062 c 0,114,115
 301.345703125 272.196289062 301.345703125 272.196289062 301.712890625 330.15234375 c 0,116,117
 301.345703125 385.672851562 301.345703125 385.672851562 305.819335938 434.8359375 c 0,118,119
 310.112304688 484.387695312 310.112304688 484.387695312 317.119140625 520.291015625 c 0,120,121
 323.889648438 556.34765625 323.889648438 556.34765625 334.580078125 576.907226562 c 0,122,123
 345.184570312 596.94140625 345.184570312 596.94140625 355.120117188 597.200195312 c 0,92,93
145.475585938 655.2734375 m 256,124,125
 123.921875 655.2734375 123.921875 655.2734375 104.265625 630.185546875 c 128,-1,126
 84.611328125 605.098632812 84.611328125 605.098632812 70.6650390625 559.783203125 c 128,-1,127
 56.71484375 514.46484375 56.71484375 514.46484375 48.4736328125 453.770507812 c 128,-1,128
 40.2314453125 393.077148438 40.2314453125 393.077148438 40.2314453125 323.482421875 c 0,129,130
 40.2314453125 252.26953125 40.2314453125 252.26953125 48.4736328125 191.57421875 c 128,-1,131
 56.71484375 130.883789062 56.71484375 130.883789062 70.6650390625 86.375 c 128,-1,132
 84.611328125 41.8642578125 84.611328125 41.8642578125 104.265625 15.96875 c 128,-1,133
 123.921875 -9.9248046875 123.921875 -9.9248046875 145.475585938 -9.9248046875 c 256,134,135
 167.034179688 -9.9248046875 167.034179688 -9.9248046875 186.051757812 15.96875 c 128,-1,136
 205.075195312 41.8642578125 205.075195312 41.8642578125 219.658203125 86.375 c 128,-1,137
 234.236328125 130.883789062 234.236328125 130.883789062 242.48046875 191.57421875 c 128,-1,138
 250.724609375 252.26953125 250.724609375 252.26953125 250.724609375 323.482421875 c 0,139,140
 250.724609375 393.077148438 250.724609375 393.077148438 242.48046875 453.770507812 c 128,-1,141
 234.236328125 514.46484375 234.236328125 514.46484375 219.658203125 559.783203125 c 128,-1,142
 205.075195312 605.098632812 205.075195312 605.098632812 186.051757812 630.185546875 c 128,-1,143
 167.034179688 655.2734375 167.034179688 655.2734375 145.475585938 655.2734375 c 256,124,125
143.439453125 597.200195312 m 0,144,145
 154.795898438 596.94140625 154.795898438 596.94140625 164.49609375 576.907226562 c 0,146,147
 174.836914062 556.34765625 174.836914062 556.34765625 181.4453125 520.291015625 c 0,148,149
 188.614257812 484.387695312 188.614257812 484.387695312 192.741210938 434.8359375 c 0,150,151
 197.3828125 385.672851562 197.3828125 385.672851562 196.849609375 330.15234375 c 0,152,153
 197.3828125 272.196289062 197.3828125 272.196289062 192.741210938 224.399414062 c 0,154,155
 188.614257812 176.247070312 188.614257812 176.247070312 181.4453125 140.010742188 c 0,156,157
 174.836914062 103.366210938 174.836914062 103.366210938 164.49609375 83.3974609375 c 0,158,159
 154.795898438 62.7705078125 154.795898438 62.7705078125 143.439453125 63.1005859375 c 0,160,161
 133.50390625 62.7705078125 133.50390625 62.7705078125 122.8984375 83.3974609375 c 0,162,163
 112.208984375 103.366210938 112.208984375 103.366210938 105.438476562 140.010742188 c 0,164,165
 98.431640625 176.247070312 98.431640625 176.247070312 94.1376953125 224.399414062 c 0,166,167
 89.6640625 272.196289062 89.6640625 272.196289062 90.0302734375 330.15234375 c 0,168,169
 89.6640625 385.672851562 89.6640625 385.672851562 94.1376953125 434.8359375 c 0,170,171
 98.431640625 484.387695312 98.431640625 484.387695312 105.438476562 520.291015625 c 0,172,173
 112.208984375 556.34765625 112.208984375 556.34765625 122.8984375 576.907226562 c 0,174,175
 133.50390625 596.94140625 133.50390625 596.94140625 143.439453125 597.200195312 c 0,144,145
EndSplineSet
EndChar

StartChar: three.deva
Encoding: 51 51 19
Width: 926
Flags: W
LayerCount: 2
Fore
SplineSet
780.51953125 655.2734375 m 256,0,1
 758.96484375 655.2734375 758.96484375 655.2734375 739.30859375 630.185546875 c 128,-1,2
 719.655273438 605.098632812 719.655273438 605.098632812 705.708984375 559.783203125 c 128,-1,3
 691.759765625 514.46484375 691.759765625 514.46484375 683.516601562 453.770507812 c 128,-1,4
 675.275390625 393.077148438 675.275390625 393.077148438 675.275390625 323.482421875 c 0,5,6
 675.275390625 252.26953125 675.275390625 252.26953125 683.516601562 191.57421875 c 128,-1,7
 691.759765625 130.883789062 691.759765625 130.883789062 705.708984375 86.375 c 128,-1,8
 719.655273438 41.8642578125 719.655273438 41.8642578125 739.30859375 15.96875 c 128,-1,9
 758.96484375 -9.9248046875 758.96484375 -9.9248046875 780.51953125 -9.9248046875 c 256,10,11
 802.077148438 -9.9248046875 802.077148438 -9.9248046875 821.09765625 15.96875 c 128,-1,12
 840.120117188 41.8642578125 840.120117188 41.8642578125 854.703125 86.375 c 128,-1,13
 869.28125 130.883789062 869.28125 130.883789062 877.524414062 191.57421875 c 128,-1,14
 885.768554688 252.26953125 885.768554688 252.26953125 885.768554688 323.482421875 c 0,15,16
 885.768554688 393.077148438 885.768554688 393.077148438 877.524414062 453.770507812 c 128,-1,17
 869.28125 514.46484375 869.28125 514.46484375 854.703125 559.783203125 c 128,-1,18
 840.120117188 605.098632812 840.120117188 605.098632812 821.09765625 630.185546875 c 128,-1,19
 802.077148438 655.2734375 802.077148438 655.2734375 780.51953125 655.2734375 c 256,0,1
568.837890625 655.2734375 m 256,20,21
 547.284179688 655.2734375 547.284179688 655.2734375 527.627929688 630.185546875 c 128,-1,22
 507.973632812 605.098632812 507.973632812 605.098632812 494.028320312 559.783203125 c 128,-1,23
 480.077148438 514.46484375 480.077148438 514.46484375 471.8359375 453.770507812 c 128,-1,24
 463.594726562 393.077148438 463.594726562 393.077148438 463.594726562 323.482421875 c 0,25,26
 463.594726562 252.26953125 463.594726562 252.26953125 471.8359375 191.57421875 c 128,-1,27
 480.077148438 130.883789062 480.077148438 130.883789062 494.028320312 86.375 c 128,-1,28
 507.973632812 41.8642578125 507.973632812 41.8642578125 527.627929688 15.96875 c 128,-1,29
 547.284179688 -9.9248046875 547.284179688 -9.9248046875 568.837890625 -9.9248046875 c 256,30,31
 590.396484375 -9.9248046875 590.396484375 -9.9248046875 609.415039062 15.96875 c 128,-1,32
 628.4375 41.8642578125 628.4375 41.8642578125 643.021484375 86.375 c 128,-1,33
 657.599609375 130.883789062 657.599609375 130.883789062 665.842773438 191.57421875 c 128,-1,34
 674.087890625 252.26953125 674.087890625 252.26953125 674.087890625 323.482421875 c 0,35,36
 674.087890625 393.077148438 674.087890625 393.077148438 665.842773438 453.770507812 c 128,-1,37
 657.599609375 514.46484375 657.599609375 514.46484375 643.021484375 559.783203125 c 128,-1,38
 628.4375 605.098632812 628.4375 605.098632812 609.415039062 630.185546875 c 128,-1,39
 590.396484375 655.2734375 590.396484375 655.2734375 568.837890625 655.2734375 c 256,20,21
357.157226562 655.2734375 m 256,40,41
 335.602539062 655.2734375 335.602539062 655.2734375 315.947265625 630.185546875 c 128,-1,42
 296.291992188 605.098632812 296.291992188 605.098632812 282.345703125 559.783203125 c 128,-1,43
 268.396484375 514.46484375 268.396484375 514.46484375 260.154296875 453.770507812 c 128,-1,44
 251.913085938 393.077148438 251.913085938 393.077148438 251.913085938 323.482421875 c 0,45,46
 251.913085938 252.26953125 251.913085938 252.26953125 260.154296875 191.57421875 c 128,-1,47
 268.396484375 130.883789062 268.396484375 130.883789062 282.345703125 86.375 c 128,-1,48
 296.291992188 41.8642578125 296.291992188 41.8642578125 315.947265625 15.96875 c 128,-1,49
 335.602539062 -9.9248046875 335.602539062 -9.9248046875 357.157226562 -9.9248046875 c 256,50,51
 378.71484375 -9.9248046875 378.71484375 -9.9248046875 397.734375 15.96875 c 128,-1,52
 416.756835938 41.8642578125 416.756835938 41.8642578125 431.33984375 86.375 c 128,-1,53
 445.916992188 130.883789062 445.916992188 130.883789062 454.162109375 191.57421875 c 128,-1,54
 462.405273438 252.26953125 462.405273438 252.26953125 462.405273438 323.482421875 c 0,55,56
 462.405273438 393.077148438 462.405273438 393.077148438 454.162109375 453.770507812 c 128,-1,57
 445.916992188 514.46484375 445.916992188 514.46484375 431.33984375 559.783203125 c 128,-1,58
 416.756835938 605.098632812 416.756835938 605.098632812 397.734375 630.185546875 c 128,-1,59
 378.71484375 655.2734375 378.71484375 655.2734375 357.157226562 655.2734375 c 256,40,41
355.120117188 597.200195312 m 0,60,61
 366.4765625 596.94140625 366.4765625 596.94140625 376.177734375 576.907226562 c 0,62,63
 386.518554688 556.34765625 386.518554688 556.34765625 393.125976562 520.291015625 c 0,64,65
 400.296875 484.387695312 400.296875 484.387695312 404.422851562 434.8359375 c 0,66,67
 409.065429688 385.672851562 409.065429688 385.672851562 408.530273438 330.15234375 c 0,68,69
 409.065429688 272.196289062 409.065429688 272.196289062 404.422851562 224.399414062 c 0,70,71
 400.296875 176.247070312 400.296875 176.247070312 393.125976562 140.010742188 c 0,72,73
 386.518554688 103.366210938 386.518554688 103.366210938 376.177734375 83.3974609375 c 0,74,75
 366.4765625 62.7705078125 366.4765625 62.7705078125 355.120117188 63.1005859375 c 0,76,77
 345.184570312 62.7705078125 345.184570312 62.7705078125 334.580078125 83.3974609375 c 0,78,79
 323.889648438 103.366210938 323.889648438 103.366210938 317.119140625 140.010742188 c 0,80,81
 310.112304688 176.247070312 310.112304688 176.247070312 305.819335938 224.399414062 c 0,82,83
 301.345703125 272.196289062 301.345703125 272.196289062 301.712890625 330.15234375 c 0,84,85
 301.345703125 385.672851562 301.345703125 385.672851562 305.819335938 434.8359375 c 0,86,87
 310.112304688 484.387695312 310.112304688 484.387695312 317.119140625 520.291015625 c 0,88,89
 323.889648438 556.34765625 323.889648438 556.34765625 334.580078125 576.907226562 c 0,90,91
 345.184570312 596.94140625 345.184570312 596.94140625 355.120117188 597.200195312 c 0,60,61
145.475585938 655.2734375 m 256,92,93
 123.921875 655.2734375 123.921875 655.2734375 104.265625 630.185546875 c 128,-1,94
 84.611328125 605.098632812 84.611328125 605.098632812 70.6650390625 559.783203125 c 128,-1,95
 56.71484375 514.46484375 56.71484375 514.46484375 48.4736328125 453.770507812 c 128,-1,96
 40.2314453125 393.077148438 40.2314453125 393.077148438 40.2314453125 323.482421875 c 0,97,98
 40.2314453125 252.26953125 40.2314453125 252.26953125 48.4736328125 191.57421875 c 128,-1,99
 56.71484375 130.883789062 56.71484375 130.883789062 70.6650390625 86.375 c 128,-1,100
 84.611328125 41.8642578125 84.611328125 41.8642578125 104.265625 15.96875 c 128,-1,101
 123.921875 -9.9248046875 123.921875 -9.9248046875 145.475585938 -9.9248046875 c 256,102,103
 167.034179688 -9.9248046875 167.034179688 -9.9248046875 186.051757812 15.96875 c 128,-1,104
 205.075195312 41.8642578125 205.075195312 41.8642578125 219.658203125 86.375 c 128,-1,105
 234.236328125 130.883789062 234.236328125 130.883789062 242.48046875 191.57421875 c 128,-1,106
 250.724609375 252.26953125 250.724609375 252.26953125 250.724609375 323.482421875 c 0,107,108
 250.724609375 393.077148438 250.724609375 393.077148438 242.48046875 453.770507812 c 128,-1,109
 234.236328125 514.46484375 234.236328125 514.46484375 219.658203125 559.783203125 c 128,-1,110
 205.075195312 605.098632812 205.075195312 605.098632812 186.051757812 630.185546875 c 128,-1,111
 167.034179688 655.2734375 167.034179688 655.2734375 145.475585938 655.2734375 c 256,92,93
143.439453125 597.200195312 m 0,112,113
 154.795898438 596.94140625 154.795898438 596.94140625 164.49609375 576.907226562 c 0,114,115
 174.836914062 556.34765625 174.836914062 556.34765625 181.4453125 520.291015625 c 0,116,117
 188.614257812 484.387695312 188.614257812 484.387695312 192.741210938 434.8359375 c 0,118,119
 197.3828125 385.672851562 197.3828125 385.672851562 196.849609375 330.15234375 c 0,120,121
 197.3828125 272.196289062 197.3828125 272.196289062 192.741210938 224.399414062 c 0,122,123
 188.614257812 176.247070312 188.614257812 176.247070312 181.4453125 140.010742188 c 0,124,125
 174.836914062 103.366210938 174.836914062 103.366210938 164.49609375 83.3974609375 c 0,126,127
 154.795898438 62.7705078125 154.795898438 62.7705078125 143.439453125 63.1005859375 c 0,128,129
 133.50390625 62.7705078125 133.50390625 62.7705078125 122.8984375 83.3974609375 c 0,130,131
 112.208984375 103.366210938 112.208984375 103.366210938 105.438476562 140.010742188 c 0,132,133
 98.431640625 176.247070312 98.431640625 176.247070312 94.1376953125 224.399414062 c 0,134,135
 89.6640625 272.196289062 89.6640625 272.196289062 90.0302734375 330.15234375 c 0,136,137
 89.6640625 385.672851562 89.6640625 385.672851562 94.1376953125 434.8359375 c 0,138,139
 98.431640625 484.387695312 98.431640625 484.387695312 105.438476562 520.291015625 c 0,140,141
 112.208984375 556.34765625 112.208984375 556.34765625 122.8984375 576.907226562 c 0,142,143
 133.50390625 596.94140625 133.50390625 596.94140625 143.439453125 597.200195312 c 0,112,113
EndSplineSet
EndChar

StartChar: four.deva
Encoding: 52 52 20
Width: 926
Flags: W
LayerCount: 2
Fore
SplineSet
780.51953125 655.2734375 m 256,0,1
 758.96484375 655.2734375 758.96484375 655.2734375 739.30859375 630.185546875 c 128,-1,2
 719.655273438 605.098632812 719.655273438 605.098632812 705.708984375 559.783203125 c 128,-1,3
 691.759765625 514.46484375 691.759765625 514.46484375 683.516601562 453.770507812 c 128,-1,4
 675.275390625 393.077148438 675.275390625 393.077148438 675.275390625 323.482421875 c 0,5,6
 675.275390625 252.26953125 675.275390625 252.26953125 683.516601562 191.57421875 c 128,-1,7
 691.759765625 130.883789062 691.759765625 130.883789062 705.708984375 86.375 c 128,-1,8
 719.655273438 41.8642578125 719.655273438 41.8642578125 739.30859375 15.96875 c 128,-1,9
 758.96484375 -9.9248046875 758.96484375 -9.9248046875 780.51953125 -9.9248046875 c 256,10,11
 802.077148438 -9.9248046875 802.077148438 -9.9248046875 821.09765625 15.96875 c 128,-1,12
 840.120117188 41.8642578125 840.120117188 41.8642578125 854.703125 86.375 c 128,-1,13
 869.28125 130.883789062 869.28125 130.883789062 877.524414062 191.57421875 c 128,-1,14
 885.768554688 252.26953125 885.768554688 252.26953125 885.768554688 323.482421875 c 0,15,16
 885.768554688 393.077148438 885.768554688 393.077148438 877.524414062 453.770507812 c 128,-1,17
 869.28125 514.46484375 869.28125 514.46484375 854.703125 559.783203125 c 128,-1,18
 840.120117188 605.098632812 840.120117188 605.098632812 821.09765625 630.185546875 c 128,-1,19
 802.077148438 655.2734375 802.077148438 655.2734375 780.51953125 655.2734375 c 256,0,1
778.483398438 597.200195312 m 0,20,21
 789.838867188 596.94140625 789.838867188 596.94140625 799.541992188 576.907226562 c 0,22,23
 809.880859375 556.34765625 809.880859375 556.34765625 816.48828125 520.291015625 c 0,24,25
 823.66015625 484.387695312 823.66015625 484.387695312 827.786132812 434.8359375 c 0,26,27
 832.427734375 385.672851562 832.427734375 385.672851562 831.893554688 330.15234375 c 0,28,29
 832.427734375 272.196289062 832.427734375 272.196289062 827.786132812 224.399414062 c 0,30,31
 823.66015625 176.247070312 823.66015625 176.247070312 816.48828125 140.010742188 c 0,32,33
 809.880859375 103.366210938 809.880859375 103.366210938 799.541992188 83.3974609375 c 0,34,35
 789.838867188 62.7705078125 789.838867188 62.7705078125 778.483398438 63.1005859375 c 0,36,37
 768.546875 62.7705078125 768.546875 62.7705078125 757.942382812 83.3974609375 c 0,38,39
 747.252929688 103.366210938 747.252929688 103.366210938 740.481445312 140.010742188 c 0,40,41
 733.474609375 176.247070312 733.474609375 176.247070312 729.182617188 224.399414062 c 0,42,43
 724.70703125 272.196289062 724.70703125 272.196289062 725.075195312 330.15234375 c 0,44,45
 724.70703125 385.672851562 724.70703125 385.672851562 729.182617188 434.8359375 c 0,46,47
 733.474609375 484.387695312 733.474609375 484.387695312 740.481445312 520.291015625 c 0,48,49
 747.252929688 556.34765625 747.252929688 556.34765625 757.942382812 576.907226562 c 0,50,51
 768.546875 596.94140625 768.546875 596.94140625 778.483398438 597.200195312 c 0,20,21
568.837890625 655.2734375 m 256,52,53
 547.284179688 655.2734375 547.284179688 655.2734375 527.627929688 630.185546875 c 128,-1,54
 507.973632812 605.098632812 507.973632812 605.098632812 494.028320312 559.783203125 c 128,-1,55
 480.077148438 514.46484375 480.077148438 514.46484375 471.8359375 453.770507812 c 128,-1,56
 463.594726562 393.077148438 463.594726562 393.077148438 463.594726562 323.482421875 c 0,57,58
 463.594726562 252.26953125 463.594726562 252.26953125 471.8359375 191.57421875 c 128,-1,59
 480.077148438 130.883789062 480.077148438 130.883789062 494.028320312 86.375 c 128,-1,60
 507.973632812 41.8642578125 507.973632812 41.8642578125 527.627929688 15.96875 c 128,-1,61
 547.284179688 -9.9248046875 547.284179688 -9.9248046875 568.837890625 -9.9248046875 c 256,62,63
 590.396484375 -9.9248046875 590.396484375 -9.9248046875 609.415039062 15.96875 c 128,-1,64
 628.4375 41.8642578125 628.4375 41.8642578125 643.021484375 86.375 c 128,-1,65
 657.599609375 130.883789062 657.599609375 130.883789062 665.842773438 191.57421875 c 128,-1,66
 674.087890625 252.26953125 674.087890625 252.26953125 674.087890625 323.482421875 c 0,67,68
 674.087890625 393.077148438 674.087890625 393.077148438 665.842773438 453.770507812 c 128,-1,69
 657.599609375 514.46484375 657.599609375 514.46484375 643.021484375 559.783203125 c 128,-1,70
 628.4375 605.098632812 628.4375 605.098632812 609.415039062 630.185546875 c 128,-1,71
 590.396484375 655.2734375 590.396484375 655.2734375 568.837890625 655.2734375 c 256,52,53
566.802734375 597.200195312 m 0,72,73
 578.158203125 596.94140625 578.158203125 596.94140625 587.860351562 576.907226562 c 0,74,75
 598.200195312 556.34765625 598.200195312 556.34765625 604.807617188 520.291015625 c 0,76,77
 611.977539062 484.387695312 611.977539062 484.387695312 616.103515625 434.8359375 c 0,78,79
 620.74609375 385.672851562 620.74609375 385.672851562 620.211914062 330.15234375 c 0,80,81
 620.74609375 272.196289062 620.74609375 272.196289062 616.103515625 224.399414062 c 0,82,83
 611.977539062 176.247070312 611.977539062 176.247070312 604.807617188 140.010742188 c 0,84,85
 598.200195312 103.366210938 598.200195312 103.366210938 587.860351562 83.3974609375 c 0,86,87
 578.158203125 62.7705078125 578.158203125 62.7705078125 566.802734375 63.1005859375 c 0,88,89
 556.866210938 62.7705078125 556.866210938 62.7705078125 546.260742188 83.3974609375 c 0,90,91
 535.5703125 103.366210938 535.5703125 103.366210938 528.80078125 140.010742188 c 0,92,93
 521.793945312 176.247070312 521.793945312 176.247070312 517.501953125 224.399414062 c 0,94,95
 513.026367188 272.196289062 513.026367188 272.196289062 513.393554688 330.15234375 c 0,96,97
 513.026367188 385.672851562 513.026367188 385.672851562 517.501953125 434.8359375 c 0,98,99
 521.793945312 484.387695312 521.793945312 484.387695312 528.80078125 520.291015625 c 0,100,101
 535.5703125 556.34765625 535.5703125 556.34765625 546.260742188 576.907226562 c 0,102,103
 556.866210938 596.94140625 556.866210938 596.94140625 566.802734375 597.200195312 c 0,72,73
357.157226562 655.2734375 m 256,104,105
 335.602539062 655.2734375 335.602539062 655.2734375 315.947265625 630.185546875 c 128,-1,106
 296.291992188 605.098632812 296.291992188 605.098632812 282.345703125 559.783203125 c 128,-1,107
 268.396484375 514.46484375 268.396484375 514.46484375 260.154296875 453.770507812 c 128,-1,108
 251.913085938 393.077148438 251.913085938 393.077148438 251.913085938 323.482421875 c 0,109,110
 251.913085938 252.26953125 251.913085938 252.26953125 260.154296875 191.57421875 c 128,-1,111
 268.396484375 130.883789062 268.396484375 130.883789062 282.345703125 86.375 c 128,-1,112
 296.291992188 41.8642578125 296.291992188 41.8642578125 315.947265625 15.96875 c 128,-1,113
 335.602539062 -9.9248046875 335.602539062 -9.9248046875 357.157226562 -9.9248046875 c 256,114,115
 378.71484375 -9.9248046875 378.71484375 -9.9248046875 397.734375 15.96875 c 128,-1,116
 416.756835938 41.8642578125 416.756835938 41.8642578125 431.33984375 86.375 c 128,-1,117
 445.916992188 130.883789062 445.916992188 130.883789062 454.162109375 191.57421875 c 128,-1,118
 462.405273438 252.26953125 462.405273438 252.26953125 462.405273438 323.482421875 c 0,119,120
 462.405273438 393.077148438 462.405273438 393.077148438 454.162109375 453.770507812 c 128,-1,121
 445.916992188 514.46484375 445.916992188 514.46484375 431.33984375 559.783203125 c 128,-1,122
 416.756835938 605.098632812 416.756835938 605.098632812 397.734375 630.185546875 c 128,-1,123
 378.71484375 655.2734375 378.71484375 655.2734375 357.157226562 655.2734375 c 256,104,105
145.475585938 655.2734375 m 256,124,125
 123.921875 655.2734375 123.921875 655.2734375 104.265625 630.185546875 c 128,-1,126
 84.611328125 605.098632812 84.611328125 605.098632812 70.6650390625 559.783203125 c 128,-1,127
 56.71484375 514.46484375 56.71484375 514.46484375 48.4736328125 453.770507812 c 128,-1,128
 40.2314453125 393.077148438 40.2314453125 393.077148438 40.2314453125 323.482421875 c 0,129,130
 40.2314453125 252.26953125 40.2314453125 252.26953125 48.4736328125 191.57421875 c 128,-1,131
 56.71484375 130.883789062 56.71484375 130.883789062 70.6650390625 86.375 c 128,-1,132
 84.611328125 41.8642578125 84.611328125 41.8642578125 104.265625 15.96875 c 128,-1,133
 123.921875 -9.9248046875 123.921875 -9.9248046875 145.475585938 -9.9248046875 c 256,134,135
 167.034179688 -9.9248046875 167.034179688 -9.9248046875 186.051757812 15.96875 c 128,-1,136
 205.075195312 41.8642578125 205.075195312 41.8642578125 219.658203125 86.375 c 128,-1,137
 234.236328125 130.883789062 234.236328125 130.883789062 242.48046875 191.57421875 c 128,-1,138
 250.724609375 252.26953125 250.724609375 252.26953125 250.724609375 323.482421875 c 0,139,140
 250.724609375 393.077148438 250.724609375 393.077148438 242.48046875 453.770507812 c 128,-1,141
 234.236328125 514.46484375 234.236328125 514.46484375 219.658203125 559.783203125 c 128,-1,142
 205.075195312 605.098632812 205.075195312 605.098632812 186.051757812 630.185546875 c 128,-1,143
 167.034179688 655.2734375 167.034179688 655.2734375 145.475585938 655.2734375 c 256,124,125
143.439453125 597.200195312 m 0,144,145
 154.795898438 596.94140625 154.795898438 596.94140625 164.49609375 576.907226562 c 0,146,147
 174.836914062 556.34765625 174.836914062 556.34765625 181.4453125 520.291015625 c 0,148,149
 188.614257812 484.387695312 188.614257812 484.387695312 192.741210938 434.8359375 c 0,150,151
 197.3828125 385.672851562 197.3828125 385.672851562 196.849609375 330.15234375 c 0,152,153
 197.3828125 272.196289062 197.3828125 272.196289062 192.741210938 224.399414062 c 0,154,155
 188.614257812 176.247070312 188.614257812 176.247070312 181.4453125 140.010742188 c 0,156,157
 174.836914062 103.366210938 174.836914062 103.366210938 164.49609375 83.3974609375 c 0,158,159
 154.795898438 62.7705078125 154.795898438 62.7705078125 143.439453125 63.1005859375 c 0,160,161
 133.50390625 62.7705078125 133.50390625 62.7705078125 122.8984375 83.3974609375 c 0,162,163
 112.208984375 103.366210938 112.208984375 103.366210938 105.438476562 140.010742188 c 0,164,165
 98.431640625 176.247070312 98.431640625 176.247070312 94.1376953125 224.399414062 c 0,166,167
 89.6640625 272.196289062 89.6640625 272.196289062 90.0302734375 330.15234375 c 0,168,169
 89.6640625 385.672851562 89.6640625 385.672851562 94.1376953125 434.8359375 c 0,170,171
 98.431640625 484.387695312 98.431640625 484.387695312 105.438476562 520.291015625 c 0,172,173
 112.208984375 556.34765625 112.208984375 556.34765625 122.8984375 576.907226562 c 0,174,175
 133.50390625 596.94140625 133.50390625 596.94140625 143.439453125 597.200195312 c 0,144,145
EndSplineSet
EndChar

StartChar: five.deva
Encoding: 53 53 21
Width: 926
Flags: W
LayerCount: 2
Fore
SplineSet
780.51953125 655.2734375 m 256,0,1
 758.96484375 655.2734375 758.96484375 655.2734375 739.30859375 630.185546875 c 128,-1,2
 719.655273438 605.098632812 719.655273438 605.098632812 705.708984375 559.783203125 c 128,-1,3
 691.759765625 514.46484375 691.759765625 514.46484375 683.516601562 453.770507812 c 128,-1,4
 675.275390625 393.077148438 675.275390625 393.077148438 675.275390625 323.482421875 c 0,5,6
 675.275390625 252.26953125 675.275390625 252.26953125 683.516601562 191.57421875 c 128,-1,7
 691.759765625 130.883789062 691.759765625 130.883789062 705.708984375 86.375 c 128,-1,8
 719.655273438 41.8642578125 719.655273438 41.8642578125 739.30859375 15.96875 c 128,-1,9
 758.96484375 -9.9248046875 758.96484375 -9.9248046875 780.51953125 -9.9248046875 c 256,10,11
 802.077148438 -9.9248046875 802.077148438 -9.9248046875 821.09765625 15.96875 c 128,-1,12
 840.120117188 41.8642578125 840.120117188 41.8642578125 854.703125 86.375 c 128,-1,13
 869.28125 130.883789062 869.28125 130.883789062 877.524414062 191.57421875 c 128,-1,14
 885.768554688 252.26953125 885.768554688 252.26953125 885.768554688 323.482421875 c 0,15,16
 885.768554688 393.077148438 885.768554688 393.077148438 877.524414062 453.770507812 c 128,-1,17
 869.28125 514.46484375 869.28125 514.46484375 854.703125 559.783203125 c 128,-1,18
 840.120117188 605.098632812 840.120117188 605.098632812 821.09765625 630.185546875 c 128,-1,19
 802.077148438 655.2734375 802.077148438 655.2734375 780.51953125 655.2734375 c 256,0,1
568.837890625 655.2734375 m 256,20,21
 547.284179688 655.2734375 547.284179688 655.2734375 527.627929688 630.185546875 c 128,-1,22
 507.973632812 605.098632812 507.973632812 605.098632812 494.028320312 559.783203125 c 128,-1,23
 480.077148438 514.46484375 480.077148438 514.46484375 471.8359375 453.770507812 c 128,-1,24
 463.594726562 393.077148438 463.594726562 393.077148438 463.594726562 323.482421875 c 0,25,26
 463.594726562 252.26953125 463.594726562 252.26953125 471.8359375 191.57421875 c 128,-1,27
 480.077148438 130.883789062 480.077148438 130.883789062 494.028320312 86.375 c 128,-1,28
 507.973632812 41.8642578125 507.973632812 41.8642578125 527.627929688 15.96875 c 128,-1,29
 547.284179688 -9.9248046875 547.284179688 -9.9248046875 568.837890625 -9.9248046875 c 256,30,31
 590.396484375 -9.9248046875 590.396484375 -9.9248046875 609.415039062 15.96875 c 128,-1,32
 628.4375 41.8642578125 628.4375 41.8642578125 643.021484375 86.375 c 128,-1,33
 657.599609375 130.883789062 657.599609375 130.883789062 665.842773438 191.57421875 c 128,-1,34
 674.087890625 252.26953125 674.087890625 252.26953125 674.087890625 323.482421875 c 0,35,36
 674.087890625 393.077148438 674.087890625 393.077148438 665.842773438 453.770507812 c 128,-1,37
 657.599609375 514.46484375 657.599609375 514.46484375 643.021484375 559.783203125 c 128,-1,38
 628.4375 605.098632812 628.4375 605.098632812 609.415039062 630.185546875 c 128,-1,39
 590.396484375 655.2734375 590.396484375 655.2734375 568.837890625 655.2734375 c 256,20,21
566.802734375 597.200195312 m 0,40,41
 578.158203125 596.94140625 578.158203125 596.94140625 587.860351562 576.907226562 c 0,42,43
 598.200195312 556.34765625 598.200195312 556.34765625 604.807617188 520.291015625 c 0,44,45
 611.977539062 484.387695312 611.977539062 484.387695312 616.103515625 434.8359375 c 0,46,47
 620.74609375 385.672851562 620.74609375 385.672851562 620.211914062 330.15234375 c 0,48,49
 620.74609375 272.196289062 620.74609375 272.196289062 616.103515625 224.399414062 c 0,50,51
 611.977539062 176.247070312 611.977539062 176.247070312 604.807617188 140.010742188 c 0,52,53
 598.200195312 103.366210938 598.200195312 103.366210938 587.860351562 83.3974609375 c 0,54,55
 578.158203125 62.7705078125 578.158203125 62.7705078125 566.802734375 63.1005859375 c 0,56,57
 556.866210938 62.7705078125 556.866210938 62.7705078125 546.260742188 83.3974609375 c 0,58,59
 535.5703125 103.366210938 535.5703125 103.366210938 528.80078125 140.010742188 c 0,60,61
 521.793945312 176.247070312 521.793945312 176.247070312 517.501953125 224.399414062 c 0,62,63
 513.026367188 272.196289062 513.026367188 272.196289062 513.393554688 330.15234375 c 0,64,65
 513.026367188 385.672851562 513.026367188 385.672851562 517.501953125 434.8359375 c 0,66,67
 521.793945312 484.387695312 521.793945312 484.387695312 528.80078125 520.291015625 c 0,68,69
 535.5703125 556.34765625 535.5703125 556.34765625 546.260742188 576.907226562 c 0,70,71
 556.866210938 596.94140625 556.866210938 596.94140625 566.802734375 597.200195312 c 0,40,41
357.157226562 655.2734375 m 256,72,73
 335.602539062 655.2734375 335.602539062 655.2734375 315.947265625 630.185546875 c 128,-1,74
 296.291992188 605.098632812 296.291992188 605.098632812 282.345703125 559.783203125 c 128,-1,75
 268.396484375 514.46484375 268.396484375 514.46484375 260.154296875 453.770507812 c 128,-1,76
 251.913085938 393.077148438 251.913085938 393.077148438 251.913085938 323.482421875 c 0,77,78
 251.913085938 252.26953125 251.913085938 252.26953125 260.154296875 191.57421875 c 128,-1,79
 268.396484375 130.883789062 268.396484375 130.883789062 282.345703125 86.375 c 128,-1,80
 296.291992188 41.8642578125 296.291992188 41.8642578125 315.947265625 15.96875 c 128,-1,81
 335.602539062 -9.9248046875 335.602539062 -9.9248046875 357.157226562 -9.9248046875 c 256,82,83
 378.71484375 -9.9248046875 378.71484375 -9.9248046875 397.734375 15.96875 c 128,-1,84
 416.756835938 41.8642578125 416.756835938 41.8642578125 431.33984375 86.375 c 128,-1,85
 445.916992188 130.883789062 445.916992188 130.883789062 454.162109375 191.57421875 c 128,-1,86
 462.405273438 252.26953125 462.405273438 252.26953125 462.405273438 323.482421875 c 0,87,88
 462.405273438 393.077148438 462.405273438 393.077148438 454.162109375 453.770507812 c 128,-1,89
 445.916992188 514.46484375 445.916992188 514.46484375 431.33984375 559.783203125 c 128,-1,90
 416.756835938 605.098632812 416.756835938 605.098632812 397.734375 630.185546875 c 128,-1,91
 378.71484375 655.2734375 378.71484375 655.2734375 357.157226562 655.2734375 c 256,72,73
145.475585938 655.2734375 m 256,92,93
 123.921875 655.2734375 123.921875 655.2734375 104.265625 630.185546875 c 128,-1,94
 84.611328125 605.098632812 84.611328125 605.098632812 70.6650390625 559.783203125 c 128,-1,95
 56.71484375 514.46484375 56.71484375 514.46484375 48.4736328125 453.770507812 c 128,-1,96
 40.2314453125 393.077148438 40.2314453125 393.077148438 40.2314453125 323.482421875 c 0,97,98
 40.2314453125 252.26953125 40.2314453125 252.26953125 48.4736328125 191.57421875 c 128,-1,99
 56.71484375 130.883789062 56.71484375 130.883789062 70.6650390625 86.375 c 128,-1,100
 84.611328125 41.8642578125 84.611328125 41.8642578125 104.265625 15.96875 c 128,-1,101
 123.921875 -9.9248046875 123.921875 -9.9248046875 145.475585938 -9.9248046875 c 256,102,103
 167.034179688 -9.9248046875 167.034179688 -9.9248046875 186.051757812 15.96875 c 128,-1,104
 205.075195312 41.8642578125 205.075195312 41.8642578125 219.658203125 86.375 c 128,-1,105
 234.236328125 130.883789062 234.236328125 130.883789062 242.48046875 191.57421875 c 128,-1,106
 250.724609375 252.26953125 250.724609375 252.26953125 250.724609375 323.482421875 c 0,107,108
 250.724609375 393.077148438 250.724609375 393.077148438 242.48046875 453.770507812 c 128,-1,109
 234.236328125 514.46484375 234.236328125 514.46484375 219.658203125 559.783203125 c 128,-1,110
 205.075195312 605.098632812 205.075195312 605.098632812 186.051757812 630.185546875 c 128,-1,111
 167.034179688 655.2734375 167.034179688 655.2734375 145.475585938 655.2734375 c 256,92,93
143.439453125 597.200195312 m 0,112,113
 154.795898438 596.94140625 154.795898438 596.94140625 164.49609375 576.907226562 c 0,114,115
 174.836914062 556.34765625 174.836914062 556.34765625 181.4453125 520.291015625 c 0,116,117
 188.614257812 484.387695312 188.614257812 484.387695312 192.741210938 434.8359375 c 0,118,119
 197.3828125 385.672851562 197.3828125 385.672851562 196.849609375 330.15234375 c 0,120,121
 197.3828125 272.196289062 197.3828125 272.196289062 192.741210938 224.399414062 c 0,122,123
 188.614257812 176.247070312 188.614257812 176.247070312 181.4453125 140.010742188 c 0,124,125
 174.836914062 103.366210938 174.836914062 103.366210938 164.49609375 83.3974609375 c 0,126,127
 154.795898438 62.7705078125 154.795898438 62.7705078125 143.439453125 63.1005859375 c 0,128,129
 133.50390625 62.7705078125 133.50390625 62.7705078125 122.8984375 83.3974609375 c 0,130,131
 112.208984375 103.366210938 112.208984375 103.366210938 105.438476562 140.010742188 c 0,132,133
 98.431640625 176.247070312 98.431640625 176.247070312 94.1376953125 224.399414062 c 0,134,135
 89.6640625 272.196289062 89.6640625 272.196289062 90.0302734375 330.15234375 c 0,136,137
 89.6640625 385.672851562 89.6640625 385.672851562 94.1376953125 434.8359375 c 0,138,139
 98.431640625 484.387695312 98.431640625 484.387695312 105.438476562 520.291015625 c 0,140,141
 112.208984375 556.34765625 112.208984375 556.34765625 122.8984375 576.907226562 c 0,142,143
 133.50390625 596.94140625 133.50390625 596.94140625 143.439453125 597.200195312 c 0,112,113
EndSplineSet
EndChar

StartChar: six.deva
Encoding: 54 54 22
Width: 926
Flags: W
LayerCount: 2
Fore
SplineSet
780.51953125 655.2734375 m 256,0,1
 758.96484375 655.2734375 758.96484375 655.2734375 739.30859375 630.185546875 c 128,-1,2
 719.655273438 605.098632812 719.655273438 605.098632812 705.708984375 559.783203125 c 128,-1,3
 691.759765625 514.46484375 691.759765625 514.46484375 683.516601562 453.770507812 c 128,-1,4
 675.275390625 393.077148438 675.275390625 393.077148438 675.275390625 323.482421875 c 0,5,6
 675.275390625 252.26953125 675.275390625 252.26953125 683.516601562 191.57421875 c 128,-1,7
 691.759765625 130.883789062 691.759765625 130.883789062 705.708984375 86.375 c 128,-1,8
 719.655273438 41.8642578125 719.655273438 41.8642578125 739.30859375 15.96875 c 128,-1,9
 758.96484375 -9.9248046875 758.96484375 -9.9248046875 780.51953125 -9.9248046875 c 256,10,11
 802.077148438 -9.9248046875 802.077148438 -9.9248046875 821.09765625 15.96875 c 128,-1,12
 840.120117188 41.8642578125 840.120117188 41.8642578125 854.703125 86.375 c 128,-1,13
 869.28125 130.883789062 869.28125 130.883789062 877.524414062 191.57421875 c 128,-1,14
 885.768554688 252.26953125 885.768554688 252.26953125 885.768554688 323.482421875 c 0,15,16
 885.768554688 393.077148438 885.768554688 393.077148438 877.524414062 453.770507812 c 128,-1,17
 869.28125 514.46484375 869.28125 514.46484375 854.703125 559.783203125 c 128,-1,18
 840.120117188 605.098632812 840.120117188 605.098632812 821.09765625 630.185546875 c 128,-1,19
 802.077148438 655.2734375 802.077148438 655.2734375 780.51953125 655.2734375 c 256,0,1
778.483398438 597.200195312 m 0,20,21
 789.838867188 596.94140625 789.838867188 596.94140625 799.541992188 576.907226562 c 0,22,23
 809.880859375 556.34765625 809.880859375 556.34765625 816.48828125 520.291015625 c 0,24,25
 823.66015625 484.387695312 823.66015625 484.387695312 827.786132812 434.8359375 c 0,26,27
 832.427734375 385.672851562 832.427734375 385.672851562 831.893554688 330.15234375 c 0,28,29
 832.427734375 272.196289062 832.427734375 272.196289062 827.786132812 224.399414062 c 0,30,31
 823.66015625 176.247070312 823.66015625 176.247070312 816.48828125 140.010742188 c 0,32,33
 809.880859375 103.366210938 809.880859375 103.366210938 799.541992188 83.3974609375 c 0,34,35
 789.838867188 62.7705078125 789.838867188 62.7705078125 778.483398438 63.1005859375 c 0,36,37
 768.546875 62.7705078125 768.546875 62.7705078125 757.942382812 83.3974609375 c 0,38,39
 747.252929688 103.366210938 747.252929688 103.366210938 740.481445312 140.010742188 c 0,40,41
 733.474609375 176.247070312 733.474609375 176.247070312 729.182617188 224.399414062 c 0,42,43
 724.70703125 272.196289062 724.70703125 272.196289062 725.075195312 330.15234375 c 0,44,45
 724.70703125 385.672851562 724.70703125 385.672851562 729.182617188 434.8359375 c 0,46,47
 733.474609375 484.387695312 733.474609375 484.387695312 740.481445312 520.291015625 c 0,48,49
 747.252929688 556.34765625 747.252929688 556.34765625 757.942382812 576.907226562 c 0,50,51
 768.546875 596.94140625 768.546875 596.94140625 778.483398438 597.200195312 c 0,20,21
568.837890625 655.2734375 m 256,52,53
 547.284179688 655.2734375 547.284179688 655.2734375 527.627929688 630.185546875 c 128,-1,54
 507.973632812 605.098632812 507.973632812 605.098632812 494.028320312 559.783203125 c 128,-1,55
 480.077148438 514.46484375 480.077148438 514.46484375 471.8359375 453.770507812 c 128,-1,56
 463.594726562 393.077148438 463.594726562 393.077148438 463.594726562 323.482421875 c 0,57,58
 463.594726562 252.26953125 463.594726562 252.26953125 471.8359375 191.57421875 c 128,-1,59
 480.077148438 130.883789062 480.077148438 130.883789062 494.028320312 86.375 c 128,-1,60
 507.973632812 41.8642578125 507.973632812 41.8642578125 527.627929688 15.96875 c 128,-1,61
 547.284179688 -9.9248046875 547.284179688 -9.9248046875 568.837890625 -9.9248046875 c 256,62,63
 590.396484375 -9.9248046875 590.396484375 -9.9248046875 609.415039062 15.96875 c 128,-1,64
 628.4375 41.8642578125 628.4375 41.8642578125 643.021484375 86.375 c 128,-1,65
 657.599609375 130.883789062 657.599609375 130.883789062 665.842773438 191.57421875 c 128,-1,66
 674.087890625 252.26953125 674.087890625 252.26953125 674.087890625 323.482421875 c 0,67,68
 674.087890625 393.077148438 674.087890625 393.077148438 665.842773438 453.770507812 c 128,-1,69
 657.599609375 514.46484375 657.599609375 514.46484375 643.021484375 559.783203125 c 128,-1,70
 628.4375 605.098632812 628.4375 605.098632812 609.415039062 630.185546875 c 128,-1,71
 590.396484375 655.2734375 590.396484375 655.2734375 568.837890625 655.2734375 c 256,52,53
357.157226562 655.2734375 m 256,72,73
 335.602539062 655.2734375 335.602539062 655.2734375 315.947265625 630.185546875 c 128,-1,74
 296.291992188 605.098632812 296.291992188 605.098632812 282.345703125 559.783203125 c 128,-1,75
 268.396484375 514.46484375 268.396484375 514.46484375 260.154296875 453.770507812 c 128,-1,76
 251.913085938 393.077148438 251.913085938 393.077148438 251.913085938 323.482421875 c 0,77,78
 251.913085938 252.26953125 251.913085938 252.26953125 260.154296875 191.57421875 c 128,-1,79
 268.396484375 130.883789062 268.396484375 130.883789062 282.345703125 86.375 c 128,-1,80
 296.291992188 41.8642578125 296.291992188 41.8642578125 315.947265625 15.96875 c 128,-1,81
 335.602539062 -9.9248046875 335.602539062 -9.9248046875 357.157226562 -9.9248046875 c 256,82,83
 378.71484375 -9.9248046875 378.71484375 -9.9248046875 397.734375 15.96875 c 128,-1,84
 416.756835938 41.8642578125 416.756835938 41.8642578125 431.33984375 86.375 c 128,-1,85
 445.916992188 130.883789062 445.916992188 130.883789062 454.162109375 191.57421875 c 128,-1,86
 462.405273438 252.26953125 462.405273438 252.26953125 462.405273438 323.482421875 c 0,87,88
 462.405273438 393.077148438 462.405273438 393.077148438 454.162109375 453.770507812 c 128,-1,89
 445.916992188 514.46484375 445.916992188 514.46484375 431.33984375 559.783203125 c 128,-1,90
 416.756835938 605.098632812 416.756835938 605.098632812 397.734375 630.185546875 c 128,-1,91
 378.71484375 655.2734375 378.71484375 655.2734375 357.157226562 655.2734375 c 256,72,73
145.475585938 655.2734375 m 256,92,93
 123.921875 655.2734375 123.921875 655.2734375 104.265625 630.185546875 c 128,-1,94
 84.611328125 605.098632812 84.611328125 605.098632812 70.6650390625 559.783203125 c 128,-1,95
 56.71484375 514.46484375 56.71484375 514.46484375 48.4736328125 453.770507812 c 128,-1,96
 40.2314453125 393.077148438 40.2314453125 393.077148438 40.2314453125 323.482421875 c 0,97,98
 40.2314453125 252.26953125 40.2314453125 252.26953125 48.4736328125 191.57421875 c 128,-1,99
 56.71484375 130.883789062 56.71484375 130.883789062 70.6650390625 86.375 c 128,-1,100
 84.611328125 41.8642578125 84.611328125 41.8642578125 104.265625 15.96875 c 128,-1,101
 123.921875 -9.9248046875 123.921875 -9.9248046875 145.475585938 -9.9248046875 c 256,102,103
 167.034179688 -9.9248046875 167.034179688 -9.9248046875 186.051757812 15.96875 c 128,-1,104
 205.075195312 41.8642578125 205.075195312 41.8642578125 219.658203125 86.375 c 128,-1,105
 234.236328125 130.883789062 234.236328125 130.883789062 242.48046875 191.57421875 c 128,-1,106
 250.724609375 252.26953125 250.724609375 252.26953125 250.724609375 323.482421875 c 0,107,108
 250.724609375 393.077148438 250.724609375 393.077148438 242.48046875 453.770507812 c 128,-1,109
 234.236328125 514.46484375 234.236328125 514.46484375 219.658203125 559.783203125 c 128,-1,110
 205.075195312 605.098632812 205.075195312 605.098632812 186.051757812 630.185546875 c 128,-1,111
 167.034179688 655.2734375 167.034179688 655.2734375 145.475585938 655.2734375 c 256,92,93
143.439453125 597.200195312 m 0,112,113
 154.795898438 596.94140625 154.795898438 596.94140625 164.49609375 576.907226562 c 0,114,115
 174.836914062 556.34765625 174.836914062 556.34765625 181.4453125 520.291015625 c 0,116,117
 188.614257812 484.387695312 188.614257812 484.387695312 192.741210938 434.8359375 c 0,118,119
 197.3828125 385.672851562 197.3828125 385.672851562 196.849609375 330.15234375 c 0,120,121
 197.3828125 272.196289062 197.3828125 272.196289062 192.741210938 224.399414062 c 0,122,123
 188.614257812 176.247070312 188.614257812 176.247070312 181.4453125 140.010742188 c 0,124,125
 174.836914062 103.366210938 174.836914062 103.366210938 164.49609375 83.3974609375 c 0,126,127
 154.795898438 62.7705078125 154.795898438 62.7705078125 143.439453125 63.1005859375 c 0,128,129
 133.50390625 62.7705078125 133.50390625 62.7705078125 122.8984375 83.3974609375 c 0,130,131
 112.208984375 103.366210938 112.208984375 103.366210938 105.438476562 140.010742188 c 0,132,133
 98.431640625 176.247070312 98.431640625 176.247070312 94.1376953125 224.399414062 c 0,134,135
 89.6640625 272.196289062 89.6640625 272.196289062 90.0302734375 330.15234375 c 0,136,137
 89.6640625 385.672851562 89.6640625 385.672851562 94.1376953125 434.8359375 c 0,138,139
 98.431640625 484.387695312 98.431640625 484.387695312 105.438476562 520.291015625 c 0,140,141
 112.208984375 556.34765625 112.208984375 556.34765625 122.8984375 576.907226562 c 0,142,143
 133.50390625 596.94140625 133.50390625 596.94140625 143.439453125 597.200195312 c 0,112,113
EndSplineSet
EndChar

StartChar: seven.deva
Encoding: 55 55 23
Width: 926
Flags: W
LayerCount: 2
Fore
SplineSet
780.51953125 655.2734375 m 256,0,1
 758.96484375 655.2734375 758.96484375 655.2734375 739.30859375 630.185546875 c 128,-1,2
 719.655273438 605.098632812 719.655273438 605.098632812 705.708984375 559.783203125 c 128,-1,3
 691.759765625 514.46484375 691.759765625 514.46484375 683.516601562 453.770507812 c 128,-1,4
 675.275390625 393.077148438 675.275390625 393.077148438 675.275390625 323.482421875 c 0,5,6
 675.275390625 252.26953125 675.275390625 252.26953125 683.516601562 191.57421875 c 128,-1,7
 691.759765625 130.883789062 691.759765625 130.883789062 705.708984375 86.375 c 128,-1,8
 719.655273438 41.8642578125 719.655273438 41.8642578125 739.30859375 15.96875 c 128,-1,9
 758.96484375 -9.9248046875 758.96484375 -9.9248046875 780.51953125 -9.9248046875 c 256,10,11
 802.077148438 -9.9248046875 802.077148438 -9.9248046875 821.09765625 15.96875 c 128,-1,12
 840.120117188 41.8642578125 840.120117188 41.8642578125 854.703125 86.375 c 128,-1,13
 869.28125 130.883789062 869.28125 130.883789062 877.524414062 191.57421875 c 128,-1,14
 885.768554688 252.26953125 885.768554688 252.26953125 885.768554688 323.482421875 c 0,15,16
 885.768554688 393.077148438 885.768554688 393.077148438 877.524414062 453.770507812 c 128,-1,17
 869.28125 514.46484375 869.28125 514.46484375 854.703125 559.783203125 c 128,-1,18
 840.120117188 605.098632812 840.120117188 605.098632812 821.09765625 630.185546875 c 128,-1,19
 802.077148438 655.2734375 802.077148438 655.2734375 780.51953125 655.2734375 c 256,0,1
568.837890625 655.2734375 m 256,20,21
 547.284179688 655.2734375 547.284179688 655.2734375 527.627929688 630.185546875 c 128,-1,22
 507.973632812 605.098632812 507.973632812 605.098632812 494.028320312 559.783203125 c 128,-1,23
 480.077148438 514.46484375 480.077148438 514.46484375 471.8359375 453.770507812 c 128,-1,24
 463.594726562 393.077148438 463.594726562 393.077148438 463.594726562 323.482421875 c 0,25,26
 463.594726562 252.26953125 463.594726562 252.26953125 471.8359375 191.57421875 c 128,-1,27
 480.077148438 130.883789062 480.077148438 130.883789062 494.028320312 86.375 c 128,-1,28
 507.973632812 41.8642578125 507.973632812 41.8642578125 527.627929688 15.96875 c 128,-1,29
 547.284179688 -9.9248046875 547.284179688 -9.9248046875 568.837890625 -9.9248046875 c 256,30,31
 590.396484375 -9.9248046875 590.396484375 -9.9248046875 609.415039062 15.96875 c 128,-1,32
 628.4375 41.8642578125 628.4375 41.8642578125 643.021484375 86.375 c 128,-1,33
 657.599609375 130.883789062 657.599609375 130.883789062 665.842773438 191.57421875 c 128,-1,34
 674.087890625 252.26953125 674.087890625 252.26953125 674.087890625 323.482421875 c 0,35,36
 674.087890625 393.077148438 674.087890625 393.077148438 665.842773438 453.770507812 c 128,-1,37
 657.599609375 514.46484375 657.599609375 514.46484375 643.021484375 559.783203125 c 128,-1,38
 628.4375 605.098632812 628.4375 605.098632812 609.415039062 630.185546875 c 128,-1,39
 590.396484375 655.2734375 590.396484375 655.2734375 568.837890625 655.2734375 c 256,20,21
357.157226562 655.2734375 m 256,40,41
 335.602539062 655.2734375 335.602539062 655.2734375 315.947265625 630.185546875 c 128,-1,42
 296.291992188 605.098632812 296.291992188 605.098632812 282.345703125 559.783203125 c 128,-1,43
 268.396484375 514.46484375 268.396484375 514.46484375 260.154296875 453.770507812 c 128,-1,44
 251.913085938 393.077148438 251.913085938 393.077148438 251.913085938 323.482421875 c 0,45,46
 251.913085938 252.26953125 251.913085938 252.26953125 260.154296875 191.57421875 c 128,-1,47
 268.396484375 130.883789062 268.396484375 130.883789062 282.345703125 86.375 c 128,-1,48
 296.291992188 41.8642578125 296.291992188 41.8642578125 315.947265625 15.96875 c 128,-1,49
 335.602539062 -9.9248046875 335.602539062 -9.9248046875 357.157226562 -9.9248046875 c 256,50,51
 378.71484375 -9.9248046875 378.71484375 -9.9248046875 397.734375 15.96875 c 128,-1,52
 416.756835938 41.8642578125 416.756835938 41.8642578125 431.33984375 86.375 c 128,-1,53
 445.916992188 130.883789062 445.916992188 130.883789062 454.162109375 191.57421875 c 128,-1,54
 462.405273438 252.26953125 462.405273438 252.26953125 462.405273438 323.482421875 c 0,55,56
 462.405273438 393.077148438 462.405273438 393.077148438 454.162109375 453.770507812 c 128,-1,57
 445.916992188 514.46484375 445.916992188 514.46484375 431.33984375 559.783203125 c 128,-1,58
 416.756835938 605.098632812 416.756835938 605.098632812 397.734375 630.185546875 c 128,-1,59
 378.71484375 655.2734375 378.71484375 655.2734375 357.157226562 655.2734375 c 256,40,41
145.475585938 655.2734375 m 256,60,61
 123.921875 655.2734375 123.921875 655.2734375 104.265625 630.185546875 c 128,-1,62
 84.611328125 605.098632812 84.611328125 605.098632812 70.6650390625 559.783203125 c 128,-1,63
 56.71484375 514.46484375 56.71484375 514.46484375 48.4736328125 453.770507812 c 128,-1,64
 40.2314453125 393.077148438 40.2314453125 393.077148438 40.2314453125 323.482421875 c 0,65,66
 40.2314453125 252.26953125 40.2314453125 252.26953125 48.4736328125 191.57421875 c 128,-1,67
 56.71484375 130.883789062 56.71484375 130.883789062 70.6650390625 86.375 c 128,-1,68
 84.611328125 41.8642578125 84.611328125 41.8642578125 104.265625 15.96875 c 128,-1,69
 123.921875 -9.9248046875 123.921875 -9.9248046875 145.475585938 -9.9248046875 c 256,70,71
 167.034179688 -9.9248046875 167.034179688 -9.9248046875 186.051757812 15.96875 c 128,-1,72
 205.075195312 41.8642578125 205.075195312 41.8642578125 219.658203125 86.375 c 128,-1,73
 234.236328125 130.883789062 234.236328125 130.883789062 242.48046875 191.57421875 c 128,-1,74
 250.724609375 252.26953125 250.724609375 252.26953125 250.724609375 323.482421875 c 0,75,76
 250.724609375 393.077148438 250.724609375 393.077148438 242.48046875 453.770507812 c 128,-1,77
 234.236328125 514.46484375 234.236328125 514.46484375 219.658203125 559.783203125 c 128,-1,78
 205.075195312 605.098632812 205.075195312 605.098632812 186.051757812 630.185546875 c 128,-1,79
 167.034179688 655.2734375 167.034179688 655.2734375 145.475585938 655.2734375 c 256,60,61
143.439453125 597.200195312 m 0,80,81
 154.795898438 596.94140625 154.795898438 596.94140625 164.49609375 576.907226562 c 0,82,83
 174.836914062 556.34765625 174.836914062 556.34765625 181.4453125 520.291015625 c 0,84,85
 188.614257812 484.387695312 188.614257812 484.387695312 192.741210938 434.8359375 c 0,86,87
 197.3828125 385.672851562 197.3828125 385.672851562 196.849609375 330.15234375 c 0,88,89
 197.3828125 272.196289062 197.3828125 272.196289062 192.741210938 224.399414062 c 0,90,91
 188.614257812 176.247070312 188.614257812 176.247070312 181.4453125 140.010742188 c 0,92,93
 174.836914062 103.366210938 174.836914062 103.366210938 164.49609375 83.3974609375 c 0,94,95
 154.795898438 62.7705078125 154.795898438 62.7705078125 143.439453125 63.1005859375 c 0,96,97
 133.50390625 62.7705078125 133.50390625 62.7705078125 122.8984375 83.3974609375 c 0,98,99
 112.208984375 103.366210938 112.208984375 103.366210938 105.438476562 140.010742188 c 0,100,101
 98.431640625 176.247070312 98.431640625 176.247070312 94.1376953125 224.399414062 c 0,102,103
 89.6640625 272.196289062 89.6640625 272.196289062 90.0302734375 330.15234375 c 0,104,105
 89.6640625 385.672851562 89.6640625 385.672851562 94.1376953125 434.8359375 c 0,106,107
 98.431640625 484.387695312 98.431640625 484.387695312 105.438476562 520.291015625 c 0,108,109
 112.208984375 556.34765625 112.208984375 556.34765625 122.8984375 576.907226562 c 0,110,111
 133.50390625 596.94140625 133.50390625 596.94140625 143.439453125 597.200195312 c 0,80,81
EndSplineSet
EndChar

StartChar: eight.deva
Encoding: 56 56 24
Width: 926
Flags: W
LayerCount: 2
Fore
SplineSet
780.51953125 655.2734375 m 256,0,1
 758.96484375 655.2734375 758.96484375 655.2734375 739.30859375 630.185546875 c 128,-1,2
 719.655273438 605.098632812 719.655273438 605.098632812 705.708984375 559.783203125 c 128,-1,3
 691.759765625 514.46484375 691.759765625 514.46484375 683.516601562 453.770507812 c 128,-1,4
 675.275390625 393.077148438 675.275390625 393.077148438 675.275390625 323.482421875 c 0,5,6
 675.275390625 252.26953125 675.275390625 252.26953125 683.516601562 191.57421875 c 128,-1,7
 691.759765625 130.883789062 691.759765625 130.883789062 705.708984375 86.375 c 128,-1,8
 719.655273438 41.8642578125 719.655273438 41.8642578125 739.30859375 15.96875 c 128,-1,9
 758.96484375 -9.9248046875 758.96484375 -9.9248046875 780.51953125 -9.9248046875 c 256,10,11
 802.077148438 -9.9248046875 802.077148438 -9.9248046875 821.09765625 15.96875 c 128,-1,12
 840.120117188 41.8642578125 840.120117188 41.8642578125 854.703125 86.375 c 128,-1,13
 869.28125 130.883789062 869.28125 130.883789062 877.524414062 191.57421875 c 128,-1,14
 885.768554688 252.26953125 885.768554688 252.26953125 885.768554688 323.482421875 c 0,15,16
 885.768554688 393.077148438 885.768554688 393.077148438 877.524414062 453.770507812 c 128,-1,17
 869.28125 514.46484375 869.28125 514.46484375 854.703125 559.783203125 c 128,-1,18
 840.120117188 605.098632812 840.120117188 605.098632812 821.09765625 630.185546875 c 128,-1,19
 802.077148438 655.2734375 802.077148438 655.2734375 780.51953125 655.2734375 c 256,0,1
778.483398438 597.200195312 m 0,20,21
 789.838867188 596.94140625 789.838867188 596.94140625 799.541992188 576.907226562 c 0,22,23
 809.880859375 556.34765625 809.880859375 556.34765625 816.48828125 520.291015625 c 0,24,25
 823.66015625 484.387695312 823.66015625 484.387695312 827.786132812 434.8359375 c 0,26,27
 832.427734375 385.672851562 832.427734375 385.672851562 831.893554688 330.15234375 c 0,28,29
 832.427734375 272.196289062 832.427734375 272.196289062 827.786132812 224.399414062 c 0,30,31
 823.66015625 176.247070312 823.66015625 176.247070312 816.48828125 140.010742188 c 0,32,33
 809.880859375 103.366210938 809.880859375 103.366210938 799.541992188 83.3974609375 c 0,34,35
 789.838867188 62.7705078125 789.838867188 62.7705078125 778.483398438 63.1005859375 c 0,36,37
 768.546875 62.7705078125 768.546875 62.7705078125 757.942382812 83.3974609375 c 0,38,39
 747.252929688 103.366210938 747.252929688 103.366210938 740.481445312 140.010742188 c 0,40,41
 733.474609375 176.247070312 733.474609375 176.247070312 729.182617188 224.399414062 c 0,42,43
 724.70703125 272.196289062 724.70703125 272.196289062 725.075195312 330.15234375 c 0,44,45
 724.70703125 385.672851562 724.70703125 385.672851562 729.182617188 434.8359375 c 0,46,47
 733.474609375 484.387695312 733.474609375 484.387695312 740.481445312 520.291015625 c 0,48,49
 747.252929688 556.34765625 747.252929688 556.34765625 757.942382812 576.907226562 c 0,50,51
 768.546875 596.94140625 768.546875 596.94140625 778.483398438 597.200195312 c 0,20,21
568.837890625 655.2734375 m 256,52,53
 547.284179688 655.2734375 547.284179688 655.2734375 527.627929688 630.185546875 c 128,-1,54
 507.973632812 605.098632812 507.973632812 605.098632812 494.028320312 559.783203125 c 128,-1,55
 480.077148438 514.46484375 480.077148438 514.46484375 471.8359375 453.770507812 c 128,-1,56
 463.594726562 393.077148438 463.594726562 393.077148438 463.594726562 323.482421875 c 0,57,58
 463.594726562 252.26953125 463.594726562 252.26953125 471.8359375 191.57421875 c 128,-1,59
 480.077148438 130.883789062 480.077148438 130.883789062 494.028320312 86.375 c 128,-1,60
 507.973632812 41.8642578125 507.973632812 41.8642578125 527.627929688 15.96875 c 128,-1,61
 547.284179688 -9.9248046875 547.284179688 -9.9248046875 568.837890625 -9.9248046875 c 256,62,63
 590.396484375 -9.9248046875 590.396484375 -9.9248046875 609.415039062 15.96875 c 128,-1,64
 628.4375 41.8642578125 628.4375 41.8642578125 643.021484375 86.375 c 128,-1,65
 657.599609375 130.883789062 657.599609375 130.883789062 665.842773438 191.57421875 c 128,-1,66
 674.087890625 252.26953125 674.087890625 252.26953125 674.087890625 323.482421875 c 0,67,68
 674.087890625 393.077148438 674.087890625 393.077148438 665.842773438 453.770507812 c 128,-1,69
 657.599609375 514.46484375 657.599609375 514.46484375 643.021484375 559.783203125 c 128,-1,70
 628.4375 605.098632812 628.4375 605.098632812 609.415039062 630.185546875 c 128,-1,71
 590.396484375 655.2734375 590.396484375 655.2734375 568.837890625 655.2734375 c 256,52,53
566.802734375 597.200195312 m 0,72,73
 578.158203125 596.94140625 578.158203125 596.94140625 587.860351562 576.907226562 c 0,74,75
 598.200195312 556.34765625 598.200195312 556.34765625 604.807617188 520.291015625 c 0,76,77
 611.977539062 484.387695312 611.977539062 484.387695312 616.103515625 434.8359375 c 0,78,79
 620.74609375 385.672851562 620.74609375 385.672851562 620.211914062 330.15234375 c 0,80,81
 620.74609375 272.196289062 620.74609375 272.196289062 616.103515625 224.399414062 c 0,82,83
 611.977539062 176.247070312 611.977539062 176.247070312 604.807617188 140.010742188 c 0,84,85
 598.200195312 103.366210938 598.200195312 103.366210938 587.860351562 83.3974609375 c 0,86,87
 578.158203125 62.7705078125 578.158203125 62.7705078125 566.802734375 63.1005859375 c 0,88,89
 556.866210938 62.7705078125 556.866210938 62.7705078125 546.260742188 83.3974609375 c 0,90,91
 535.5703125 103.366210938 535.5703125 103.366210938 528.80078125 140.010742188 c 0,92,93
 521.793945312 176.247070312 521.793945312 176.247070312 517.501953125 224.399414062 c 0,94,95
 513.026367188 272.196289062 513.026367188 272.196289062 513.393554688 330.15234375 c 0,96,97
 513.026367188 385.672851562 513.026367188 385.672851562 517.501953125 434.8359375 c 0,98,99
 521.793945312 484.387695312 521.793945312 484.387695312 528.80078125 520.291015625 c 0,100,101
 535.5703125 556.34765625 535.5703125 556.34765625 546.260742188 576.907226562 c 0,102,103
 556.866210938 596.94140625 556.866210938 596.94140625 566.802734375 597.200195312 c 0,72,73
357.157226562 655.2734375 m 256,104,105
 335.602539062 655.2734375 335.602539062 655.2734375 315.947265625 630.185546875 c 128,-1,106
 296.291992188 605.098632812 296.291992188 605.098632812 282.345703125 559.783203125 c 128,-1,107
 268.396484375 514.46484375 268.396484375 514.46484375 260.154296875 453.770507812 c 128,-1,108
 251.913085938 393.077148438 251.913085938 393.077148438 251.913085938 323.482421875 c 0,109,110
 251.913085938 252.26953125 251.913085938 252.26953125 260.154296875 191.57421875 c 128,-1,111
 268.396484375 130.883789062 268.396484375 130.883789062 282.345703125 86.375 c 128,-1,112
 296.291992188 41.8642578125 296.291992188 41.8642578125 315.947265625 15.96875 c 128,-1,113
 335.602539062 -9.9248046875 335.602539062 -9.9248046875 357.157226562 -9.9248046875 c 256,114,115
 378.71484375 -9.9248046875 378.71484375 -9.9248046875 397.734375 15.96875 c 128,-1,116
 416.756835938 41.8642578125 416.756835938 41.8642578125 431.33984375 86.375 c 128,-1,117
 445.916992188 130.883789062 445.916992188 130.883789062 454.162109375 191.57421875 c 128,-1,118
 462.405273438 252.26953125 462.405273438 252.26953125 462.405273438 323.482421875 c 0,119,120
 462.405273438 393.077148438 462.405273438 393.077148438 454.162109375 453.770507812 c 128,-1,121
 445.916992188 514.46484375 445.916992188 514.46484375 431.33984375 559.783203125 c 128,-1,122
 416.756835938 605.098632812 416.756835938 605.098632812 397.734375 630.185546875 c 128,-1,123
 378.71484375 655.2734375 378.71484375 655.2734375 357.157226562 655.2734375 c 256,104,105
355.120117188 597.200195312 m 0,124,125
 366.4765625 596.94140625 366.4765625 596.94140625 376.177734375 576.907226562 c 0,126,127
 386.518554688 556.34765625 386.518554688 556.34765625 393.125976562 520.291015625 c 0,128,129
 400.296875 484.387695312 400.296875 484.387695312 404.422851562 434.8359375 c 0,130,131
 409.065429688 385.672851562 409.065429688 385.672851562 408.530273438 330.15234375 c 0,132,133
 409.065429688 272.196289062 409.065429688 272.196289062 404.422851562 224.399414062 c 0,134,135
 400.296875 176.247070312 400.296875 176.247070312 393.125976562 140.010742188 c 0,136,137
 386.518554688 103.366210938 386.518554688 103.366210938 376.177734375 83.3974609375 c 0,138,139
 366.4765625 62.7705078125 366.4765625 62.7705078125 355.120117188 63.1005859375 c 0,140,141
 345.184570312 62.7705078125 345.184570312 62.7705078125 334.580078125 83.3974609375 c 0,142,143
 323.889648438 103.366210938 323.889648438 103.366210938 317.119140625 140.010742188 c 0,144,145
 310.112304688 176.247070312 310.112304688 176.247070312 305.819335938 224.399414062 c 0,146,147
 301.345703125 272.196289062 301.345703125 272.196289062 301.712890625 330.15234375 c 0,148,149
 301.345703125 385.672851562 301.345703125 385.672851562 305.819335938 434.8359375 c 0,150,151
 310.112304688 484.387695312 310.112304688 484.387695312 317.119140625 520.291015625 c 0,152,153
 323.889648438 556.34765625 323.889648438 556.34765625 334.580078125 576.907226562 c 0,154,155
 345.184570312 596.94140625 345.184570312 596.94140625 355.120117188 597.200195312 c 0,124,125
145.475585938 655.2734375 m 256,156,157
 123.921875 655.2734375 123.921875 655.2734375 104.265625 630.185546875 c 128,-1,158
 84.611328125 605.098632812 84.611328125 605.098632812 70.6650390625 559.783203125 c 128,-1,159
 56.71484375 514.46484375 56.71484375 514.46484375 48.4736328125 453.770507812 c 128,-1,160
 40.2314453125 393.077148438 40.2314453125 393.077148438 40.2314453125 323.482421875 c 0,161,162
 40.2314453125 252.26953125 40.2314453125 252.26953125 48.4736328125 191.57421875 c 128,-1,163
 56.71484375 130.883789062 56.71484375 130.883789062 70.6650390625 86.375 c 128,-1,164
 84.611328125 41.8642578125 84.611328125 41.8642578125 104.265625 15.96875 c 128,-1,165
 123.921875 -9.9248046875 123.921875 -9.9248046875 145.475585938 -9.9248046875 c 256,166,167
 167.034179688 -9.9248046875 167.034179688 -9.9248046875 186.051757812 15.96875 c 128,-1,168
 205.075195312 41.8642578125 205.075195312 41.8642578125 219.658203125 86.375 c 128,-1,169
 234.236328125 130.883789062 234.236328125 130.883789062 242.48046875 191.57421875 c 128,-1,170
 250.724609375 252.26953125 250.724609375 252.26953125 250.724609375 323.482421875 c 0,171,172
 250.724609375 393.077148438 250.724609375 393.077148438 242.48046875 453.770507812 c 128,-1,173
 234.236328125 514.46484375 234.236328125 514.46484375 219.658203125 559.783203125 c 128,-1,174
 205.075195312 605.098632812 205.075195312 605.098632812 186.051757812 630.185546875 c 128,-1,175
 167.034179688 655.2734375 167.034179688 655.2734375 145.475585938 655.2734375 c 256,156,157
EndSplineSet
EndChar

StartChar: nine.deva
Encoding: 57 57 25
Width: 926
Flags: W
LayerCount: 2
Fore
SplineSet
780.51953125 655.2734375 m 256,0,1
 758.96484375 655.2734375 758.96484375 655.2734375 739.30859375 630.185546875 c 128,-1,2
 719.655273438 605.098632812 719.655273438 605.098632812 705.708984375 559.783203125 c 128,-1,3
 691.759765625 514.46484375 691.759765625 514.46484375 683.516601562 453.770507812 c 128,-1,4
 675.275390625 393.077148438 675.275390625 393.077148438 675.275390625 323.482421875 c 0,5,6
 675.275390625 252.26953125 675.275390625 252.26953125 683.516601562 191.57421875 c 128,-1,7
 691.759765625 130.883789062 691.759765625 130.883789062 705.708984375 86.375 c 128,-1,8
 719.655273438 41.8642578125 719.655273438 41.8642578125 739.30859375 15.96875 c 128,-1,9
 758.96484375 -9.9248046875 758.96484375 -9.9248046875 780.51953125 -9.9248046875 c 256,10,11
 802.077148438 -9.9248046875 802.077148438 -9.9248046875 821.09765625 15.96875 c 128,-1,12
 840.120117188 41.8642578125 840.120117188 41.8642578125 854.703125 86.375 c 128,-1,13
 869.28125 130.883789062 869.28125 130.883789062 877.524414062 191.57421875 c 128,-1,14
 885.768554688 252.26953125 885.768554688 252.26953125 885.768554688 323.482421875 c 0,15,16
 885.768554688 393.077148438 885.768554688 393.077148438 877.524414062 453.770507812 c 128,-1,17
 869.28125 514.46484375 869.28125 514.46484375 854.703125 559.783203125 c 128,-1,18
 840.120117188 605.098632812 840.120117188 605.098632812 821.09765625 630.185546875 c 128,-1,19
 802.077148438 655.2734375 802.077148438 655.2734375 780.51953125 655.2734375 c 256,0,1
568.837890625 655.2734375 m 256,20,21
 547.284179688 655.2734375 547.284179688 655.2734375 527.627929688 630.185546875 c 128,-1,22
 507.973632812 605.098632812 507.973632812 605.098632812 494.028320312 559.783203125 c 128,-1,23
 480.077148438 514.46484375 480.077148438 514.46484375 471.8359375 453.770507812 c 128,-1,24
 463.594726562 393.077148438 463.594726562 393.077148438 463.594726562 323.482421875 c 0,25,26
 463.594726562 252.26953125 463.594726562 252.26953125 471.8359375 191.57421875 c 128,-1,27
 480.077148438 130.883789062 480.077148438 130.883789062 494.028320312 86.375 c 128,-1,28
 507.973632812 41.8642578125 507.973632812 41.8642578125 527.627929688 15.96875 c 128,-1,29
 547.284179688 -9.9248046875 547.284179688 -9.9248046875 568.837890625 -9.9248046875 c 256,30,31
 590.396484375 -9.9248046875 590.396484375 -9.9248046875 609.415039062 15.96875 c 128,-1,32
 628.4375 41.8642578125 628.4375 41.8642578125 643.021484375 86.375 c 128,-1,33
 657.599609375 130.883789062 657.599609375 130.883789062 665.842773438 191.57421875 c 128,-1,34
 674.087890625 252.26953125 674.087890625 252.26953125 674.087890625 323.482421875 c 0,35,36
 674.087890625 393.077148438 674.087890625 393.077148438 665.842773438 453.770507812 c 128,-1,37
 657.599609375 514.46484375 657.599609375 514.46484375 643.021484375 559.783203125 c 128,-1,38
 628.4375 605.098632812 628.4375 605.098632812 609.415039062 630.185546875 c 128,-1,39
 590.396484375 655.2734375 590.396484375 655.2734375 568.837890625 655.2734375 c 256,20,21
566.802734375 597.200195312 m 0,40,41
 578.158203125 596.94140625 578.158203125 596.94140625 587.860351562 576.907226562 c 0,42,43
 598.200195312 556.34765625 598.200195312 556.34765625 604.807617188 520.291015625 c 0,44,45
 611.977539062 484.387695312 611.977539062 484.387695312 616.103515625 434.8359375 c 0,46,47
 620.74609375 385.672851562 620.74609375 385.672851562 620.211914062 330.15234375 c 0,48,49
 620.74609375 272.196289062 620.74609375 272.196289062 616.103515625 224.399414062 c 0,50,51
 611.977539062 176.247070312 611.977539062 176.247070312 604.807617188 140.010742188 c 0,52,53
 598.200195312 103.366210938 598.200195312 103.366210938 587.860351562 83.3974609375 c 0,54,55
 578.158203125 62.7705078125 578.158203125 62.7705078125 566.802734375 63.1005859375 c 0,56,57
 556.866210938 62.7705078125 556.866210938 62.7705078125 546.260742188 83.3974609375 c 0,58,59
 535.5703125 103.366210938 535.5703125 103.366210938 528.80078125 140.010742188 c 0,60,61
 521.793945312 176.247070312 521.793945312 176.247070312 517.501953125 224.399414062 c 0,62,63
 513.026367188 272.196289062 513.026367188 272.196289062 513.393554688 330.15234375 c 0,64,65
 513.026367188 385.672851562 513.026367188 385.672851562 517.501953125 434.8359375 c 0,66,67
 521.793945312 484.387695312 521.793945312 484.387695312 528.80078125 520.291015625 c 0,68,69
 535.5703125 556.34765625 535.5703125 556.34765625 546.260742188 576.907226562 c 0,70,71
 556.866210938 596.94140625 556.866210938 596.94140625 566.802734375 597.200195312 c 0,40,41
357.157226562 655.2734375 m 256,72,73
 335.602539062 655.2734375 335.602539062 655.2734375 315.947265625 630.185546875 c 128,-1,74
 296.291992188 605.098632812 296.291992188 605.098632812 282.345703125 559.783203125 c 128,-1,75
 268.396484375 514.46484375 268.396484375 514.46484375 260.154296875 453.770507812 c 128,-1,76
 251.913085938 393.077148438 251.913085938 393.077148438 251.913085938 323.482421875 c 0,77,78
 251.913085938 252.26953125 251.913085938 252.26953125 260.154296875 191.57421875 c 128,-1,79
 268.396484375 130.883789062 268.396484375 130.883789062 282.345703125 86.375 c 128,-1,80
 296.291992188 41.8642578125 296.291992188 41.8642578125 315.947265625 15.96875 c 128,-1,81
 335.602539062 -9.9248046875 335.602539062 -9.9248046875 357.157226562 -9.9248046875 c 256,82,83
 378.71484375 -9.9248046875 378.71484375 -9.9248046875 397.734375 15.96875 c 128,-1,84
 416.756835938 41.8642578125 416.756835938 41.8642578125 431.33984375 86.375 c 128,-1,85
 445.916992188 130.883789062 445.916992188 130.883789062 454.162109375 191.57421875 c 128,-1,86
 462.405273438 252.26953125 462.405273438 252.26953125 462.405273438 323.482421875 c 0,87,88
 462.405273438 393.077148438 462.405273438 393.077148438 454.162109375 453.770507812 c 128,-1,89
 445.916992188 514.46484375 445.916992188 514.46484375 431.33984375 559.783203125 c 128,-1,90
 416.756835938 605.098632812 416.756835938 605.098632812 397.734375 630.185546875 c 128,-1,91
 378.71484375 655.2734375 378.71484375 655.2734375 357.157226562 655.2734375 c 256,72,73
355.120117188 597.200195312 m 0,92,93
 366.4765625 596.94140625 366.4765625 596.94140625 376.177734375 576.907226562 c 0,94,95
 386.518554688 556.34765625 386.518554688 556.34765625 393.125976562 520.291015625 c 0,96,97
 400.296875 484.387695312 400.296875 484.387695312 404.422851562 434.8359375 c 0,98,99
 409.065429688 385.672851562 409.065429688 385.672851562 408.530273438 330.15234375 c 0,100,101
 409.065429688 272.196289062 409.065429688 272.196289062 404.422851562 224.399414062 c 0,102,103
 400.296875 176.247070312 400.296875 176.247070312 393.125976562 140.010742188 c 0,104,105
 386.518554688 103.366210938 386.518554688 103.366210938 376.177734375 83.3974609375 c 0,106,107
 366.4765625 62.7705078125 366.4765625 62.7705078125 355.120117188 63.1005859375 c 0,108,109
 345.184570312 62.7705078125 345.184570312 62.7705078125 334.580078125 83.3974609375 c 0,110,111
 323.889648438 103.366210938 323.889648438 103.366210938 317.119140625 140.010742188 c 0,112,113
 310.112304688 176.247070312 310.112304688 176.247070312 305.819335938 224.399414062 c 0,114,115
 301.345703125 272.196289062 301.345703125 272.196289062 301.712890625 330.15234375 c 0,116,117
 301.345703125 385.672851562 301.345703125 385.672851562 305.819335938 434.8359375 c 0,118,119
 310.112304688 484.387695312 310.112304688 484.387695312 317.119140625 520.291015625 c 0,120,121
 323.889648438 556.34765625 323.889648438 556.34765625 334.580078125 576.907226562 c 0,122,123
 345.184570312 596.94140625 345.184570312 596.94140625 355.120117188 597.200195312 c 0,92,93
145.475585938 655.2734375 m 256,124,125
 123.921875 655.2734375 123.921875 655.2734375 104.265625 630.185546875 c 128,-1,126
 84.611328125 605.098632812 84.611328125 605.098632812 70.6650390625 559.783203125 c 128,-1,127
 56.71484375 514.46484375 56.71484375 514.46484375 48.4736328125 453.770507812 c 128,-1,128
 40.2314453125 393.077148438 40.2314453125 393.077148438 40.2314453125 323.482421875 c 0,129,130
 40.2314453125 252.26953125 40.2314453125 252.26953125 48.4736328125 191.57421875 c 128,-1,131
 56.71484375 130.883789062 56.71484375 130.883789062 70.6650390625 86.375 c 128,-1,132
 84.611328125 41.8642578125 84.611328125 41.8642578125 104.265625 15.96875 c 128,-1,133
 123.921875 -9.9248046875 123.921875 -9.9248046875 145.475585938 -9.9248046875 c 256,134,135
 167.034179688 -9.9248046875 167.034179688 -9.9248046875 186.051757812 15.96875 c 128,-1,136
 205.075195312 41.8642578125 205.075195312 41.8642578125 219.658203125 86.375 c 128,-1,137
 234.236328125 130.883789062 234.236328125 130.883789062 242.48046875 191.57421875 c 128,-1,138
 250.724609375 252.26953125 250.724609375 252.26953125 250.724609375 323.482421875 c 0,139,140
 250.724609375 393.077148438 250.724609375 393.077148438 242.48046875 453.770507812 c 128,-1,141
 234.236328125 514.46484375 234.236328125 514.46484375 219.658203125 559.783203125 c 128,-1,142
 205.075195312 605.098632812 205.075195312 605.098632812 186.051757812 630.185546875 c 128,-1,143
 167.034179688 655.2734375 167.034179688 655.2734375 145.475585938 655.2734375 c 256,124,125
EndSplineSet
EndChar

StartChar: colon.deva
Encoding: 58 58 26
Width: 926
Flags: W
LayerCount: 2
Fore
SplineSet
463 414 m 256,0,1
 437 414 437 414 419 430 c 128,-1,2
 401 446 401 446 401 482 c 0,3,4
 401 520 401 520 419 535 c 128,-1,5
 437 550 437 550 463 550 c 256,6,7
 489 550 489 550 507 535 c 128,-1,8
 525 520 525 520 525 482 c 0,9,10
 525 446 525 446 507 430 c 128,-1,11
 489 414 489 414 463 414 c 256,0,1
463 -14 m 256,12,13
 437 -14 437 -14 419 2 c 128,-1,14
 401 18 401 18 401 54 c 0,15,16
 401 92 401 92 419 107 c 128,-1,17
 437 122 437 122 463 122 c 256,18,19
 489 122 489 122 507 107 c 128,-1,20
 525 92 525 92 525 54 c 0,21,22
 525 18 525 18 507 2 c 128,-1,23
 489 -14 489 -14 463 -14 c 256,12,13
EndSplineSet
EndChar

StartChar: semicolon.deva
Encoding: 59 59 27
Width: 926
Flags: W
LayerCount: 2
Fore
SplineSet
526.5 116 m 1,0,-1
 533.5 105 l 1,1,2
 524.5 70 524.5 70 510.5 29.5 c 128,-1,3
 496.5 -11 496.5 -11 480.5 -51.5 c 128,-1,4
 464.5 -92 464.5 -92 447.5 -129 c 1,5,-1
 380.5 -129 l 1,6,7
 390.5 -89 390.5 -89 400 -45.5 c 128,-1,8
 409.5 -2 409.5 -2 417 40 c 128,-1,9
 424.5 82 424.5 82 429.5 116 c 1,10,-1
 526.5 116 l 1,0,-1
483.5 414 m 256,11,12
 457.5 414 457.5 414 439.5 430 c 128,-1,13
 421.5 446 421.5 446 421.5 482 c 0,14,15
 421.5 520 421.5 520 439.5 535 c 128,-1,16
 457.5 550 457.5 550 483.5 550 c 256,17,18
 509.5 550 509.5 550 527.5 535 c 128,-1,19
 545.5 520 545.5 520 545.5 482 c 0,20,21
 545.5 446 545.5 446 527.5 430 c 128,-1,22
 509.5 414 509.5 414 483.5 414 c 256,11,12
EndSplineSet
EndChar

StartChar: less.deva
Encoding: 60 60 28
Width: 926
Flags: W
LayerCount: 2
Fore
SplineSet
237.5 284 m 1,0,-1
 237.5 333 l 1,1,-1
 688.5 568 l 1,2,-1
 688.5 490 l 1,3,-1
 329.5 313 l 1,4,-1
 688.5 155 l 1,5,-1
 688.5 77 l 1,6,-1
 237.5 284 l 1,0,-1
EndSplineSet
EndChar

StartChar: equal.deva
Encoding: 61 61 29
Width: 926
Flags: W
LayerCount: 2
Fore
SplineSet
237.5 459 m 1,0,-1
 688.5 459 l 1,1,-1
 688.5 386 l 1,2,-1
 237.5 386 l 1,3,-1
 237.5 459 l 1,0,-1
237.5 259 m 1,4,-1
 688.5 259 l 1,5,-1
 688.5 186 l 1,6,-1
 237.5 186 l 1,7,-1
 237.5 259 l 1,4,-1
EndSplineSet
EndChar

StartChar: greater.deva
Encoding: 62 62 30
Width: 926
Flags: W
LayerCount: 2
Fore
SplineSet
237.5 155 m 1,0,-1
 596.5 313 l 1,1,-1
 237.5 490 l 1,2,-1
 237.5 568 l 1,3,-1
 688.5 333 l 1,4,-1
 688.5 284 l 1,5,-1
 237.5 77 l 1,6,-1
 237.5 155 l 1,0,-1
EndSplineSet
EndChar

StartChar: question.deva
Encoding: 63 63 31
Width: 926
Flags: W
LayerCount: 2
Fore
SplineSet
394.5 202 m 1,0,-1
 394.5 220 l 2,1,2
 394.5 258 394.5 258 401.5 285.5 c 128,-1,3
 408.5 313 408.5 313 427 338 c 128,-1,4
 445.5 363 445.5 363 477.5 390 c 0,5,6
 508.5 417 508.5 417 528 438 c 128,-1,7
 547.5 459 547.5 459 556.5 483 c 128,-1,8
 565.5 507 565.5 507 565.5 541 c 0,9,10
 565.5 588 565.5 588 537 617 c 128,-1,11
 508.5 646 508.5 646 454.5 646 c 0,12,13
 414.5 646 414.5 646 377.5 633.5 c 128,-1,14
 340.5 621 340.5 621 306.5 604 c 1,15,-1
 275.5 675 l 1,16,17
 315.5 695 315.5 695 361.5 709.5 c 128,-1,18
 407.5 724 407.5 724 454.5 724 c 0,19,20
 545.5 724 545.5 724 598 676 c 128,-1,21
 650.5 628 650.5 628 650.5 542 c 0,22,23
 650.5 499 650.5 499 639 467 c 128,-1,24
 627.5 435 627.5 435 604 408 c 128,-1,25
 580.5 381 580.5 381 545.5 350 c 0,26,27
 512.5 321 512.5 321 494.5 300.5 c 128,-1,28
 476.5 280 476.5 280 469.5 260 c 128,-1,29
 462.5 240 462.5 240 462.5 211 c 2,30,-1
 462.5 202 l 1,31,-1
 394.5 202 l 1,0,-1
371.5 54 m 0,32,33
 371.5 92 371.5 92 389.5 107 c 128,-1,34
 407.5 122 407.5 122 433.5 122 c 256,35,36
 459.5 122 459.5 122 477.5 107 c 128,-1,37
 495.5 92 495.5 92 495.5 54 c 0,38,39
 495.5 18 495.5 18 477.5 2 c 128,-1,40
 459.5 -14 459.5 -14 433.5 -14 c 256,41,42
 407.5 -14 407.5 -14 389.5 2 c 128,-1,43
 371.5 18 371.5 18 371.5 54 c 0,32,33
EndSplineSet
EndChar

StartChar: bracketleft.deva
Encoding: 91 91 32
Width: 926
Flags: W
LayerCount: 2
Fore
SplineSet
575 -158 m 1,0,-1
 351 -158 l 1,1,-1
 351 714 l 1,2,-1
 575 714 l 1,3,-1
 575 642 l 1,4,-1
 437 642 l 1,5,-1
 437 -86 l 1,6,-1
 575 -86 l 1,7,-1
 575 -158 l 1,0,-1
EndSplineSet
EndChar

StartChar: backslash.deva
Encoding: 92 92 33
Width: 926
Flags: W
LayerCount: 2
Fore
SplineSet
372.5 714 m 1,0,-1
 639.5 0 l 1,1,-1
 552.5 0 l 1,2,-1
 286.5 714 l 1,3,-1
 372.5 714 l 1,0,-1
EndSplineSet
EndChar

StartChar: bracketright.deva
Encoding: 93 93 34
Width: 926
Flags: W
LayerCount: 2
Fore
SplineSet
351 -86 m 1,0,-1
 489 -86 l 1,1,-1
 489 642 l 1,2,-1
 351 642 l 1,3,-1
 351 714 l 1,4,-1
 575 714 l 1,5,-1
 575 -158 l 1,6,-1
 351 -158 l 1,7,-1
 351 -86 l 1,0,-1
EndSplineSet
EndChar

StartChar: asciicircum.deva
Encoding: 94 94 35
Width: 926
Flags: W
LayerCount: 2
Fore
SplineSet
215 267 m 1,0,-1
 427 719 l 1,1,-1
 477 719 l 1,2,-1
 711 267 l 1,3,-1
 633 267 l 1,4,-1
 453 626 l 1,5,-1
 293 267 l 1,6,-1
 215 267 l 1,0,-1
EndSplineSet
EndChar

StartChar: underscore.deva
Encoding: 95 95 36
Width: 926
Flags: W
LayerCount: 2
Fore
SplineSet
687 -154 m 1,0,-1
 239 -154 l 1,1,-1
 239 -90 l 1,2,-1
 687 -90 l 1,3,-1
 687 -154 l 1,0,-1
EndSplineSet
EndChar

StartChar: braceleft.deva
Encoding: 123 123 37
Width: 926
Flags: W
LayerCount: 2
Fore
SplineSet
316.5 370 m 1,0,1
 356.5 370 356.5 370 384 379 c 128,-1,2
 411.5 388 411.5 388 425.5 408 c 128,-1,3
 439.5 428 439.5 428 439.5 460 c 2,4,-1
 439.5 691 l 2,5,6
 439.5 741 439.5 741 461.5 771.5 c 128,-1,7
 483.5 802 483.5 802 522 816.5 c 128,-1,8
 560.5 831 560.5 831 609.5 832 c 1,9,-1
 609.5 760 l 1,10,11
 582.5 760 582.5 760 562.5 753.5 c 128,-1,12
 542.5 747 542.5 747 531.5 731.5 c 128,-1,13
 520.5 716 520.5 716 520.5 685 c 2,14,-1
 520.5 455 l 2,15,16
 520.5 405 520.5 405 493.5 375.5 c 128,-1,17
 466.5 346 466.5 346 414.5 335 c 1,18,-1
 414.5 330 l 1,19,20
 466.5 320 466.5 320 493.5 291 c 128,-1,21
 520.5 262 520.5 262 520.5 211 c 2,22,-1
 520.5 -18 l 2,23,24
 520.5 -49 520.5 -49 531.5 -65 c 128,-1,25
 542.5 -81 542.5 -81 562.5 -87 c 128,-1,26
 582.5 -93 582.5 -93 609.5 -94 c 1,27,-1
 609.5 -166 l 1,28,29
 560.5 -165 560.5 -165 522 -150.5 c 128,-1,30
 483.5 -136 483.5 -136 461.5 -105.5 c 128,-1,31
 439.5 -75 439.5 -75 439.5 -25 c 2,32,-1
 439.5 206 l 2,33,34
 439.5 239 439.5 239 425.5 258.5 c 128,-1,35
 411.5 278 411.5 278 384 287 c 128,-1,36
 356.5 296 356.5 296 316.5 296 c 1,37,-1
 316.5 370 l 1,0,1
EndSplineSet
EndChar

StartChar: bar.deva
Encoding: 124 124 38
Width: 926
Flags: W
LayerCount: 2
Fore
SplineSet
427 832 m 1,0,-1
 499 832 l 1,1,-1
 499 -166 l 1,2,-1
 427 -166 l 1,3,-1
 427 832 l 1,0,-1
EndSplineSet
EndChar

StartChar: braceright.deva
Encoding: 125 125 39
Width: 926
Flags: W
LayerCount: 2
Fore
SplineSet
609.5 296 m 1,0,1
 569.5 296 569.5 296 542.5 287 c 128,-1,2
 515.5 278 515.5 278 501.5 258.5 c 128,-1,3
 487.5 239 487.5 239 487.5 206 c 2,4,-1
 487.5 -25 l 2,5,6
 487.5 -75 487.5 -75 465 -105.5 c 128,-1,7
 442.5 -136 442.5 -136 404 -150.5 c 128,-1,8
 365.5 -165 365.5 -165 316.5 -166 c 1,9,-1
 316.5 -94 l 1,10,11
 344.5 -93 344.5 -93 364.5 -87 c 128,-1,12
 384.5 -81 384.5 -81 395 -65 c 128,-1,13
 405.5 -49 405.5 -49 405.5 -18 c 2,14,-1
 405.5 211 l 2,15,16
 405.5 262 405.5 262 432.5 291 c 128,-1,17
 459.5 320 459.5 320 511.5 330 c 1,18,-1
 511.5 335 l 1,19,20
 459.5 346 459.5 346 432.5 375.5 c 128,-1,21
 405.5 405 405.5 405 405.5 455 c 2,22,-1
 405.5 685 l 2,23,24
 405.5 716 405.5 716 395 731.5 c 128,-1,25
 384.5 747 384.5 747 364.5 753.5 c 128,-1,26
 344.5 760 344.5 760 316.5 760 c 1,27,-1
 316.5 832 l 1,28,29
 365.5 831 365.5 831 404 816.5 c 128,-1,30
 442.5 802 442.5 802 465 771.5 c 128,-1,31
 487.5 741 487.5 741 487.5 691 c 2,32,-1
 487.5 460 l 2,33,34
 487.5 428 487.5 428 501.5 408 c 128,-1,35
 515.5 388 515.5 388 542.5 379 c 128,-1,36
 569.5 370 569.5 370 609.5 370 c 1,37,-1
 609.5 296 l 1,0,1
EndSplineSet
EndChar

StartChar: asciitilde.deva
Encoding: 126 126 40
Width: 926
Flags: W
LayerCount: 2
Fore
SplineSet
237.5 335 m 1,0,1
 262.5 362 262.5 362 292.5 375 c 128,-1,2
 322.5 388 322.5 388 358.5 388 c 0,3,4
 377.5 388 377.5 388 393.5 385.5 c 128,-1,5
 409.5 383 409.5 383 429.5 376.5 c 128,-1,6
 449.5 370 449.5 370 479.5 357 c 0,7,8
 516.5 341 516.5 341 536.5 335.5 c 128,-1,9
 556.5 330 556.5 330 577.5 330 c 0,10,11
 605.5 330 605.5 330 635.5 347 c 128,-1,12
 665.5 364 665.5 364 688.5 389 c 1,13,-1
 688.5 310 l 1,14,15
 664.5 284 664.5 284 634 270.5 c 128,-1,16
 603.5 257 603.5 257 567.5 257 c 0,17,18
 548.5 257 548.5 257 532.5 259.5 c 128,-1,19
 516.5 262 516.5 262 497 268.5 c 128,-1,20
 477.5 275 477.5 275 446.5 288 c 0,21,22
 410.5 304 410.5 304 391 309.5 c 128,-1,23
 371.5 315 371.5 315 348.5 315 c 0,24,25
 321.5 315 321.5 315 291.5 298 c 128,-1,26
 261.5 281 261.5 281 237.5 256 c 1,27,-1
 237.5 335 l 1,0,1
EndSplineSet
EndChar

StartChar: A
Encoding: 65 65 42
Width: 926
Flags: W
LayerCount: 2
Fore
SplineSet
599.5 -116 m 4,0,1
 599.5 -138 599.5 -138 611.5 -149.5 c 132,-1,2
 623.5 -161 623.5 -161 644.5 -161 c 4,3,4
 661.5 -161 661.5 -161 673 -158.5 c 132,-1,5
 684.5 -156 684.5 -156 692.5 -155 c 5,6,-1
 692.5 -211 l 5,7,8
 678.5 -215 678.5 -215 664.5 -217.5 c 132,-1,9
 650.5 -220 650.5 -220 630.5 -220 c 4,10,11
 577.5 -220 577.5 -220 552.5 -195 c 132,-1,12
 527.5 -170 527.5 -170 527.5 -126 c 4,13,14
 527.5 -97 527.5 -97 542 -70 c 132,-1,15
 556.5 -43 556.5 -43 578 -21 c 132,-1,16
 599.5 1 599.5 1 619.5 15 c 5,17,-1
 667.5 0 l 5,18,19
 633.5 -32 633.5 -32 616.5 -58.5 c 132,-1,20
 599.5 -85 599.5 -85 599.5 -116 c 4,0,1
475.5 545 m 0,21,22
 573.5 545 573.5 545 620.5 502 c 128,-1,23
 667.5 459 667.5 459 667.5 365 c 2,24,-1
 667.5 0 l 5,25,-1
 603.5 0 l 5,26,-1
 586.5 76 l 1,27,-1
 582.5 76 l 1,28,29
 559.5 47 559.5 47 535 27.5 c 128,-1,30
 510.5 8 510.5 8 479 -1 c 128,-1,31
 447.5 -10 447.5 -10 402.5 -10 c 0,32,33
 354.5 -10 354.5 -10 316 7 c 128,-1,34
 277.5 24 277.5 24 255.5 59.5 c 128,-1,35
 233.5 95 233.5 95 233.5 149 c 0,36,37
 233.5 229 233.5 229 296.5 272.5 c 128,-1,38
 359.5 316 359.5 316 490.5 320 c 2,39,-1
 581.5 323 l 1,40,-1
 581.5 355 l 2,41,42
 581.5 422 581.5 422 552.5 448 c 128,-1,43
 523.5 474 523.5 474 470.5 474 c 0,44,45
 428.5 474 428.5 474 390.5 461.5 c 128,-1,46
 352.5 449 352.5 449 319.5 433 c 1,47,-1
 292.5 499 l 1,48,49
 327.5 518 327.5 518 375.5 531.5 c 128,-1,50
 423.5 545 423.5 545 475.5 545 c 0,21,22
501.5 259 m 2,51,52
 401.5 255 401.5 255 363 227 c 128,-1,53
 324.5 199 324.5 199 324.5 148 c 0,54,55
 324.5 103 324.5 103 352 82 c 128,-1,56
 379.5 61 379.5 61 422.5 61 c 0,57,58
 490.5 61 490.5 61 535.5 98.5 c 128,-1,59
 580.5 136 580.5 136 580.5 214 c 2,60,-1
 580.5 262 l 1,61,-1
 501.5 259 l 2,51,52
EndSplineSet
EndChar

StartChar: B
Encoding: 66 66 43
Width: 926
Flags: W
LayerCount: 2
Fore
SplineSet
780.51953125 655.2734375 m 256,0,1
 758.96484375 655.2734375 758.96484375 655.2734375 739.30859375 630.185546875 c 128,-1,2
 719.655273438 605.098632812 719.655273438 605.098632812 705.708984375 559.783203125 c 128,-1,3
 691.759765625 514.46484375 691.759765625 514.46484375 683.516601562 453.770507812 c 128,-1,4
 675.275390625 393.077148438 675.275390625 393.077148438 675.275390625 323.482421875 c 0,5,6
 675.275390625 252.26953125 675.275390625 252.26953125 683.516601562 191.57421875 c 128,-1,7
 691.759765625 130.883789062 691.759765625 130.883789062 705.708984375 86.375 c 128,-1,8
 719.655273438 41.8642578125 719.655273438 41.8642578125 739.30859375 15.96875 c 128,-1,9
 758.96484375 -9.9248046875 758.96484375 -9.9248046875 780.51953125 -9.9248046875 c 256,10,11
 802.077148438 -9.9248046875 802.077148438 -9.9248046875 821.09765625 15.96875 c 128,-1,12
 840.120117188 41.8642578125 840.120117188 41.8642578125 854.703125 86.375 c 128,-1,13
 869.28125 130.883789062 869.28125 130.883789062 877.524414062 191.57421875 c 128,-1,14
 885.768554688 252.26953125 885.768554688 252.26953125 885.768554688 323.482421875 c 0,15,16
 885.768554688 393.077148438 885.768554688 393.077148438 877.524414062 453.770507812 c 128,-1,17
 869.28125 514.46484375 869.28125 514.46484375 854.703125 559.783203125 c 128,-1,18
 840.120117188 605.098632812 840.120117188 605.098632812 821.09765625 630.185546875 c 128,-1,19
 802.077148438 655.2734375 802.077148438 655.2734375 780.51953125 655.2734375 c 256,0,1
778.483398438 597.200195312 m 0,20,21
 789.838867188 596.94140625 789.838867188 596.94140625 799.541992188 576.907226562 c 0,22,23
 809.880859375 556.34765625 809.880859375 556.34765625 816.48828125 520.291015625 c 0,24,25
 823.66015625 484.387695312 823.66015625 484.387695312 827.786132812 434.8359375 c 0,26,27
 832.427734375 385.672851562 832.427734375 385.672851562 831.893554688 330.15234375 c 0,28,29
 832.427734375 272.196289062 832.427734375 272.196289062 827.786132812 224.399414062 c 0,30,31
 823.66015625 176.247070312 823.66015625 176.247070312 816.48828125 140.010742188 c 0,32,33
 809.880859375 103.366210938 809.880859375 103.366210938 799.541992188 83.3974609375 c 0,34,35
 789.838867188 62.7705078125 789.838867188 62.7705078125 778.483398438 63.1005859375 c 0,36,37
 768.546875 62.7705078125 768.546875 62.7705078125 757.942382812 83.3974609375 c 0,38,39
 747.252929688 103.366210938 747.252929688 103.366210938 740.481445312 140.010742188 c 0,40,41
 733.474609375 176.247070312 733.474609375 176.247070312 729.182617188 224.399414062 c 0,42,43
 724.70703125 272.196289062 724.70703125 272.196289062 725.075195312 330.15234375 c 0,44,45
 724.70703125 385.672851562 724.70703125 385.672851562 729.182617188 434.8359375 c 0,46,47
 733.474609375 484.387695312 733.474609375 484.387695312 740.481445312 520.291015625 c 0,48,49
 747.252929688 556.34765625 747.252929688 556.34765625 757.942382812 576.907226562 c 0,50,51
 768.546875 596.94140625 768.546875 596.94140625 778.483398438 597.200195312 c 0,20,21
568.837890625 655.2734375 m 256,52,53
 547.284179688 655.2734375 547.284179688 655.2734375 527.627929688 630.185546875 c 128,-1,54
 507.973632812 605.098632812 507.973632812 605.098632812 494.028320312 559.783203125 c 128,-1,55
 480.077148438 514.46484375 480.077148438 514.46484375 471.8359375 453.770507812 c 128,-1,56
 463.594726562 393.077148438 463.594726562 393.077148438 463.594726562 323.482421875 c 0,57,58
 463.594726562 252.26953125 463.594726562 252.26953125 471.8359375 191.57421875 c 128,-1,59
 480.077148438 130.883789062 480.077148438 130.883789062 494.028320312 86.375 c 128,-1,60
 507.973632812 41.8642578125 507.973632812 41.8642578125 527.627929688 15.96875 c 128,-1,61
 547.284179688 -9.9248046875 547.284179688 -9.9248046875 568.837890625 -9.9248046875 c 256,62,63
 590.396484375 -9.9248046875 590.396484375 -9.9248046875 609.415039062 15.96875 c 128,-1,64
 628.4375 41.8642578125 628.4375 41.8642578125 643.021484375 86.375 c 128,-1,65
 657.599609375 130.883789062 657.599609375 130.883789062 665.842773438 191.57421875 c 128,-1,66
 674.087890625 252.26953125 674.087890625 252.26953125 674.087890625 323.482421875 c 0,67,68
 674.087890625 393.077148438 674.087890625 393.077148438 665.842773438 453.770507812 c 128,-1,69
 657.599609375 514.46484375 657.599609375 514.46484375 643.021484375 559.783203125 c 128,-1,70
 628.4375 605.098632812 628.4375 605.098632812 609.415039062 630.185546875 c 128,-1,71
 590.396484375 655.2734375 590.396484375 655.2734375 568.837890625 655.2734375 c 256,52,53
566.802734375 597.200195312 m 0,72,73
 578.158203125 596.94140625 578.158203125 596.94140625 587.860351562 576.907226562 c 0,74,75
 598.200195312 556.34765625 598.200195312 556.34765625 604.807617188 520.291015625 c 0,76,77
 611.977539062 484.387695312 611.977539062 484.387695312 616.103515625 434.8359375 c 0,78,79
 620.74609375 385.672851562 620.74609375 385.672851562 620.211914062 330.15234375 c 0,80,81
 620.74609375 272.196289062 620.74609375 272.196289062 616.103515625 224.399414062 c 0,82,83
 611.977539062 176.247070312 611.977539062 176.247070312 604.807617188 140.010742188 c 0,84,85
 598.200195312 103.366210938 598.200195312 103.366210938 587.860351562 83.3974609375 c 0,86,87
 578.158203125 62.7705078125 578.158203125 62.7705078125 566.802734375 63.1005859375 c 0,88,89
 556.866210938 62.7705078125 556.866210938 62.7705078125 546.260742188 83.3974609375 c 0,90,91
 535.5703125 103.366210938 535.5703125 103.366210938 528.80078125 140.010742188 c 0,92,93
 521.793945312 176.247070312 521.793945312 176.247070312 517.501953125 224.399414062 c 0,94,95
 513.026367188 272.196289062 513.026367188 272.196289062 513.393554688 330.15234375 c 0,96,97
 513.026367188 385.672851562 513.026367188 385.672851562 517.501953125 434.8359375 c 0,98,99
 521.793945312 484.387695312 521.793945312 484.387695312 528.80078125 520.291015625 c 0,100,101
 535.5703125 556.34765625 535.5703125 556.34765625 546.260742188 576.907226562 c 0,102,103
 556.866210938 596.94140625 556.866210938 596.94140625 566.802734375 597.200195312 c 0,72,73
357.157226562 655.2734375 m 256,104,105
 335.602539062 655.2734375 335.602539062 655.2734375 315.947265625 630.185546875 c 128,-1,106
 296.291992188 605.098632812 296.291992188 605.098632812 282.345703125 559.783203125 c 128,-1,107
 268.396484375 514.46484375 268.396484375 514.46484375 260.154296875 453.770507812 c 128,-1,108
 251.913085938 393.077148438 251.913085938 393.077148438 251.913085938 323.482421875 c 0,109,110
 251.913085938 252.26953125 251.913085938 252.26953125 260.154296875 191.57421875 c 128,-1,111
 268.396484375 130.883789062 268.396484375 130.883789062 282.345703125 86.375 c 128,-1,112
 296.291992188 41.8642578125 296.291992188 41.8642578125 315.947265625 15.96875 c 128,-1,113
 335.602539062 -9.9248046875 335.602539062 -9.9248046875 357.157226562 -9.9248046875 c 256,114,115
 378.71484375 -9.9248046875 378.71484375 -9.9248046875 397.734375 15.96875 c 128,-1,116
 416.756835938 41.8642578125 416.756835938 41.8642578125 431.33984375 86.375 c 128,-1,117
 445.916992188 130.883789062 445.916992188 130.883789062 454.162109375 191.57421875 c 128,-1,118
 462.405273438 252.26953125 462.405273438 252.26953125 462.405273438 323.482421875 c 0,119,120
 462.405273438 393.077148438 462.405273438 393.077148438 454.162109375 453.770507812 c 128,-1,121
 445.916992188 514.46484375 445.916992188 514.46484375 431.33984375 559.783203125 c 128,-1,122
 416.756835938 605.098632812 416.756835938 605.098632812 397.734375 630.185546875 c 128,-1,123
 378.71484375 655.2734375 378.71484375 655.2734375 357.157226562 655.2734375 c 256,104,105
145.475585938 655.2734375 m 256,124,125
 123.921875 655.2734375 123.921875 655.2734375 104.265625 630.185546875 c 128,-1,126
 84.611328125 605.098632812 84.611328125 605.098632812 70.6650390625 559.783203125 c 128,-1,127
 56.71484375 514.46484375 56.71484375 514.46484375 48.4736328125 453.770507812 c 128,-1,128
 40.2314453125 393.077148438 40.2314453125 393.077148438 40.2314453125 323.482421875 c 0,129,130
 40.2314453125 252.26953125 40.2314453125 252.26953125 48.4736328125 191.57421875 c 128,-1,131
 56.71484375 130.883789062 56.71484375 130.883789062 70.6650390625 86.375 c 128,-1,132
 84.611328125 41.8642578125 84.611328125 41.8642578125 104.265625 15.96875 c 128,-1,133
 123.921875 -9.9248046875 123.921875 -9.9248046875 145.475585938 -9.9248046875 c 256,134,135
 167.034179688 -9.9248046875 167.034179688 -9.9248046875 186.051757812 15.96875 c 128,-1,136
 205.075195312 41.8642578125 205.075195312 41.8642578125 219.658203125 86.375 c 128,-1,137
 234.236328125 130.883789062 234.236328125 130.883789062 242.48046875 191.57421875 c 128,-1,138
 250.724609375 252.26953125 250.724609375 252.26953125 250.724609375 323.482421875 c 0,139,140
 250.724609375 393.077148438 250.724609375 393.077148438 242.48046875 453.770507812 c 128,-1,141
 234.236328125 514.46484375 234.236328125 514.46484375 219.658203125 559.783203125 c 128,-1,142
 205.075195312 605.098632812 205.075195312 605.098632812 186.051757812 630.185546875 c 128,-1,143
 167.034179688 655.2734375 167.034179688 655.2734375 145.475585938 655.2734375 c 256,124,125
EndSplineSet
EndChar

StartChar: C
Encoding: 67 67 44
Width: 926
Flags: W
AnchorPoint: "Anchor-7" 469 268 basechar 0
AnchorPoint: "Anchor-6" 678 536 basechar 0
AnchorPoint: "Anchor-5" 499 0 basechar 0
AnchorPoint: "Anchor-4" 502 737 basechar 0
LayerCount: 2
Fore
SplineSet
503 737 m 4,0,1
 523 737 523 737 538.5 723.5 c 132,-1,2
 554 710 554 710 554 681 c 4,3,4
 554 653 554 653 538.5 639 c 132,-1,5
 523 625 523 625 503 625 c 4,6,7
 481 625 481 625 466 639 c 132,-1,8
 451 653 451 653 451 681 c 4,9,10
 451 710 451 710 466 723.5 c 132,-1,11
 481 737 481 737 503 737 c 4,0,1
519 -10 m 0,12,13
 401 -10 401 -10 336 57 c 128,-1,14
 271 124 271 124 271 245 c 0,15,16
 271 325 271 325 300 380.5 c 128,-1,17
 329 436 329 436 383 465 c 1,18,-1
 250 465 l 1,19,-1
 250 537 l 1,20,-1
 676 537 l 1,21,-1
 676 465 l 1,22,-1
 563 465 l 2,23,24
 469 465 469 465 415.5 411.5 c 128,-1,25
 362 358 362 358 362 252 c 0,26,27
 362 165 362 165 405 114.5 c 128,-1,28
 448 64 448 64 528 64 c 0,29,30
 565 64 565 64 599 73.5 c 128,-1,31
 633 83 633 83 665 99 c 1,32,-1
 665 21 l 1,33,34
 636 5 636 5 601 -2.5 c 128,-1,35
 566 -10 566 -10 519 -10 c 0,12,13
EndSplineSet
EndChar

StartChar: D
Encoding: 68 68 45
Width: 926
Flags: W
AnchorPoint: "Anchor-7" 478.5 268 basechar 0
AnchorPoint: "Anchor-6" 723.5 760 basechar 0
AnchorPoint: "Anchor-5" 462.5 0 basechar 0
AnchorPoint: "Anchor-4" 445.5 760 basechar 0
LayerCount: 2
Fore
SplineSet
274.5 238 m 1,0,-1
 274.5 303 l 1,1,-1
 650.5 303 l 1,2,-1
 650.5 238 l 1,3,-1
 274.5 238 l 1,0,-1
445.5 -10 m 0,4,5
 345.5 -10 345.5 -10 285.5 59.5 c 128,-1,6
 225.5 129 225.5 129 225.5 267 c 256,7,8
 225.5 405 225.5 405 286 475.5 c 128,-1,9
 346.5 546 346.5 546 446.5 546 c 0,10,11
 488.5 546 488.5 546 519.5 535.5 c 128,-1,12
 550.5 525 550.5 525 573.5 507 c 128,-1,13
 596.5 489 596.5 489 612.5 467 c 1,14,-1
 618.5 467 l 1,15,16
 617.5 480 617.5 480 615 505.5 c 128,-1,17
 612.5 531 612.5 531 612.5 546 c 2,18,-1
 612.5 760 l 1,19,-1
 700.5 760 l 1,20,-1
 700.5 0 l 1,21,-1
 629.5 0 l 1,22,-1
 616.5 72 l 1,23,-1
 612.5 72 l 1,24,25
 596.5 49 596.5 49 573.5 30.5 c 128,-1,26
 550.5 12 550.5 12 519 1 c 128,-1,27
 487.5 -10 487.5 -10 445.5 -10 c 0,4,5
459.5 63 m 0,28,29
 544.5 63 544.5 63 579 109.5 c 128,-1,30
 613.5 156 613.5 156 613.5 250 c 2,31,-1
 613.5 266 l 2,32,33
 613.5 366 613.5 366 580.5 419.5 c 128,-1,34
 547.5 473 547.5 473 458.5 473 c 0,35,36
 387.5 473 387.5 473 352 416.5 c 128,-1,37
 316.5 360 316.5 360 316.5 265 c 0,38,39
 316.5 169 316.5 169 352 116 c 128,-1,40
 387.5 63 387.5 63 459.5 63 c 0,28,29
EndSplineSet
EndChar

StartChar: E
Encoding: 69 69 46
Width: 926
Flags: W
LayerCount: 2
Fore
SplineSet
780.51953125 655.2734375 m 256,0,1
 758.96484375 655.2734375 758.96484375 655.2734375 739.30859375 630.185546875 c 128,-1,2
 719.655273438 605.098632812 719.655273438 605.098632812 705.708984375 559.783203125 c 128,-1,3
 691.759765625 514.46484375 691.759765625 514.46484375 683.516601562 453.770507812 c 128,-1,4
 675.275390625 393.077148438 675.275390625 393.077148438 675.275390625 323.482421875 c 0,5,6
 675.275390625 252.26953125 675.275390625 252.26953125 683.516601562 191.57421875 c 128,-1,7
 691.759765625 130.883789062 691.759765625 130.883789062 705.708984375 86.375 c 128,-1,8
 719.655273438 41.8642578125 719.655273438 41.8642578125 739.30859375 15.96875 c 128,-1,9
 758.96484375 -9.9248046875 758.96484375 -9.9248046875 780.51953125 -9.9248046875 c 256,10,11
 802.077148438 -9.9248046875 802.077148438 -9.9248046875 821.09765625 15.96875 c 128,-1,12
 840.120117188 41.8642578125 840.120117188 41.8642578125 854.703125 86.375 c 128,-1,13
 869.28125 130.883789062 869.28125 130.883789062 877.524414062 191.57421875 c 128,-1,14
 885.768554688 252.26953125 885.768554688 252.26953125 885.768554688 323.482421875 c 0,15,16
 885.768554688 393.077148438 885.768554688 393.077148438 877.524414062 453.770507812 c 128,-1,17
 869.28125 514.46484375 869.28125 514.46484375 854.703125 559.783203125 c 128,-1,18
 840.120117188 605.098632812 840.120117188 605.098632812 821.09765625 630.185546875 c 128,-1,19
 802.077148438 655.2734375 802.077148438 655.2734375 780.51953125 655.2734375 c 256,0,1
778.483398438 597.200195312 m 0,20,21
 789.838867188 596.94140625 789.838867188 596.94140625 799.541992188 576.907226562 c 0,22,23
 809.880859375 556.34765625 809.880859375 556.34765625 816.48828125 520.291015625 c 0,24,25
 823.66015625 484.387695312 823.66015625 484.387695312 827.786132812 434.8359375 c 0,26,27
 832.427734375 385.672851562 832.427734375 385.672851562 831.893554688 330.15234375 c 0,28,29
 832.427734375 272.196289062 832.427734375 272.196289062 827.786132812 224.399414062 c 0,30,31
 823.66015625 176.247070312 823.66015625 176.247070312 816.48828125 140.010742188 c 0,32,33
 809.880859375 103.366210938 809.880859375 103.366210938 799.541992188 83.3974609375 c 0,34,35
 789.838867188 62.7705078125 789.838867188 62.7705078125 778.483398438 63.1005859375 c 0,36,37
 768.546875 62.7705078125 768.546875 62.7705078125 757.942382812 83.3974609375 c 0,38,39
 747.252929688 103.366210938 747.252929688 103.366210938 740.481445312 140.010742188 c 0,40,41
 733.474609375 176.247070312 733.474609375 176.247070312 729.182617188 224.399414062 c 0,42,43
 724.70703125 272.196289062 724.70703125 272.196289062 725.075195312 330.15234375 c 0,44,45
 724.70703125 385.672851562 724.70703125 385.672851562 729.182617188 434.8359375 c 0,46,47
 733.474609375 484.387695312 733.474609375 484.387695312 740.481445312 520.291015625 c 0,48,49
 747.252929688 556.34765625 747.252929688 556.34765625 757.942382812 576.907226562 c 0,50,51
 768.546875 596.94140625 768.546875 596.94140625 778.483398438 597.200195312 c 0,20,21
568.837890625 655.2734375 m 256,52,53
 547.284179688 655.2734375 547.284179688 655.2734375 527.627929688 630.185546875 c 128,-1,54
 507.973632812 605.098632812 507.973632812 605.098632812 494.028320312 559.783203125 c 128,-1,55
 480.077148438 514.46484375 480.077148438 514.46484375 471.8359375 453.770507812 c 128,-1,56
 463.594726562 393.077148438 463.594726562 393.077148438 463.594726562 323.482421875 c 0,57,58
 463.594726562 252.26953125 463.594726562 252.26953125 471.8359375 191.57421875 c 128,-1,59
 480.077148438 130.883789062 480.077148438 130.883789062 494.028320312 86.375 c 128,-1,60
 507.973632812 41.8642578125 507.973632812 41.8642578125 527.627929688 15.96875 c 128,-1,61
 547.284179688 -9.9248046875 547.284179688 -9.9248046875 568.837890625 -9.9248046875 c 256,62,63
 590.396484375 -9.9248046875 590.396484375 -9.9248046875 609.415039062 15.96875 c 128,-1,64
 628.4375 41.8642578125 628.4375 41.8642578125 643.021484375 86.375 c 128,-1,65
 657.599609375 130.883789062 657.599609375 130.883789062 665.842773438 191.57421875 c 128,-1,66
 674.087890625 252.26953125 674.087890625 252.26953125 674.087890625 323.482421875 c 0,67,68
 674.087890625 393.077148438 674.087890625 393.077148438 665.842773438 453.770507812 c 128,-1,69
 657.599609375 514.46484375 657.599609375 514.46484375 643.021484375 559.783203125 c 128,-1,70
 628.4375 605.098632812 628.4375 605.098632812 609.415039062 630.185546875 c 128,-1,71
 590.396484375 655.2734375 590.396484375 655.2734375 568.837890625 655.2734375 c 256,52,53
357.157226562 655.2734375 m 256,72,73
 335.602539062 655.2734375 335.602539062 655.2734375 315.947265625 630.185546875 c 128,-1,74
 296.291992188 605.098632812 296.291992188 605.098632812 282.345703125 559.783203125 c 128,-1,75
 268.396484375 514.46484375 268.396484375 514.46484375 260.154296875 453.770507812 c 128,-1,76
 251.913085938 393.077148438 251.913085938 393.077148438 251.913085938 323.482421875 c 0,77,78
 251.913085938 252.26953125 251.913085938 252.26953125 260.154296875 191.57421875 c 128,-1,79
 268.396484375 130.883789062 268.396484375 130.883789062 282.345703125 86.375 c 128,-1,80
 296.291992188 41.8642578125 296.291992188 41.8642578125 315.947265625 15.96875 c 128,-1,81
 335.602539062 -9.9248046875 335.602539062 -9.9248046875 357.157226562 -9.9248046875 c 256,82,83
 378.71484375 -9.9248046875 378.71484375 -9.9248046875 397.734375 15.96875 c 128,-1,84
 416.756835938 41.8642578125 416.756835938 41.8642578125 431.33984375 86.375 c 128,-1,85
 445.916992188 130.883789062 445.916992188 130.883789062 454.162109375 191.57421875 c 128,-1,86
 462.405273438 252.26953125 462.405273438 252.26953125 462.405273438 323.482421875 c 0,87,88
 462.405273438 393.077148438 462.405273438 393.077148438 454.162109375 453.770507812 c 128,-1,89
 445.916992188 514.46484375 445.916992188 514.46484375 431.33984375 559.783203125 c 128,-1,90
 416.756835938 605.098632812 416.756835938 605.098632812 397.734375 630.185546875 c 128,-1,91
 378.71484375 655.2734375 378.71484375 655.2734375 357.157226562 655.2734375 c 256,72,73
145.475585938 655.2734375 m 256,92,93
 123.921875 655.2734375 123.921875 655.2734375 104.265625 630.185546875 c 128,-1,94
 84.611328125 605.098632812 84.611328125 605.098632812 70.6650390625 559.783203125 c 128,-1,95
 56.71484375 514.46484375 56.71484375 514.46484375 48.4736328125 453.770507812 c 128,-1,96
 40.2314453125 393.077148438 40.2314453125 393.077148438 40.2314453125 323.482421875 c 0,97,98
 40.2314453125 252.26953125 40.2314453125 252.26953125 48.4736328125 191.57421875 c 128,-1,99
 56.71484375 130.883789062 56.71484375 130.883789062 70.6650390625 86.375 c 128,-1,100
 84.611328125 41.8642578125 84.611328125 41.8642578125 104.265625 15.96875 c 128,-1,101
 123.921875 -9.9248046875 123.921875 -9.9248046875 145.475585938 -9.9248046875 c 256,102,103
 167.034179688 -9.9248046875 167.034179688 -9.9248046875 186.051757812 15.96875 c 128,-1,104
 205.075195312 41.8642578125 205.075195312 41.8642578125 219.658203125 86.375 c 128,-1,105
 234.236328125 130.883789062 234.236328125 130.883789062 242.48046875 191.57421875 c 128,-1,106
 250.724609375 252.26953125 250.724609375 252.26953125 250.724609375 323.482421875 c 0,107,108
 250.724609375 393.077148438 250.724609375 393.077148438 242.48046875 453.770507812 c 128,-1,109
 234.236328125 514.46484375 234.236328125 514.46484375 219.658203125 559.783203125 c 128,-1,110
 205.075195312 605.098632812 205.075195312 605.098632812 186.051757812 630.185546875 c 128,-1,111
 167.034179688 655.2734375 167.034179688 655.2734375 145.475585938 655.2734375 c 256,92,93
EndSplineSet
EndChar

StartChar: F
Encoding: 70 70 47
Width: 926
Flags: W
LayerCount: 2
Fore
SplineSet
780.51953125 655.2734375 m 256,0,1
 758.96484375 655.2734375 758.96484375 655.2734375 739.30859375 630.185546875 c 128,-1,2
 719.655273438 605.098632812 719.655273438 605.098632812 705.708984375 559.783203125 c 128,-1,3
 691.759765625 514.46484375 691.759765625 514.46484375 683.516601562 453.770507812 c 128,-1,4
 675.275390625 393.077148438 675.275390625 393.077148438 675.275390625 323.482421875 c 0,5,6
 675.275390625 252.26953125 675.275390625 252.26953125 683.516601562 191.57421875 c 128,-1,7
 691.759765625 130.883789062 691.759765625 130.883789062 705.708984375 86.375 c 128,-1,8
 719.655273438 41.8642578125 719.655273438 41.8642578125 739.30859375 15.96875 c 128,-1,9
 758.96484375 -9.9248046875 758.96484375 -9.9248046875 780.51953125 -9.9248046875 c 256,10,11
 802.077148438 -9.9248046875 802.077148438 -9.9248046875 821.09765625 15.96875 c 128,-1,12
 840.120117188 41.8642578125 840.120117188 41.8642578125 854.703125 86.375 c 128,-1,13
 869.28125 130.883789062 869.28125 130.883789062 877.524414062 191.57421875 c 128,-1,14
 885.768554688 252.26953125 885.768554688 252.26953125 885.768554688 323.482421875 c 0,15,16
 885.768554688 393.077148438 885.768554688 393.077148438 877.524414062 453.770507812 c 128,-1,17
 869.28125 514.46484375 869.28125 514.46484375 854.703125 559.783203125 c 128,-1,18
 840.120117188 605.098632812 840.120117188 605.098632812 821.09765625 630.185546875 c 128,-1,19
 802.077148438 655.2734375 802.077148438 655.2734375 780.51953125 655.2734375 c 256,0,1
568.837890625 655.2734375 m 256,20,21
 547.284179688 655.2734375 547.284179688 655.2734375 527.627929688 630.185546875 c 128,-1,22
 507.973632812 605.098632812 507.973632812 605.098632812 494.028320312 559.783203125 c 128,-1,23
 480.077148438 514.46484375 480.077148438 514.46484375 471.8359375 453.770507812 c 128,-1,24
 463.594726562 393.077148438 463.594726562 393.077148438 463.594726562 323.482421875 c 0,25,26
 463.594726562 252.26953125 463.594726562 252.26953125 471.8359375 191.57421875 c 128,-1,27
 480.077148438 130.883789062 480.077148438 130.883789062 494.028320312 86.375 c 128,-1,28
 507.973632812 41.8642578125 507.973632812 41.8642578125 527.627929688 15.96875 c 128,-1,29
 547.284179688 -9.9248046875 547.284179688 -9.9248046875 568.837890625 -9.9248046875 c 256,30,31
 590.396484375 -9.9248046875 590.396484375 -9.9248046875 609.415039062 15.96875 c 128,-1,32
 628.4375 41.8642578125 628.4375 41.8642578125 643.021484375 86.375 c 128,-1,33
 657.599609375 130.883789062 657.599609375 130.883789062 665.842773438 191.57421875 c 128,-1,34
 674.087890625 252.26953125 674.087890625 252.26953125 674.087890625 323.482421875 c 0,35,36
 674.087890625 393.077148438 674.087890625 393.077148438 665.842773438 453.770507812 c 128,-1,37
 657.599609375 514.46484375 657.599609375 514.46484375 643.021484375 559.783203125 c 128,-1,38
 628.4375 605.098632812 628.4375 605.098632812 609.415039062 630.185546875 c 128,-1,39
 590.396484375 655.2734375 590.396484375 655.2734375 568.837890625 655.2734375 c 256,20,21
357.157226562 655.2734375 m 256,40,41
 335.602539062 655.2734375 335.602539062 655.2734375 315.947265625 630.185546875 c 128,-1,42
 296.291992188 605.098632812 296.291992188 605.098632812 282.345703125 559.783203125 c 128,-1,43
 268.396484375 514.46484375 268.396484375 514.46484375 260.154296875 453.770507812 c 128,-1,44
 251.913085938 393.077148438 251.913085938 393.077148438 251.913085938 323.482421875 c 0,45,46
 251.913085938 252.26953125 251.913085938 252.26953125 260.154296875 191.57421875 c 128,-1,47
 268.396484375 130.883789062 268.396484375 130.883789062 282.345703125 86.375 c 128,-1,48
 296.291992188 41.8642578125 296.291992188 41.8642578125 315.947265625 15.96875 c 128,-1,49
 335.602539062 -9.9248046875 335.602539062 -9.9248046875 357.157226562 -9.9248046875 c 256,50,51
 378.71484375 -9.9248046875 378.71484375 -9.9248046875 397.734375 15.96875 c 128,-1,52
 416.756835938 41.8642578125 416.756835938 41.8642578125 431.33984375 86.375 c 128,-1,53
 445.916992188 130.883789062 445.916992188 130.883789062 454.162109375 191.57421875 c 128,-1,54
 462.405273438 252.26953125 462.405273438 252.26953125 462.405273438 323.482421875 c 0,55,56
 462.405273438 393.077148438 462.405273438 393.077148438 454.162109375 453.770507812 c 128,-1,57
 445.916992188 514.46484375 445.916992188 514.46484375 431.33984375 559.783203125 c 128,-1,58
 416.756835938 605.098632812 416.756835938 605.098632812 397.734375 630.185546875 c 128,-1,59
 378.71484375 655.2734375 378.71484375 655.2734375 357.157226562 655.2734375 c 256,40,41
145.475585938 655.2734375 m 256,60,61
 123.921875 655.2734375 123.921875 655.2734375 104.265625 630.185546875 c 128,-1,62
 84.611328125 605.098632812 84.611328125 605.098632812 70.6650390625 559.783203125 c 128,-1,63
 56.71484375 514.46484375 56.71484375 514.46484375 48.4736328125 453.770507812 c 128,-1,64
 40.2314453125 393.077148438 40.2314453125 393.077148438 40.2314453125 323.482421875 c 0,65,66
 40.2314453125 252.26953125 40.2314453125 252.26953125 48.4736328125 191.57421875 c 128,-1,67
 56.71484375 130.883789062 56.71484375 130.883789062 70.6650390625 86.375 c 128,-1,68
 84.611328125 41.8642578125 84.611328125 41.8642578125 104.265625 15.96875 c 128,-1,69
 123.921875 -9.9248046875 123.921875 -9.9248046875 145.475585938 -9.9248046875 c 256,70,71
 167.034179688 -9.9248046875 167.034179688 -9.9248046875 186.051757812 15.96875 c 128,-1,72
 205.075195312 41.8642578125 205.075195312 41.8642578125 219.658203125 86.375 c 128,-1,73
 234.236328125 130.883789062 234.236328125 130.883789062 242.48046875 191.57421875 c 128,-1,74
 250.724609375 252.26953125 250.724609375 252.26953125 250.724609375 323.482421875 c 0,75,76
 250.724609375 393.077148438 250.724609375 393.077148438 242.48046875 453.770507812 c 128,-1,77
 234.236328125 514.46484375 234.236328125 514.46484375 219.658203125 559.783203125 c 128,-1,78
 205.075195312 605.098632812 205.075195312 605.098632812 186.051757812 630.185546875 c 128,-1,79
 167.034179688 655.2734375 167.034179688 655.2734375 145.475585938 655.2734375 c 256,60,61
EndSplineSet
EndChar

StartChar: G
Encoding: 71 71 48
Width: 926
Flags: W
AnchorPoint: "Anchor-7" 462.5 153 basechar 0
AnchorPoint: "Anchor-6" 725.5 536 basechar 0
AnchorPoint: "Anchor-5" 468.5 -240 basechar 0
AnchorPoint: "Anchor-4" 467.5 737 basechar 0
LayerCount: 2
Fore
SplineSet
445.5 546 m 0,0,1
 498.5 546 498.5 546 541 526 c 128,-1,2
 583.5 506 583.5 506 613.5 465 c 1,3,-1
 618.5 465 l 1,4,-1
 630.5 536 l 1,5,-1
 700.5 536 l 1,6,-1
 700.5 -9 l 2,7,8
 700.5 -85 700.5 -85 674.5 -136.5 c 128,-1,9
 648.5 -188 648.5 -188 595.5 -214 c 128,-1,10
 542.5 -240 542.5 -240 460.5 -240 c 0,11,12
 402.5 -240 402.5 -240 354 -231.5 c 128,-1,13
 305.5 -223 305.5 -223 267.5 -206 c 1,14,-1
 267.5 -125 l 1,15,16
 305.5 -145 305.5 -145 356.5 -156 c 128,-1,17
 407.5 -167 407.5 -167 465.5 -167 c 0,18,19
 534.5 -167 534.5 -167 574 -126.5 c 128,-1,20
 613.5 -86 613.5 -86 613.5 -16 c 2,21,-1
 613.5 5 l 2,22,23
 613.5 17 613.5 17 614.5 39.5 c 128,-1,24
 615.5 62 615.5 62 616.5 71 c 1,25,-1
 612.5 71 l 1,26,27
 584.5 30 584.5 30 543 10 c 128,-1,28
 501.5 -10 501.5 -10 446.5 -10 c 0,29,30
 342.5 -10 342.5 -10 284 63 c 128,-1,31
 225.5 136 225.5 136 225.5 267 c 0,32,33
 225.5 395 225.5 395 284 470.5 c 128,-1,34
 342.5 546 342.5 546 445.5 546 c 0,0,1
457.5 472 m 0,35,36
 412.5 472 412.5 472 381 448 c 128,-1,37
 349.5 424 349.5 424 333 378 c 128,-1,38
 316.5 332 316.5 332 316.5 266 c 0,39,40
 316.5 167 316.5 167 353 114.5 c 128,-1,41
 389.5 62 389.5 62 459.5 62 c 0,42,43
 500.5 62 500.5 62 529.5 72.5 c 128,-1,44
 558.5 83 558.5 83 577.5 105.5 c 128,-1,45
 596.5 128 596.5 128 605.5 163 c 128,-1,46
 614.5 198 614.5 198 614.5 246 c 2,47,-1
 614.5 267 l 2,48,49
 614.5 340 614.5 340 598 385 c 128,-1,50
 581.5 430 581.5 430 546.5 451 c 128,-1,51
 511.5 472 511.5 472 457.5 472 c 0,35,36
468.5 737 m 0,52,53
 488.5 737 488.5 737 504 723.5 c 128,-1,54
 519.5 710 519.5 710 519.5 681 c 0,55,56
 519.5 653 519.5 653 504 639 c 128,-1,57
 488.5 625 488.5 625 468.5 625 c 0,58,59
 446.5 625 446.5 625 431.5 639 c 128,-1,60
 416.5 653 416.5 653 416.5 681 c 0,61,62
 416.5 710 416.5 710 431.5 723.5 c 128,-1,63
 446.5 737 446.5 737 468.5 737 c 0,52,53
EndSplineSet
EndChar

StartChar: H
Encoding: 72 72 49
Width: 926
Flags: W
AnchorPoint: "Anchor-7" 463 382 basechar 0
LayerCount: 2
Fore
SplineSet
237 611 m 2,0,1
 237 665 237 665 254.5 699 c 128,-1,2
 272 733 272 733 305.5 749 c 128,-1,3
 339 765 339 765 385 765 c 0,4,5
 414 765 414 765 438.5 760.5 c 128,-1,6
 463 756 463 756 479 749 c 1,7,-1
 464 680 l 1,8,9
 448 685 448 685 430.5 688.5 c 128,-1,10
 413 692 413 692 393 692 c 0,11,12
 359 692 359 692 342 671.5 c 128,-1,13
 325 651 325 651 325 613 c 2,14,-1
 325 535 l 2,15,16
 325 513 325 513 323.5 488 c 128,-1,17
 322 463 322 463 321 452 c 1,18,-1
 326 452 l 1,19,20
 345 483 345 483 370.5 502 c 128,-1,21
 396 521 396 521 429 530 c 128,-1,22
 462 539 462 539 502 539 c 0,23,24
 562 539 562 539 603.5 518 c 128,-1,25
 645 497 645 497 667 453.5 c 128,-1,26
 689 410 689 410 689 343 c 2,27,-1
 689 0 l 1,28,-1
 601 0 l 1,29,-1
 601 326 l 2,30,31
 601 398 601 398 572 431.5 c 128,-1,32
 543 465 543 465 483 465 c 0,33,34
 425 465 425 465 390.5 443.5 c 128,-1,35
 356 422 356 422 340.5 379 c 128,-1,36
 325 336 325 336 325 271 c 2,37,-1
 325 0 l 1,38,-1
 237 0 l 1,39,-1
 237 611 l 2,0,1
EndSplineSet
EndChar

StartChar: I
Encoding: 73 73 50
Width: 926
Flags: W
AnchorPoint: "Anchor-7" 415.5 268 basechar 0
AnchorPoint: "Anchor-5" 419.5 0 basechar 0
AnchorPoint: "Anchor-4" 415.5 766 basechar 0
LayerCount: 2
Fore
SplineSet
563.5 756 m 1,0,1
 554.5 742 554.5 742 537.5 722 c 0,2,3
 520.5 702 520.5 702 500 680.5 c 0,4,5
 479.5 659 479.5 659 459 639.5 c 0,6,7
 438.5 620 438.5 620 420.5 606 c 1,8,-1
 362.5 606 l 1,9,-1
 362.5 618 l 1,10,11
 377.5 637 377.5 637 395 663 c 0,12,13
 412.5 689 412.5 689 429.5 716.5 c 0,14,15
 446.5 744 446.5 744 457.5 766 c 1,16,-1
 563.5 766 l 1,17,-1
 563.5 756 l 1,0,1
459.5 0 m 5,18,-1
 371.5 0 l 5,19,-1
 371.5 536 l 5,20,-1
 459.5 536 l 5,21,-1
 459.5 0 l 5,18,-1
EndSplineSet
EndChar

StartChar: J
Encoding: 74 74 51
Width: 926
Flags: W
LayerCount: 2
Fore
SplineSet
780.51953125 655.2734375 m 256,0,1
 758.96484375 655.2734375 758.96484375 655.2734375 739.30859375 630.185546875 c 128,-1,2
 719.655273438 605.098632812 719.655273438 605.098632812 705.708984375 559.783203125 c 128,-1,3
 691.759765625 514.46484375 691.759765625 514.46484375 683.516601562 453.770507812 c 128,-1,4
 675.275390625 393.077148438 675.275390625 393.077148438 675.275390625 323.482421875 c 0,5,6
 675.275390625 252.26953125 675.275390625 252.26953125 683.516601562 191.57421875 c 128,-1,7
 691.759765625 130.883789062 691.759765625 130.883789062 705.708984375 86.375 c 128,-1,8
 719.655273438 41.8642578125 719.655273438 41.8642578125 739.30859375 15.96875 c 128,-1,9
 758.96484375 -9.9248046875 758.96484375 -9.9248046875 780.51953125 -9.9248046875 c 256,10,11
 802.077148438 -9.9248046875 802.077148438 -9.9248046875 821.09765625 15.96875 c 128,-1,12
 840.120117188 41.8642578125 840.120117188 41.8642578125 854.703125 86.375 c 128,-1,13
 869.28125 130.883789062 869.28125 130.883789062 877.524414062 191.57421875 c 128,-1,14
 885.768554688 252.26953125 885.768554688 252.26953125 885.768554688 323.482421875 c 0,15,16
 885.768554688 393.077148438 885.768554688 393.077148438 877.524414062 453.770507812 c 128,-1,17
 869.28125 514.46484375 869.28125 514.46484375 854.703125 559.783203125 c 128,-1,18
 840.120117188 605.098632812 840.120117188 605.098632812 821.09765625 630.185546875 c 128,-1,19
 802.077148438 655.2734375 802.077148438 655.2734375 780.51953125 655.2734375 c 256,0,1
568.837890625 655.2734375 m 256,20,21
 547.284179688 655.2734375 547.284179688 655.2734375 527.627929688 630.185546875 c 128,-1,22
 507.973632812 605.098632812 507.973632812 605.098632812 494.028320312 559.783203125 c 128,-1,23
 480.077148438 514.46484375 480.077148438 514.46484375 471.8359375 453.770507812 c 128,-1,24
 463.594726562 393.077148438 463.594726562 393.077148438 463.594726562 323.482421875 c 0,25,26
 463.594726562 252.26953125 463.594726562 252.26953125 471.8359375 191.57421875 c 128,-1,27
 480.077148438 130.883789062 480.077148438 130.883789062 494.028320312 86.375 c 128,-1,28
 507.973632812 41.8642578125 507.973632812 41.8642578125 527.627929688 15.96875 c 128,-1,29
 547.284179688 -9.9248046875 547.284179688 -9.9248046875 568.837890625 -9.9248046875 c 256,30,31
 590.396484375 -9.9248046875 590.396484375 -9.9248046875 609.415039062 15.96875 c 128,-1,32
 628.4375 41.8642578125 628.4375 41.8642578125 643.021484375 86.375 c 128,-1,33
 657.599609375 130.883789062 657.599609375 130.883789062 665.842773438 191.57421875 c 128,-1,34
 674.087890625 252.26953125 674.087890625 252.26953125 674.087890625 323.482421875 c 0,35,36
 674.087890625 393.077148438 674.087890625 393.077148438 665.842773438 453.770507812 c 128,-1,37
 657.599609375 514.46484375 657.599609375 514.46484375 643.021484375 559.783203125 c 128,-1,38
 628.4375 605.098632812 628.4375 605.098632812 609.415039062 630.185546875 c 128,-1,39
 590.396484375 655.2734375 590.396484375 655.2734375 568.837890625 655.2734375 c 256,20,21
357.157226562 655.2734375 m 256,40,41
 335.602539062 655.2734375 335.602539062 655.2734375 315.947265625 630.185546875 c 128,-1,42
 296.291992188 605.098632812 296.291992188 605.098632812 282.345703125 559.783203125 c 128,-1,43
 268.396484375 514.46484375 268.396484375 514.46484375 260.154296875 453.770507812 c 128,-1,44
 251.913085938 393.077148438 251.913085938 393.077148438 251.913085938 323.482421875 c 0,45,46
 251.913085938 252.26953125 251.913085938 252.26953125 260.154296875 191.57421875 c 128,-1,47
 268.396484375 130.883789062 268.396484375 130.883789062 282.345703125 86.375 c 128,-1,48
 296.291992188 41.8642578125 296.291992188 41.8642578125 315.947265625 15.96875 c 128,-1,49
 335.602539062 -9.9248046875 335.602539062 -9.9248046875 357.157226562 -9.9248046875 c 256,50,51
 378.71484375 -9.9248046875 378.71484375 -9.9248046875 397.734375 15.96875 c 128,-1,52
 416.756835938 41.8642578125 416.756835938 41.8642578125 431.33984375 86.375 c 128,-1,53
 445.916992188 130.883789062 445.916992188 130.883789062 454.162109375 191.57421875 c 128,-1,54
 462.405273438 252.26953125 462.405273438 252.26953125 462.405273438 323.482421875 c 0,55,56
 462.405273438 393.077148438 462.405273438 393.077148438 454.162109375 453.770507812 c 128,-1,57
 445.916992188 514.46484375 445.916992188 514.46484375 431.33984375 559.783203125 c 128,-1,58
 416.756835938 605.098632812 416.756835938 605.098632812 397.734375 630.185546875 c 128,-1,59
 378.71484375 655.2734375 378.71484375 655.2734375 357.157226562 655.2734375 c 256,40,41
355.120117188 597.200195312 m 0,60,61
 366.4765625 596.94140625 366.4765625 596.94140625 376.177734375 576.907226562 c 0,62,63
 386.518554688 556.34765625 386.518554688 556.34765625 393.125976562 520.291015625 c 0,64,65
 400.296875 484.387695312 400.296875 484.387695312 404.422851562 434.8359375 c 0,66,67
 409.065429688 385.672851562 409.065429688 385.672851562 408.530273438 330.15234375 c 0,68,69
 409.065429688 272.196289062 409.065429688 272.196289062 404.422851562 224.399414062 c 0,70,71
 400.296875 176.247070312 400.296875 176.247070312 393.125976562 140.010742188 c 0,72,73
 386.518554688 103.366210938 386.518554688 103.366210938 376.177734375 83.3974609375 c 0,74,75
 366.4765625 62.7705078125 366.4765625 62.7705078125 355.120117188 63.1005859375 c 0,76,77
 345.184570312 62.7705078125 345.184570312 62.7705078125 334.580078125 83.3974609375 c 0,78,79
 323.889648438 103.366210938 323.889648438 103.366210938 317.119140625 140.010742188 c 0,80,81
 310.112304688 176.247070312 310.112304688 176.247070312 305.819335938 224.399414062 c 0,82,83
 301.345703125 272.196289062 301.345703125 272.196289062 301.712890625 330.15234375 c 0,84,85
 301.345703125 385.672851562 301.345703125 385.672851562 305.819335938 434.8359375 c 0,86,87
 310.112304688 484.387695312 310.112304688 484.387695312 317.119140625 520.291015625 c 0,88,89
 323.889648438 556.34765625 323.889648438 556.34765625 334.580078125 576.907226562 c 0,90,91
 345.184570312 596.94140625 345.184570312 596.94140625 355.120117188 597.200195312 c 0,60,61
145.475585938 655.2734375 m 256,92,93
 123.921875 655.2734375 123.921875 655.2734375 104.265625 630.185546875 c 128,-1,94
 84.611328125 605.098632812 84.611328125 605.098632812 70.6650390625 559.783203125 c 128,-1,95
 56.71484375 514.46484375 56.71484375 514.46484375 48.4736328125 453.770507812 c 128,-1,96
 40.2314453125 393.077148438 40.2314453125 393.077148438 40.2314453125 323.482421875 c 0,97,98
 40.2314453125 252.26953125 40.2314453125 252.26953125 48.4736328125 191.57421875 c 128,-1,99
 56.71484375 130.883789062 56.71484375 130.883789062 70.6650390625 86.375 c 128,-1,100
 84.611328125 41.8642578125 84.611328125 41.8642578125 104.265625 15.96875 c 128,-1,101
 123.921875 -9.9248046875 123.921875 -9.9248046875 145.475585938 -9.9248046875 c 256,102,103
 167.034179688 -9.9248046875 167.034179688 -9.9248046875 186.051757812 15.96875 c 128,-1,104
 205.075195312 41.8642578125 205.075195312 41.8642578125 219.658203125 86.375 c 128,-1,105
 234.236328125 130.883789062 234.236328125 130.883789062 242.48046875 191.57421875 c 128,-1,106
 250.724609375 252.26953125 250.724609375 252.26953125 250.724609375 323.482421875 c 0,107,108
 250.724609375 393.077148438 250.724609375 393.077148438 242.48046875 453.770507812 c 128,-1,109
 234.236328125 514.46484375 234.236328125 514.46484375 219.658203125 559.783203125 c 128,-1,110
 205.075195312 605.098632812 205.075195312 605.098632812 186.051757812 630.185546875 c 128,-1,111
 167.034179688 655.2734375 167.034179688 655.2734375 145.475585938 655.2734375 c 256,92,93
EndSplineSet
EndChar

StartChar: K
Encoding: 75 75 52
Width: 926
Flags: W
AnchorPoint: "Anchor-7" 463 380 basechar 0
AnchorPoint: "Anchor-6" 527 840 basechar 0
AnchorPoint: "Anchor-5" 425 0 basechar 0
AnchorPoint: "Anchor-4" 287 760 basechar 0
LayerCount: 2
Fore
SplineSet
443 737 m 4,0,1
 463 737 463 737 478.5 723.5 c 132,-1,2
 494 710 494 710 494 681 c 4,3,4
 494 653 494 653 478.5 639 c 132,-1,5
 463 625 463 625 443 625 c 4,6,7
 421 625 421 625 406 639 c 132,-1,8
 391 653 391 653 391 681 c 4,9,10
 391 710 391 710 406 723.5 c 132,-1,11
 421 737 421 737 443 737 c 4,0,1
330 363 m 2,12,13
 330 347 330 347 328.5 321 c 128,-1,14
 327 295 327 295 326 276 c 1,15,-1
 330 276 l 1,16,17
 336 284 336 284 348 299 c 128,-1,18
 360 314 360 314 372.5 329.5 c 128,-1,19
 385 345 385 345 394 355 c 2,20,-1
 565 536 l 1,21,-1
 668 536 l 1,22,-1
 451 307 l 1,23,-1
 683 0 l 1,24,-1
 577 0 l 1,25,-1
 391 250 l 1,26,-1
 330 197 l 1,27,-1
 330 0 l 1,28,-1
 243 0 l 1,29,-1
 243 536 l 1,30,-1
 330 536 l 1,31,-1
 330 363 l 2,12,13
EndSplineSet
EndChar

StartChar: L
Encoding: 76 76 53
Width: 926
Flags: W
LayerCount: 2
Fore
SplineSet
780.51953125 655.2734375 m 256,0,1
 758.96484375 655.2734375 758.96484375 655.2734375 739.30859375 630.185546875 c 128,-1,2
 719.655273438 605.098632812 719.655273438 605.098632812 705.708984375 559.783203125 c 128,-1,3
 691.759765625 514.46484375 691.759765625 514.46484375 683.516601562 453.770507812 c 128,-1,4
 675.275390625 393.077148438 675.275390625 393.077148438 675.275390625 323.482421875 c 0,5,6
 675.275390625 252.26953125 675.275390625 252.26953125 683.516601562 191.57421875 c 128,-1,7
 691.759765625 130.883789062 691.759765625 130.883789062 705.708984375 86.375 c 128,-1,8
 719.655273438 41.8642578125 719.655273438 41.8642578125 739.30859375 15.96875 c 128,-1,9
 758.96484375 -9.9248046875 758.96484375 -9.9248046875 780.51953125 -9.9248046875 c 256,10,11
 802.077148438 -9.9248046875 802.077148438 -9.9248046875 821.09765625 15.96875 c 128,-1,12
 840.120117188 41.8642578125 840.120117188 41.8642578125 854.703125 86.375 c 128,-1,13
 869.28125 130.883789062 869.28125 130.883789062 877.524414062 191.57421875 c 128,-1,14
 885.768554688 252.26953125 885.768554688 252.26953125 885.768554688 323.482421875 c 0,15,16
 885.768554688 393.077148438 885.768554688 393.077148438 877.524414062 453.770507812 c 128,-1,17
 869.28125 514.46484375 869.28125 514.46484375 854.703125 559.783203125 c 128,-1,18
 840.120117188 605.098632812 840.120117188 605.098632812 821.09765625 630.185546875 c 128,-1,19
 802.077148438 655.2734375 802.077148438 655.2734375 780.51953125 655.2734375 c 256,0,1
778.483398438 597.200195312 m 0,20,21
 789.838867188 596.94140625 789.838867188 596.94140625 799.541992188 576.907226562 c 0,22,23
 809.880859375 556.34765625 809.880859375 556.34765625 816.48828125 520.291015625 c 0,24,25
 823.66015625 484.387695312 823.66015625 484.387695312 827.786132812 434.8359375 c 0,26,27
 832.427734375 385.672851562 832.427734375 385.672851562 831.893554688 330.15234375 c 0,28,29
 832.427734375 272.196289062 832.427734375 272.196289062 827.786132812 224.399414062 c 0,30,31
 823.66015625 176.247070312 823.66015625 176.247070312 816.48828125 140.010742188 c 0,32,33
 809.880859375 103.366210938 809.880859375 103.366210938 799.541992188 83.3974609375 c 0,34,35
 789.838867188 62.7705078125 789.838867188 62.7705078125 778.483398438 63.1005859375 c 0,36,37
 768.546875 62.7705078125 768.546875 62.7705078125 757.942382812 83.3974609375 c 0,38,39
 747.252929688 103.366210938 747.252929688 103.366210938 740.481445312 140.010742188 c 0,40,41
 733.474609375 176.247070312 733.474609375 176.247070312 729.182617188 224.399414062 c 0,42,43
 724.70703125 272.196289062 724.70703125 272.196289062 725.075195312 330.15234375 c 0,44,45
 724.70703125 385.672851562 724.70703125 385.672851562 729.182617188 434.8359375 c 0,46,47
 733.474609375 484.387695312 733.474609375 484.387695312 740.481445312 520.291015625 c 0,48,49
 747.252929688 556.34765625 747.252929688 556.34765625 757.942382812 576.907226562 c 0,50,51
 768.546875 596.94140625 768.546875 596.94140625 778.483398438 597.200195312 c 0,20,21
568.837890625 655.2734375 m 256,52,53
 547.284179688 655.2734375 547.284179688 655.2734375 527.627929688 630.185546875 c 128,-1,54
 507.973632812 605.098632812 507.973632812 605.098632812 494.028320312 559.783203125 c 128,-1,55
 480.077148438 514.46484375 480.077148438 514.46484375 471.8359375 453.770507812 c 128,-1,56
 463.594726562 393.077148438 463.594726562 393.077148438 463.594726562 323.482421875 c 0,57,58
 463.594726562 252.26953125 463.594726562 252.26953125 471.8359375 191.57421875 c 128,-1,59
 480.077148438 130.883789062 480.077148438 130.883789062 494.028320312 86.375 c 128,-1,60
 507.973632812 41.8642578125 507.973632812 41.8642578125 527.627929688 15.96875 c 128,-1,61
 547.284179688 -9.9248046875 547.284179688 -9.9248046875 568.837890625 -9.9248046875 c 256,62,63
 590.396484375 -9.9248046875 590.396484375 -9.9248046875 609.415039062 15.96875 c 128,-1,64
 628.4375 41.8642578125 628.4375 41.8642578125 643.021484375 86.375 c 128,-1,65
 657.599609375 130.883789062 657.599609375 130.883789062 665.842773438 191.57421875 c 128,-1,66
 674.087890625 252.26953125 674.087890625 252.26953125 674.087890625 323.482421875 c 0,67,68
 674.087890625 393.077148438 674.087890625 393.077148438 665.842773438 453.770507812 c 128,-1,69
 657.599609375 514.46484375 657.599609375 514.46484375 643.021484375 559.783203125 c 128,-1,70
 628.4375 605.098632812 628.4375 605.098632812 609.415039062 630.185546875 c 128,-1,71
 590.396484375 655.2734375 590.396484375 655.2734375 568.837890625 655.2734375 c 256,52,53
357.157226562 655.2734375 m 256,72,73
 335.602539062 655.2734375 335.602539062 655.2734375 315.947265625 630.185546875 c 128,-1,74
 296.291992188 605.098632812 296.291992188 605.098632812 282.345703125 559.783203125 c 128,-1,75
 268.396484375 514.46484375 268.396484375 514.46484375 260.154296875 453.770507812 c 128,-1,76
 251.913085938 393.077148438 251.913085938 393.077148438 251.913085938 323.482421875 c 0,77,78
 251.913085938 252.26953125 251.913085938 252.26953125 260.154296875 191.57421875 c 128,-1,79
 268.396484375 130.883789062 268.396484375 130.883789062 282.345703125 86.375 c 128,-1,80
 296.291992188 41.8642578125 296.291992188 41.8642578125 315.947265625 15.96875 c 128,-1,81
 335.602539062 -9.9248046875 335.602539062 -9.9248046875 357.157226562 -9.9248046875 c 256,82,83
 378.71484375 -9.9248046875 378.71484375 -9.9248046875 397.734375 15.96875 c 128,-1,84
 416.756835938 41.8642578125 416.756835938 41.8642578125 431.33984375 86.375 c 128,-1,85
 445.916992188 130.883789062 445.916992188 130.883789062 454.162109375 191.57421875 c 128,-1,86
 462.405273438 252.26953125 462.405273438 252.26953125 462.405273438 323.482421875 c 0,87,88
 462.405273438 393.077148438 462.405273438 393.077148438 454.162109375 453.770507812 c 128,-1,89
 445.916992188 514.46484375 445.916992188 514.46484375 431.33984375 559.783203125 c 128,-1,90
 416.756835938 605.098632812 416.756835938 605.098632812 397.734375 630.185546875 c 128,-1,91
 378.71484375 655.2734375 378.71484375 655.2734375 357.157226562 655.2734375 c 256,72,73
355.120117188 597.200195312 m 0,92,93
 366.4765625 596.94140625 366.4765625 596.94140625 376.177734375 576.907226562 c 0,94,95
 386.518554688 556.34765625 386.518554688 556.34765625 393.125976562 520.291015625 c 0,96,97
 400.296875 484.387695312 400.296875 484.387695312 404.422851562 434.8359375 c 0,98,99
 409.065429688 385.672851562 409.065429688 385.672851562 408.530273438 330.15234375 c 0,100,101
 409.065429688 272.196289062 409.065429688 272.196289062 404.422851562 224.399414062 c 0,102,103
 400.296875 176.247070312 400.296875 176.247070312 393.125976562 140.010742188 c 0,104,105
 386.518554688 103.366210938 386.518554688 103.366210938 376.177734375 83.3974609375 c 0,106,107
 366.4765625 62.7705078125 366.4765625 62.7705078125 355.120117188 63.1005859375 c 0,108,109
 345.184570312 62.7705078125 345.184570312 62.7705078125 334.580078125 83.3974609375 c 0,110,111
 323.889648438 103.366210938 323.889648438 103.366210938 317.119140625 140.010742188 c 0,112,113
 310.112304688 176.247070312 310.112304688 176.247070312 305.819335938 224.399414062 c 0,114,115
 301.345703125 272.196289062 301.345703125 272.196289062 301.712890625 330.15234375 c 0,116,117
 301.345703125 385.672851562 301.345703125 385.672851562 305.819335938 434.8359375 c 0,118,119
 310.112304688 484.387695312 310.112304688 484.387695312 317.119140625 520.291015625 c 0,120,121
 323.889648438 556.34765625 323.889648438 556.34765625 334.580078125 576.907226562 c 0,122,123
 345.184570312 596.94140625 345.184570312 596.94140625 355.120117188 597.200195312 c 0,92,93
145.475585938 655.2734375 m 256,124,125
 123.921875 655.2734375 123.921875 655.2734375 104.265625 630.185546875 c 128,-1,126
 84.611328125 605.098632812 84.611328125 605.098632812 70.6650390625 559.783203125 c 128,-1,127
 56.71484375 514.46484375 56.71484375 514.46484375 48.4736328125 453.770507812 c 128,-1,128
 40.2314453125 393.077148438 40.2314453125 393.077148438 40.2314453125 323.482421875 c 0,129,130
 40.2314453125 252.26953125 40.2314453125 252.26953125 48.4736328125 191.57421875 c 128,-1,131
 56.71484375 130.883789062 56.71484375 130.883789062 70.6650390625 86.375 c 128,-1,132
 84.611328125 41.8642578125 84.611328125 41.8642578125 104.265625 15.96875 c 128,-1,133
 123.921875 -9.9248046875 123.921875 -9.9248046875 145.475585938 -9.9248046875 c 256,134,135
 167.034179688 -9.9248046875 167.034179688 -9.9248046875 186.051757812 15.96875 c 128,-1,136
 205.075195312 41.8642578125 205.075195312 41.8642578125 219.658203125 86.375 c 128,-1,137
 234.236328125 130.883789062 234.236328125 130.883789062 242.48046875 191.57421875 c 128,-1,138
 250.724609375 252.26953125 250.724609375 252.26953125 250.724609375 323.482421875 c 0,139,140
 250.724609375 393.077148438 250.724609375 393.077148438 242.48046875 453.770507812 c 128,-1,141
 234.236328125 514.46484375 234.236328125 514.46484375 219.658203125 559.783203125 c 128,-1,142
 205.075195312 605.098632812 205.075195312 605.098632812 186.051757812 630.185546875 c 128,-1,143
 167.034179688 655.2734375 167.034179688 655.2734375 145.475585938 655.2734375 c 256,124,125
EndSplineSet
EndChar

StartChar: M
Encoding: 77 77 54
Width: 926
Flags: W
AnchorPoint: "Anchor-7" 462.5 273 basechar 0
AnchorPoint: "Anchor-6" 878.5 536 basechar 0
AnchorPoint: "Anchor-5" 464.5 0 basechar 0
AnchorPoint: "Anchor-4" 472.5 737 basechar 0
LayerCount: 2
Fore
SplineSet
666.5 546 m 0,0,1
 757.5 546 757.5 546 802.5 499.5 c 128,-1,2
 847.5 453 847.5 453 847.5 349 c 2,3,-1
 847.5 0 l 1,4,-1
 760.5 0 l 1,5,-1
 760.5 345 l 2,6,7
 760.5 408 760.5 408 734 440 c 128,-1,8
 707.5 472 707.5 472 651.5 472 c 0,9,10
 573.5 472 573.5 472 540 427 c 128,-1,11
 506.5 382 506.5 382 506.5 296 c 2,12,-1
 506.5 0 l 1,13,-1
 419.5 0 l 1,14,-1
 419.5 345 l 2,15,16
 419.5 387 419.5 387 407.5 415.5 c 128,-1,17
 395.5 444 395.5 444 371.5 458 c 128,-1,18
 347.5 472 347.5 472 309.5 472 c 0,19,20
 255.5 472 255.5 472 224.5 449.5 c 128,-1,21
 193.5 427 193.5 427 180 384 c 128,-1,22
 166.5 341 166.5 341 166.5 278 c 2,23,-1
 166.5 0 l 1,24,-1
 78.5 0 l 1,25,-1
 78.5 536 l 1,26,-1
 149.5 536 l 1,27,-1
 162.5 463 l 1,28,-1
 167.5 463 l 1,29,30
 184.5 491 184.5 491 209 509.5 c 128,-1,31
 233.5 528 233.5 528 263.5 537 c 128,-1,32
 293.5 546 293.5 546 325.5 546 c 0,33,34
 387.5 546 387.5 546 429 524 c 128,-1,35
 470.5 502 470.5 502 489.5 456 c 1,36,-1
 494.5 456 l 1,37,38
 521.5 502 521.5 502 568 524 c 128,-1,39
 614.5 546 614.5 546 666.5 546 c 0,0,1
473.5 737 m 0,40,41
 493.5 737 493.5 737 509 723.5 c 128,-1,42
 524.5 710 524.5 710 524.5 681 c 0,43,44
 524.5 653 524.5 653 509 639 c 128,-1,45
 493.5 625 493.5 625 473.5 625 c 0,46,47
 451.5 625 451.5 625 436.5 639 c 128,-1,48
 421.5 653 421.5 653 421.5 681 c 0,49,50
 421.5 710 421.5 710 436.5 723.5 c 128,-1,51
 451.5 737 451.5 737 473.5 737 c 0,40,41
EndSplineSet
EndChar

StartChar: N
Encoding: 78 78 55
Width: 926
Flags: W
AnchorPoint: "Anchor-7" 463 273 basechar 0
AnchorPoint: "Anchor-6" 714 536 basechar 0
AnchorPoint: "Anchor-5" 461 0 basechar 0
AnchorPoint: "Anchor-4" 461 536 basechar 0
LayerCount: 2
Fore
SplineSet
437 737 m 4,0,1
 457 737 457 737 472.5 723.5 c 132,-1,2
 488 710 488 710 488 681 c 4,3,4
 488 653 488 653 472.5 639 c 132,-1,5
 457 625 457 625 437 625 c 4,6,7
 415 625 415 625 400 639 c 132,-1,8
 385 653 385 653 385 681 c 4,9,10
 385 710 385 710 400 723.5 c 132,-1,11
 415 737 415 737 437 737 c 4,0,1
495 546 m 0,12,13
 591 546 591 546 640 499.5 c 128,-1,14
 689 453 689 453 689 349 c 2,15,-1
 689 0 l 1,16,-1
 602 0 l 1,17,-1
 602 343 l 2,18,19
 602 408 602 408 573 440 c 128,-1,20
 544 472 544 472 482 472 c 0,21,22
 393 472 393 472 359 422 c 128,-1,23
 325 372 325 372 325 278 c 2,24,-1
 325 0 l 1,25,-1
 237 0 l 1,26,-1
 237 536 l 1,27,-1
 308 536 l 1,28,-1
 321 463 l 1,29,-1
 326 463 l 1,30,31
 344 491 344 491 370.5 509.5 c 128,-1,32
 397 528 397 528 429 537 c 128,-1,33
 461 546 461 546 495 546 c 0,12,13
EndSplineSet
EndChar

StartChar: O
Encoding: 79 79 56
Width: 926
Flags: W
AnchorPoint: "Anchor-7" 463 268 basechar 0
AnchorPoint: "Anchor-5" 463 0 basechar 0
AnchorPoint: "Anchor-4" 463 536 basechar 0
LayerCount: 2
Fore
SplineSet
711 269 m 256,0,1
 711 180 711 180 680.5 117.5 c 128,-1,2
 650 55 650 55 594 22.5 c 128,-1,3
 538 -10 538 -10 461 -10 c 0,4,5
 390 -10 390 -10 334.5 22.5 c 128,-1,6
 279 55 279 55 247 117.5 c 128,-1,7
 215 180 215 180 215 269 c 0,8,9
 215 402 215 402 282 474 c 128,-1,10
 349 546 349 546 464 546 c 0,11,12
 537 546 537 546 592.5 513.5 c 128,-1,13
 648 481 648 481 679.5 419.5 c 128,-1,14
 711 358 711 358 711 269 c 256,0,1
463 63 m 256,15,16
 514 63 514 63 547.5 83 c 128,-1,17
 581 103 581 103 598.5 142.5 c 128,-1,18
 616 182 616 182 619 239 c 1,19,-1
 306 239 l 1,20,21
 309 182 309 182 327 142.5 c 128,-1,22
 345 103 345 103 378.5 83 c 128,-1,23
 412 63 412 63 463 63 c 256,15,16
462 472 m 0,24,25
 388 472 388 472 351 431.5 c 128,-1,26
 314 391 314 391 307 312 c 1,27,-1
 619 312 l 1,28,29
 614 365 614 365 595.5 400.5 c 128,-1,30
 577 436 577 436 544 454 c 128,-1,31
 511 472 511 472 462 472 c 0,24,25
EndSplineSet
EndChar

StartChar: P
Encoding: 80 80 57
Width: 926
Flags: W
AnchorPoint: "Anchor-7" 463 153 basechar 0
AnchorPoint: "Anchor-5" 445 -240 basechar 0
AnchorPoint: "Anchor-4" 445 536 basechar 0
LayerCount: 2
Fore
SplineSet
344 744 m 4,0,1
 364 744 364 744 379.5 730.5 c 132,-1,2
 395 717 395 717 395 688 c 4,3,4
 395 660 395 660 379.5 646 c 132,-1,5
 364 632 364 632 344 632 c 4,6,7
 322 632 322 632 307 646 c 132,-1,8
 292 660 292 660 292 688 c 4,9,10
 292 717 292 717 307 730.5 c 132,-1,11
 322 744 322 744 344 744 c 4,0,1
482 546 m 0,12,13
 542 546 542 546 589 521 c 128,-1,14
 636 496 636 496 663 446.5 c 128,-1,15
 690 397 690 397 690 323 c 0,16,17
 690 252 690 252 663 193 c 128,-1,18
 636 134 636 134 587 90.5 c 128,-1,19
 538 47 538 47 471 21 c 128,-1,20
 404 -5 404 -5 324 -10 c 1,21,-1
 324 -240 l 1,22,-1
 236 -240 l 1,23,-1
 236 536 l 1,24,-1
 308 536 l 1,25,-1
 320 463 l 1,26,-1
 324 463 l 1,27,28
 339 486 339 486 360 505 c 128,-1,29
 381 524 381 524 411 535 c 128,-1,30
 441 546 441 546 482 546 c 0,12,13
464 472 m 0,31,32
 414 472 414 472 383 451.5 c 128,-1,33
 352 431 352 431 338 390 c 128,-1,34
 324 349 324 349 324 286 c 2,35,-1
 324 62 l 1,36,37
 389 70 389 70 439.5 91.5 c 128,-1,38
 490 113 490 113 526 146.5 c 128,-1,39
 562 180 562 180 580.5 224 c 128,-1,40
 599 268 599 268 599 321 c 0,41,42
 599 367 599 367 583 400.5 c 128,-1,43
 567 434 567 434 537 453 c 128,-1,44
 507 472 507 472 464 472 c 0,31,32
EndSplineSet
EndChar

StartChar: Q
Encoding: 81 81 58
Width: 926
Flags: W
LayerCount: 2
Fore
SplineSet
780.51953125 655.2734375 m 256,0,1
 758.96484375 655.2734375 758.96484375 655.2734375 739.30859375 630.185546875 c 128,-1,2
 719.655273438 605.098632812 719.655273438 605.098632812 705.708984375 559.783203125 c 128,-1,3
 691.759765625 514.46484375 691.759765625 514.46484375 683.516601562 453.770507812 c 128,-1,4
 675.275390625 393.077148438 675.275390625 393.077148438 675.275390625 323.482421875 c 0,5,6
 675.275390625 252.26953125 675.275390625 252.26953125 683.516601562 191.57421875 c 128,-1,7
 691.759765625 130.883789062 691.759765625 130.883789062 705.708984375 86.375 c 128,-1,8
 719.655273438 41.8642578125 719.655273438 41.8642578125 739.30859375 15.96875 c 128,-1,9
 758.96484375 -9.9248046875 758.96484375 -9.9248046875 780.51953125 -9.9248046875 c 256,10,11
 802.077148438 -9.9248046875 802.077148438 -9.9248046875 821.09765625 15.96875 c 128,-1,12
 840.120117188 41.8642578125 840.120117188 41.8642578125 854.703125 86.375 c 128,-1,13
 869.28125 130.883789062 869.28125 130.883789062 877.524414062 191.57421875 c 128,-1,14
 885.768554688 252.26953125 885.768554688 252.26953125 885.768554688 323.482421875 c 0,15,16
 885.768554688 393.077148438 885.768554688 393.077148438 877.524414062 453.770507812 c 128,-1,17
 869.28125 514.46484375 869.28125 514.46484375 854.703125 559.783203125 c 128,-1,18
 840.120117188 605.098632812 840.120117188 605.098632812 821.09765625 630.185546875 c 128,-1,19
 802.077148438 655.2734375 802.077148438 655.2734375 780.51953125 655.2734375 c 256,0,1
778.483398438 597.200195312 m 0,20,21
 789.838867188 596.94140625 789.838867188 596.94140625 799.541992188 576.907226562 c 0,22,23
 809.880859375 556.34765625 809.880859375 556.34765625 816.48828125 520.291015625 c 0,24,25
 823.66015625 484.387695312 823.66015625 484.387695312 827.786132812 434.8359375 c 0,26,27
 832.427734375 385.672851562 832.427734375 385.672851562 831.893554688 330.15234375 c 0,28,29
 832.427734375 272.196289062 832.427734375 272.196289062 827.786132812 224.399414062 c 0,30,31
 823.66015625 176.247070312 823.66015625 176.247070312 816.48828125 140.010742188 c 0,32,33
 809.880859375 103.366210938 809.880859375 103.366210938 799.541992188 83.3974609375 c 0,34,35
 789.838867188 62.7705078125 789.838867188 62.7705078125 778.483398438 63.1005859375 c 0,36,37
 768.546875 62.7705078125 768.546875 62.7705078125 757.942382812 83.3974609375 c 0,38,39
 747.252929688 103.366210938 747.252929688 103.366210938 740.481445312 140.010742188 c 0,40,41
 733.474609375 176.247070312 733.474609375 176.247070312 729.182617188 224.399414062 c 0,42,43
 724.70703125 272.196289062 724.70703125 272.196289062 725.075195312 330.15234375 c 0,44,45
 724.70703125 385.672851562 724.70703125 385.672851562 729.182617188 434.8359375 c 0,46,47
 733.474609375 484.387695312 733.474609375 484.387695312 740.481445312 520.291015625 c 0,48,49
 747.252929688 556.34765625 747.252929688 556.34765625 757.942382812 576.907226562 c 0,50,51
 768.546875 596.94140625 768.546875 596.94140625 778.483398438 597.200195312 c 0,20,21
568.837890625 655.2734375 m 256,52,53
 547.284179688 655.2734375 547.284179688 655.2734375 527.627929688 630.185546875 c 128,-1,54
 507.973632812 605.098632812 507.973632812 605.098632812 494.028320312 559.783203125 c 128,-1,55
 480.077148438 514.46484375 480.077148438 514.46484375 471.8359375 453.770507812 c 128,-1,56
 463.594726562 393.077148438 463.594726562 393.077148438 463.594726562 323.482421875 c 0,57,58
 463.594726562 252.26953125 463.594726562 252.26953125 471.8359375 191.57421875 c 128,-1,59
 480.077148438 130.883789062 480.077148438 130.883789062 494.028320312 86.375 c 128,-1,60
 507.973632812 41.8642578125 507.973632812 41.8642578125 527.627929688 15.96875 c 128,-1,61
 547.284179688 -9.9248046875 547.284179688 -9.9248046875 568.837890625 -9.9248046875 c 256,62,63
 590.396484375 -9.9248046875 590.396484375 -9.9248046875 609.415039062 15.96875 c 128,-1,64
 628.4375 41.8642578125 628.4375 41.8642578125 643.021484375 86.375 c 128,-1,65
 657.599609375 130.883789062 657.599609375 130.883789062 665.842773438 191.57421875 c 128,-1,66
 674.087890625 252.26953125 674.087890625 252.26953125 674.087890625 323.482421875 c 0,67,68
 674.087890625 393.077148438 674.087890625 393.077148438 665.842773438 453.770507812 c 128,-1,69
 657.599609375 514.46484375 657.599609375 514.46484375 643.021484375 559.783203125 c 128,-1,70
 628.4375 605.098632812 628.4375 605.098632812 609.415039062 630.185546875 c 128,-1,71
 590.396484375 655.2734375 590.396484375 655.2734375 568.837890625 655.2734375 c 256,52,53
566.802734375 597.200195312 m 0,72,73
 578.158203125 596.94140625 578.158203125 596.94140625 587.860351562 576.907226562 c 0,74,75
 598.200195312 556.34765625 598.200195312 556.34765625 604.807617188 520.291015625 c 0,76,77
 611.977539062 484.387695312 611.977539062 484.387695312 616.103515625 434.8359375 c 0,78,79
 620.74609375 385.672851562 620.74609375 385.672851562 620.211914062 330.15234375 c 0,80,81
 620.74609375 272.196289062 620.74609375 272.196289062 616.103515625 224.399414062 c 0,82,83
 611.977539062 176.247070312 611.977539062 176.247070312 604.807617188 140.010742188 c 0,84,85
 598.200195312 103.366210938 598.200195312 103.366210938 587.860351562 83.3974609375 c 0,86,87
 578.158203125 62.7705078125 578.158203125 62.7705078125 566.802734375 63.1005859375 c 0,88,89
 556.866210938 62.7705078125 556.866210938 62.7705078125 546.260742188 83.3974609375 c 0,90,91
 535.5703125 103.366210938 535.5703125 103.366210938 528.80078125 140.010742188 c 0,92,93
 521.793945312 176.247070312 521.793945312 176.247070312 517.501953125 224.399414062 c 0,94,95
 513.026367188 272.196289062 513.026367188 272.196289062 513.393554688 330.15234375 c 0,96,97
 513.026367188 385.672851562 513.026367188 385.672851562 517.501953125 434.8359375 c 0,98,99
 521.793945312 484.387695312 521.793945312 484.387695312 528.80078125 520.291015625 c 0,100,101
 535.5703125 556.34765625 535.5703125 556.34765625 546.260742188 576.907226562 c 0,102,103
 556.866210938 596.94140625 556.866210938 596.94140625 566.802734375 597.200195312 c 0,72,73
357.157226562 655.2734375 m 256,104,105
 335.602539062 655.2734375 335.602539062 655.2734375 315.947265625 630.185546875 c 128,-1,106
 296.291992188 605.098632812 296.291992188 605.098632812 282.345703125 559.783203125 c 128,-1,107
 268.396484375 514.46484375 268.396484375 514.46484375 260.154296875 453.770507812 c 128,-1,108
 251.913085938 393.077148438 251.913085938 393.077148438 251.913085938 323.482421875 c 0,109,110
 251.913085938 252.26953125 251.913085938 252.26953125 260.154296875 191.57421875 c 128,-1,111
 268.396484375 130.883789062 268.396484375 130.883789062 282.345703125 86.375 c 128,-1,112
 296.291992188 41.8642578125 296.291992188 41.8642578125 315.947265625 15.96875 c 128,-1,113
 335.602539062 -9.9248046875 335.602539062 -9.9248046875 357.157226562 -9.9248046875 c 256,114,115
 378.71484375 -9.9248046875 378.71484375 -9.9248046875 397.734375 15.96875 c 128,-1,116
 416.756835938 41.8642578125 416.756835938 41.8642578125 431.33984375 86.375 c 128,-1,117
 445.916992188 130.883789062 445.916992188 130.883789062 454.162109375 191.57421875 c 128,-1,118
 462.405273438 252.26953125 462.405273438 252.26953125 462.405273438 323.482421875 c 0,119,120
 462.405273438 393.077148438 462.405273438 393.077148438 454.162109375 453.770507812 c 128,-1,121
 445.916992188 514.46484375 445.916992188 514.46484375 431.33984375 559.783203125 c 128,-1,122
 416.756835938 605.098632812 416.756835938 605.098632812 397.734375 630.185546875 c 128,-1,123
 378.71484375 655.2734375 378.71484375 655.2734375 357.157226562 655.2734375 c 256,104,105
145.475585938 655.2734375 m 256,124,125
 123.921875 655.2734375 123.921875 655.2734375 104.265625 630.185546875 c 128,-1,126
 84.611328125 605.098632812 84.611328125 605.098632812 70.6650390625 559.783203125 c 128,-1,127
 56.71484375 514.46484375 56.71484375 514.46484375 48.4736328125 453.770507812 c 128,-1,128
 40.2314453125 393.077148438 40.2314453125 393.077148438 40.2314453125 323.482421875 c 0,129,130
 40.2314453125 252.26953125 40.2314453125 252.26953125 48.4736328125 191.57421875 c 128,-1,131
 56.71484375 130.883789062 56.71484375 130.883789062 70.6650390625 86.375 c 128,-1,132
 84.611328125 41.8642578125 84.611328125 41.8642578125 104.265625 15.96875 c 128,-1,133
 123.921875 -9.9248046875 123.921875 -9.9248046875 145.475585938 -9.9248046875 c 256,134,135
 167.034179688 -9.9248046875 167.034179688 -9.9248046875 186.051757812 15.96875 c 128,-1,136
 205.075195312 41.8642578125 205.075195312 41.8642578125 219.658203125 86.375 c 128,-1,137
 234.236328125 130.883789062 234.236328125 130.883789062 242.48046875 191.57421875 c 128,-1,138
 250.724609375 252.26953125 250.724609375 252.26953125 250.724609375 323.482421875 c 0,139,140
 250.724609375 393.077148438 250.724609375 393.077148438 242.48046875 453.770507812 c 128,-1,141
 234.236328125 514.46484375 234.236328125 514.46484375 219.658203125 559.783203125 c 128,-1,142
 205.075195312 605.098632812 205.075195312 605.098632812 186.051757812 630.185546875 c 128,-1,143
 167.034179688 655.2734375 167.034179688 655.2734375 145.475585938 655.2734375 c 256,124,125
EndSplineSet
EndChar

StartChar: R
Encoding: 82 82 59
Width: 926
Flags: W
AnchorPoint: "Anchor-7" 462.5 273 basechar 0
AnchorPoint: "Anchor-6" 614.5 536 basechar 0
AnchorPoint: "Anchor-5" 347.5 0 basechar 0
LayerCount: 2
Fore
SplineSet
480.5 744 m 4,0,1
 500.5 744 500.5 744 516 730.5 c 132,-1,2
 531.5 717 531.5 717 531.5 688 c 4,3,4
 531.5 660 531.5 660 516 646 c 132,-1,5
 500.5 632 500.5 632 480.5 632 c 4,6,7
 458.5 632 458.5 632 443.5 646 c 132,-1,8
 428.5 660 428.5 660 428.5 688 c 4,9,10
 428.5 717 428.5 717 443.5 730.5 c 132,-1,11
 458.5 744 458.5 744 480.5 744 c 4,0,1
556.5 546 m 0,12,13
 571.5 546 571.5 546 589 544.5 c 128,-1,14
 606.5 543 606.5 543 619.5 540 c 1,15,-1
 608.5 459 l 1,16,17
 595.5 462 595.5 462 580 464 c 128,-1,18
 564.5 466 564.5 466 550.5 466 c 0,19,20
 519.5 466 519.5 466 491.5 453 c 128,-1,21
 463.5 440 463.5 440 441.5 416.5 c 128,-1,22
 419.5 393 419.5 393 407 360 c 128,-1,23
 394.5 327 394.5 327 394.5 286 c 2,24,-1
 394.5 0 l 1,25,-1
 306.5 0 l 1,26,-1
 306.5 536 l 1,27,-1
 378.5 536 l 1,28,-1
 388.5 438 l 1,29,-1
 392.5 438 l 1,30,31
 409.5 468 409.5 468 433.5 492.5 c 128,-1,32
 457.5 517 457.5 517 488.5 531.5 c 128,-1,33
 519.5 546 519.5 546 556.5 546 c 0,12,13
EndSplineSet
EndChar

StartChar: S
Encoding: 83 83 60
Width: 926
Flags: W
AnchorPoint: "Anchor-7" 462.5 268 basechar 0
AnchorPoint: "Anchor-6" 659.5 536 basechar 0
AnchorPoint: "Anchor-5" 460.5 0 basechar 0
LayerCount: 2
Fore
SplineSet
479.5 744 m 4,0,1
 499.5 744 499.5 744 515 730.5 c 132,-1,2
 530.5 717 530.5 717 530.5 688 c 4,3,4
 530.5 660 530.5 660 515 646 c 132,-1,5
 499.5 632 499.5 632 479.5 632 c 4,6,7
 457.5 632 457.5 632 442.5 646 c 132,-1,8
 427.5 660 427.5 660 427.5 688 c 4,9,10
 427.5 717 427.5 717 442.5 730.5 c 132,-1,11
 457.5 744 457.5 744 479.5 744 c 4,0,1
654.5 148 m 0,12,13
 654.5 96 654.5 96 628.5 61 c 128,-1,14
 602.5 26 602.5 26 554.5 8 c 128,-1,15
 506.5 -10 506.5 -10 440.5 -10 c 0,16,17
 384.5 -10 384.5 -10 344 -1 c 128,-1,18
 303.5 8 303.5 8 272.5 24 c 1,19,-1
 272.5 104 l 1,20,21
 304.5 88 304.5 88 350 74.5 c 128,-1,22
 395.5 61 395.5 61 442.5 61 c 0,23,24
 509.5 61 509.5 61 539.5 82.5 c 128,-1,25
 569.5 104 569.5 104 569.5 140 c 0,26,27
 569.5 160 569.5 160 558.5 176 c 128,-1,28
 547.5 192 547.5 192 519 208 c 128,-1,29
 490.5 224 490.5 224 437.5 244 c 0,30,31
 385.5 264 385.5 264 348.5 284 c 128,-1,32
 311.5 304 311.5 304 291.5 332 c 128,-1,33
 271.5 360 271.5 360 271.5 404 c 0,34,35
 271.5 472 271.5 472 327 509 c 128,-1,36
 382.5 546 382.5 546 472.5 546 c 0,37,38
 521.5 546 521.5 546 564 536.5 c 128,-1,39
 606.5 527 606.5 527 643.5 510 c 1,40,-1
 613.5 440 l 1,41,42
 579.5 454 579.5 454 542.5 464 c 128,-1,43
 505.5 474 505.5 474 466.5 474 c 0,44,45
 412.5 474 412.5 474 384 456.5 c 128,-1,46
 355.5 439 355.5 439 355.5 409 c 0,47,48
 355.5 387 355.5 387 368.5 371.5 c 128,-1,49
 381.5 356 381.5 356 412 341.5 c 128,-1,50
 442.5 327 442.5 327 493.5 307 c 0,51,52
 544.5 288 544.5 288 580.5 268 c 128,-1,53
 616.5 248 616.5 248 635.5 219.5 c 128,-1,54
 654.5 191 654.5 191 654.5 148 c 0,12,13
EndSplineSet
EndChar

StartChar: T
Encoding: 84 84 61
Width: 926
Flags: W
AnchorPoint: "Anchor-7" 463 262 basechar 0
LayerCount: 2
Fore
SplineSet
558 -11 m 0,0,1
 512 -11 512 -11 473 2.5 c 128,-1,2
 434 16 434 16 410 52 c 128,-1,3
 386 88 386 88 386 155 c 2,4,-1
 386 468 l 1,5,-1
 242 468 l 1,6,-1
 242 536 l 1,7,-1
 684 536 l 1,8,-1
 684 468 l 1,9,-1
 475 468 l 1,10,-1
 475 164 l 2,11,12
 475 126 475 126 487 103 c 128,-1,13
 499 80 499 80 521 70 c 128,-1,14
 543 60 543 60 571 60 c 0,15,16
 593 60 593 60 616.5 63.5 c 128,-1,17
 640 67 640 67 656 71 c 1,18,-1
 656 5 l 1,19,20
 642 -1 642 -1 614.5 -6 c 128,-1,21
 587 -11 587 -11 558 -11 c 0,0,1
EndSplineSet
EndChar

StartChar: U
Encoding: 85 85 62
Width: 926
Flags: W
AnchorPoint: "Anchor-7" 459 263 basechar 0
AnchorPoint: "Anchor-6" 715 536 basechar 0
AnchorPoint: "Anchor-5" 447 -220 basechar 0
AnchorPoint: "Anchor-4" 462 536 basechar 0
LayerCount: 2
Fore
SplineSet
686 536 m 1,0,-1
 686 0 l 1,1,-1
 614 0 l 1,2,-1
 601 71 l 1,3,-1
 597 71 l 1,4,5
 580 43 580 43 553 25 c 128,-1,6
 526 7 526 7 494 -1.5 c 128,-1,7
 462 -10 462 -10 427 -10 c 0,8,9
 363 -10 363 -10 319.5 10.5 c 128,-1,10
 276 31 276 31 254 74 c 128,-1,11
 232 117 232 117 232 185 c 2,12,-1
 232 536 l 1,13,-1
 321 536 l 1,14,-1
 321 191 l 2,15,16
 321 127 321 127 350 95 c 128,-1,17
 379 63 379 63 440 63 c 0,18,19
 500 63 500 63 534.5 85.5 c 128,-1,20
 569 108 569 108 583.5 151.5 c 128,-1,21
 598 195 598 195 598 257 c 2,22,-1
 598 536 l 1,23,-1
 686 536 l 1,0,-1
601 -116 m 0,24,25
 601 -138 601 -138 613 -149.5 c 128,-1,26
 625 -161 625 -161 646 -161 c 0,27,28
 663 -161 663 -161 674.5 -158.5 c 128,-1,29
 686 -156 686 -156 694 -155 c 1,30,-1
 694 -211 l 1,31,32
 680 -215 680 -215 666 -217.5 c 128,-1,33
 652 -220 652 -220 632 -220 c 0,34,35
 579 -220 579 -220 554 -195 c 128,-1,36
 529 -170 529 -170 529 -126 c 0,37,38
 529 -97 529 -97 543.5 -70 c 128,-1,39
 558 -43 558 -43 579.5 -21 c 128,-1,40
 601 1 601 1 621 15 c 1,41,-1
 669 0 l 1,42,43
 635 -32 635 -32 618 -58.5 c 128,-1,44
 601 -85 601 -85 601 -116 c 0,24,25
EndSplineSet
EndChar

StartChar: V
Encoding: 86 86 63
Width: 926
Flags: W
AnchorPoint: "Anchor-4" 450 737 basechar 0
AnchorPoint: "Anchor-7" 463 268 basechar 0
LayerCount: 2
Fore
SplineSet
451 737 m 4,0,1
 471 737 471 737 486.5 723.5 c 132,-1,2
 502 710 502 710 502 681 c 4,3,4
 502 653 502 653 486.5 639 c 132,-1,5
 471 625 471 625 451 625 c 4,6,7
 429 625 429 625 414 639 c 132,-1,8
 399 653 399 653 399 681 c 4,9,10
 399 710 399 710 414 723.5 c 132,-1,11
 429 737 429 737 451 737 c 4,0,1
410 0 m 1,12,-1
 220 536 l 1,13,-1
 311 536 l 1,14,-1
 408 247 l 2,15,16
 416 223 416 223 428 190 c 128,-1,17
 440 157 440 157 450.5 125.5 c 128,-1,18
 461 94 461 94 466 74 c 1,19,-1
 470 74 l 1,20,21
 527 137 527 137 559.5 206.5 c 128,-1,22
 592 276 592 276 605.5 357.5 c 128,-1,23
 619 439 619 439 619 536 c 1,24,-1
 706 536 l 1,25,26
 706 431 706 431 688 340.5 c 128,-1,27
 670 250 670 250 626.5 166.5 c 128,-1,28
 583 83 583 83 505 0 c 1,29,-1
 410 0 l 1,12,-1
EndSplineSet
EndChar

StartChar: W
Encoding: 87 87 64
Width: 926
Flags: W
LayerCount: 2
Fore
SplineSet
780.51953125 655.2734375 m 256,0,1
 758.96484375 655.2734375 758.96484375 655.2734375 739.30859375 630.185546875 c 128,-1,2
 719.655273438 605.098632812 719.655273438 605.098632812 705.708984375 559.783203125 c 128,-1,3
 691.759765625 514.46484375 691.759765625 514.46484375 683.516601562 453.770507812 c 128,-1,4
 675.275390625 393.077148438 675.275390625 393.077148438 675.275390625 323.482421875 c 0,5,6
 675.275390625 252.26953125 675.275390625 252.26953125 683.516601562 191.57421875 c 128,-1,7
 691.759765625 130.883789062 691.759765625 130.883789062 705.708984375 86.375 c 128,-1,8
 719.655273438 41.8642578125 719.655273438 41.8642578125 739.30859375 15.96875 c 128,-1,9
 758.96484375 -9.9248046875 758.96484375 -9.9248046875 780.51953125 -9.9248046875 c 256,10,11
 802.077148438 -9.9248046875 802.077148438 -9.9248046875 821.09765625 15.96875 c 128,-1,12
 840.120117188 41.8642578125 840.120117188 41.8642578125 854.703125 86.375 c 128,-1,13
 869.28125 130.883789062 869.28125 130.883789062 877.524414062 191.57421875 c 128,-1,14
 885.768554688 252.26953125 885.768554688 252.26953125 885.768554688 323.482421875 c 0,15,16
 885.768554688 393.077148438 885.768554688 393.077148438 877.524414062 453.770507812 c 128,-1,17
 869.28125 514.46484375 869.28125 514.46484375 854.703125 559.783203125 c 128,-1,18
 840.120117188 605.098632812 840.120117188 605.098632812 821.09765625 630.185546875 c 128,-1,19
 802.077148438 655.2734375 802.077148438 655.2734375 780.51953125 655.2734375 c 256,0,1
568.837890625 655.2734375 m 256,20,21
 547.284179688 655.2734375 547.284179688 655.2734375 527.627929688 630.185546875 c 128,-1,22
 507.973632812 605.098632812 507.973632812 605.098632812 494.028320312 559.783203125 c 128,-1,23
 480.077148438 514.46484375 480.077148438 514.46484375 471.8359375 453.770507812 c 128,-1,24
 463.594726562 393.077148438 463.594726562 393.077148438 463.594726562 323.482421875 c 0,25,26
 463.594726562 252.26953125 463.594726562 252.26953125 471.8359375 191.57421875 c 128,-1,27
 480.077148438 130.883789062 480.077148438 130.883789062 494.028320312 86.375 c 128,-1,28
 507.973632812 41.8642578125 507.973632812 41.8642578125 527.627929688 15.96875 c 128,-1,29
 547.284179688 -9.9248046875 547.284179688 -9.9248046875 568.837890625 -9.9248046875 c 256,30,31
 590.396484375 -9.9248046875 590.396484375 -9.9248046875 609.415039062 15.96875 c 128,-1,32
 628.4375 41.8642578125 628.4375 41.8642578125 643.021484375 86.375 c 128,-1,33
 657.599609375 130.883789062 657.599609375 130.883789062 665.842773438 191.57421875 c 128,-1,34
 674.087890625 252.26953125 674.087890625 252.26953125 674.087890625 323.482421875 c 0,35,36
 674.087890625 393.077148438 674.087890625 393.077148438 665.842773438 453.770507812 c 128,-1,37
 657.599609375 514.46484375 657.599609375 514.46484375 643.021484375 559.783203125 c 128,-1,38
 628.4375 605.098632812 628.4375 605.098632812 609.415039062 630.185546875 c 128,-1,39
 590.396484375 655.2734375 590.396484375 655.2734375 568.837890625 655.2734375 c 256,20,21
566.802734375 597.200195312 m 0,40,41
 578.158203125 596.94140625 578.158203125 596.94140625 587.860351562 576.907226562 c 0,42,43
 598.200195312 556.34765625 598.200195312 556.34765625 604.807617188 520.291015625 c 0,44,45
 611.977539062 484.387695312 611.977539062 484.387695312 616.103515625 434.8359375 c 0,46,47
 620.74609375 385.672851562 620.74609375 385.672851562 620.211914062 330.15234375 c 0,48,49
 620.74609375 272.196289062 620.74609375 272.196289062 616.103515625 224.399414062 c 0,50,51
 611.977539062 176.247070312 611.977539062 176.247070312 604.807617188 140.010742188 c 0,52,53
 598.200195312 103.366210938 598.200195312 103.366210938 587.860351562 83.3974609375 c 0,54,55
 578.158203125 62.7705078125 578.158203125 62.7705078125 566.802734375 63.1005859375 c 0,56,57
 556.866210938 62.7705078125 556.866210938 62.7705078125 546.260742188 83.3974609375 c 0,58,59
 535.5703125 103.366210938 535.5703125 103.366210938 528.80078125 140.010742188 c 0,60,61
 521.793945312 176.247070312 521.793945312 176.247070312 517.501953125 224.399414062 c 0,62,63
 513.026367188 272.196289062 513.026367188 272.196289062 513.393554688 330.15234375 c 0,64,65
 513.026367188 385.672851562 513.026367188 385.672851562 517.501953125 434.8359375 c 0,66,67
 521.793945312 484.387695312 521.793945312 484.387695312 528.80078125 520.291015625 c 0,68,69
 535.5703125 556.34765625 535.5703125 556.34765625 546.260742188 576.907226562 c 0,70,71
 556.866210938 596.94140625 556.866210938 596.94140625 566.802734375 597.200195312 c 0,40,41
357.157226562 655.2734375 m 256,72,73
 335.602539062 655.2734375 335.602539062 655.2734375 315.947265625 630.185546875 c 128,-1,74
 296.291992188 605.098632812 296.291992188 605.098632812 282.345703125 559.783203125 c 128,-1,75
 268.396484375 514.46484375 268.396484375 514.46484375 260.154296875 453.770507812 c 128,-1,76
 251.913085938 393.077148438 251.913085938 393.077148438 251.913085938 323.482421875 c 0,77,78
 251.913085938 252.26953125 251.913085938 252.26953125 260.154296875 191.57421875 c 128,-1,79
 268.396484375 130.883789062 268.396484375 130.883789062 282.345703125 86.375 c 128,-1,80
 296.291992188 41.8642578125 296.291992188 41.8642578125 315.947265625 15.96875 c 128,-1,81
 335.602539062 -9.9248046875 335.602539062 -9.9248046875 357.157226562 -9.9248046875 c 256,82,83
 378.71484375 -9.9248046875 378.71484375 -9.9248046875 397.734375 15.96875 c 128,-1,84
 416.756835938 41.8642578125 416.756835938 41.8642578125 431.33984375 86.375 c 128,-1,85
 445.916992188 130.883789062 445.916992188 130.883789062 454.162109375 191.57421875 c 128,-1,86
 462.405273438 252.26953125 462.405273438 252.26953125 462.405273438 323.482421875 c 0,87,88
 462.405273438 393.077148438 462.405273438 393.077148438 454.162109375 453.770507812 c 128,-1,89
 445.916992188 514.46484375 445.916992188 514.46484375 431.33984375 559.783203125 c 128,-1,90
 416.756835938 605.098632812 416.756835938 605.098632812 397.734375 630.185546875 c 128,-1,91
 378.71484375 655.2734375 378.71484375 655.2734375 357.157226562 655.2734375 c 256,72,73
145.475585938 655.2734375 m 256,92,93
 123.921875 655.2734375 123.921875 655.2734375 104.265625 630.185546875 c 128,-1,94
 84.611328125 605.098632812 84.611328125 605.098632812 70.6650390625 559.783203125 c 128,-1,95
 56.71484375 514.46484375 56.71484375 514.46484375 48.4736328125 453.770507812 c 128,-1,96
 40.2314453125 393.077148438 40.2314453125 393.077148438 40.2314453125 323.482421875 c 0,97,98
 40.2314453125 252.26953125 40.2314453125 252.26953125 48.4736328125 191.57421875 c 128,-1,99
 56.71484375 130.883789062 56.71484375 130.883789062 70.6650390625 86.375 c 128,-1,100
 84.611328125 41.8642578125 84.611328125 41.8642578125 104.265625 15.96875 c 128,-1,101
 123.921875 -9.9248046875 123.921875 -9.9248046875 145.475585938 -9.9248046875 c 256,102,103
 167.034179688 -9.9248046875 167.034179688 -9.9248046875 186.051757812 15.96875 c 128,-1,104
 205.075195312 41.8642578125 205.075195312 41.8642578125 219.658203125 86.375 c 128,-1,105
 234.236328125 130.883789062 234.236328125 130.883789062 242.48046875 191.57421875 c 128,-1,106
 250.724609375 252.26953125 250.724609375 252.26953125 250.724609375 323.482421875 c 0,107,108
 250.724609375 393.077148438 250.724609375 393.077148438 242.48046875 453.770507812 c 128,-1,109
 234.236328125 514.46484375 234.236328125 514.46484375 219.658203125 559.783203125 c 128,-1,110
 205.075195312 605.098632812 205.075195312 605.098632812 186.051757812 630.185546875 c 128,-1,111
 167.034179688 655.2734375 167.034179688 655.2734375 145.475585938 655.2734375 c 256,92,93
EndSplineSet
EndChar

